<?xml version="1.0" encoding="utf-8"?>
<!-- Generator: Adobe Illustrator 16.0.0, SVG Export Plug-In . SVG Version: 6.00 Build 0)  -->
<!DOCTYPE svg PUBLIC "-//W3C//DTD SVG 1.1//EN" "http://www.w3.org/Graphics/SVG/1.1/DTD/svg11.dtd">
<svg version="1.1" id="Calque_1" xmlns="http://www.w3.org/2000/svg" xmlns:xlink="http://www.w3.org/1999/xlink" x="0px" y="0px"
	 width="75px" height="75px" viewBox="0 0 75 75" enable-background="new 0 0 75 75" xml:space="preserve">
<g>
	<path fill="#F0C30D" d="M35.105,44.488c-0.549-0.467,2.412-2.552,2.979-2.683c1.305-0.298,3.092,7.662,5.887,9.685
		c2.566,1.857,1.751,9.177,1.288,11.019c-0.619,2.463-4.044,5.069-5.833,6.188c-1.788,1.118-2.15,1.103-1.63-1.632
		c0.587-3.071,4.642-9.114,3.492-14.161C40.713,50.372,38.264,47.175,35.105,44.488z"/>
	<path fill="#604C40" d="M35.105,44.488c-0.549-0.467,2.412-2.552,2.979-2.683c0.909-0.209,2.153,3.605,3.598,6.613
		c0.41,0.854-1.59,1.711-1.977,1.103C38.615,47.801,36.963,46.069,35.105,44.488z"/>
	<path fill="#F5A017" d="M39.332,51.509c0,0-2.118,6.758-5.76,9.695c-0.625,0.504,0.069,2.742,0.641,4.179
		c0.4,1.006,1.042,1.44,1.042,1.44s0.781,1.053,1.789-0.472c0.695-1.059,4.953-9.686,3.798-13.278
		C39.95,50.295,39.614,50.751,39.332,51.509z"/>
	<path fill="#F0C30D" d="M22.795,60.111c0.829-1.063,2.196-1.882,3.557-0.39c1.993,2.177,4.263,2.309,5.773,2.309
		c1.563,0,0.754,3.882,3.499,5.68c0.488,0.318,0.47,1.361-1.243,0.931c-2.516-0.629-3.929-4.487-4.804-4.637
		c-1.974-0.335-2.74,4.897-4.862,5.978c-1.438,0.732-6.294,1.844-12.347-0.092c-3.172-1.018-3.52-3.055-1.712-2.812
		c3.38,0.451,5.194,0.465,6.61-0.337C19.771,65.322,21.506,61.769,22.795,60.111z"/>
	<path fill="#F5A017" d="M28.898,56.264c-0.407,0.233-0.515,0.633-0.57,0.887c-0.184,0.833-0.466,3.296-0.466,3.296
		s1.586,1.406,4.404,0.793c0,0-1.117,0.226-2.399-1.966c-0.201-0.346-0.681-1.414-0.941-2.105
		C28.635,56.396,28.898,56.264,28.898,56.264z"/>
	<path fill="#F0C30D" d="M36.958,55.853c-0.227,1.236-3.491,5.797-5.055,5.359c-1.186-0.333-2.026-1.563-2.943-3.95
		c-0.354-0.922-0.202-0.94,0.192-1.129c1.284-0.615,4.69-0.107,6.104-1.813C35.617,53.882,37.111,55.013,36.958,55.853z"/>
	<path fill="#F0C30D" d="M48.161,60.598c2.257-0.189,4.829,3.644,7.437,7.01c1.359,1.755,2.499,4.069,4.1,4.151
		c5.922,0.31,7.623,1.463,7.625,1.778c0.003,1.242-4.879,1.27-8.854,1.239c-3.943-0.026-7.433-2.988-7.297-4.42
		C51.889,62.792,48.161,60.598,48.161,60.598z"/>
	<path fill="#F5A017" d="M39.641,69.218c1.109-0.697,1.922-0.867,4.186-3.158c1.764-1.785,3.043-4.72,3.748-5.238
		c0.176-0.129,0.374-0.205,0.587-0.221c0,0,2.475,1.528,2.987,5.936c0.252,2.166,0.025,3.821,0.025,3.821
		c-0.479,0.255-1.219-0.121-2.035-0.44c-2.611-1.025-6.51-1.006-7.684-0.522C39.664,70.132,38.662,69.834,39.641,69.218z"/>
	<path fill="#F5A017" d="M58.768,56.148c0.454,0.695,0.406,1.867-0.658,5.808c-1.068,3.938-0.834,6.313-0.758,6.982
		c0.027,0.251-3.885-5.504-5.338-6.731c0,0,3.626-2.454,4.756-3.375C59.315,56.759,58.768,56.148,58.768,56.148z"/>
	<path fill="#F0C30D" d="M46.4,57.988c0.57-1.283,3.16-3.39,3.686-3.947c0.531-0.559,1.805,1.696,7.627,1.769
		c4.441,0.056-5.699,6.397-5.699,6.397s-3.406-3.577-4.942-1.609C45.857,62.15,46.248,58.331,46.4,57.988z"/>
	<path fill="#F0C30D" d="M57.531,64.606c0,0,1.845,0.669,3.254-1.897c0.861-1.566,1.461-2.482,2.404-2.877
		c1.84-0.774,3.837,0.176,3.686,0.391c-3.713,5.298-3.713,5.951-4.553,7.098c-0.709,0.966-3.483,3.268-4.213,2.763l-0.848-1.22
		C57.262,68.863,56.82,66.979,57.531,64.606z"/>
</g>
</svg>
