<?xml version="1.0" encoding="utf-8"?>
<!-- Generator: Adobe Illustrator 16.0.0, SVG Export Plug-In . SVG Version: 6.00 Build 0)  -->
<!DOCTYPE svg PUBLIC "-//W3C//DTD SVG 1.1//EN" "http://www.w3.org/Graphics/SVG/1.1/DTD/svg11.dtd">
<svg version="1.1" id="Calque_1" xmlns="http://www.w3.org/2000/svg" xmlns:xlink="http://www.w3.org/1999/xlink" x="0px" y="0px"
	 width="75px" height="75px" viewBox="0 0 75 75" enable-background="new 0 0 75 75" xml:space="preserve">
<g>
	<path fill="#E6503D" d="M8.933,65.776c0,0,2.18,3.876,7.561,4.847c5.016,0.905,8.535,1.548,9.213,0.304
		c0.12-0.229,0.285-0.11,0.317,0.032c0.103,0.462-0.036,0.938,3.476,1.385c3.514,0.448,7.663,0.973,7.663,0.973
		s1.066,0.065,1.456-0.748c0.107-0.225,0.338-0.376,0.521-0.037c0.191,0.336,0.902,1.121,3.144,1.345s5.868,0.747,5.868,0.747
		s4.334,0.288,8.035-2.467c1.755-1.309,2.807-3.887,2.807-3.887"/>
	<path fill="#EE775F" d="M32.091,48.704l-7.305-0.529c0,0-4.928-0.749-7.688,3.151c-2.758,3.903-5.853,8.416-7.84,11.193
		c-0.34,0.472-3.577,4.127,5.359,5.281c4.716,0.608,34.011,4.295,34.011,4.295s8.55,1.933,10.835-4.967
		c2.289-6.895,3.174-8.955,3.174-8.955L32.091,48.704z"/>
	<path fill="#EB5F49" d="M30.187,49.207l-4.455-0.198c0,0-5.164-0.639-7.606,2.87C15.681,55.386,10.48,63.03,10.48,63.03
		s-2.052,3.075,3.427,3.902c5.479,0.827,33.773,4.295,33.773,4.295s8.156,1.273,9.932-3.679c1.773-4.951,3.182-8.352,3.182-8.352
		L30.187,49.207z"/>
	<g>
		<path fill="#F0BB11" d="M62.832,56.903c-0.087,0.014-0.135,0.021-0.135,0.021s-30.611,8.403-36.89,10.087l0,0l0,0
			c0.125-0.029,0.262-0.064,0.404-0.101c6.084-1.649,19.125-5.198,28.579-7.793c4.63-1.283,7.906-2.193,7.906-2.193
			S62.745,56.917,62.832,56.903L62.832,56.903 M16.294,55.066c0,0.143,0.018,0.286,0.057,0.438l2.68,10.406
			c0,0,0.037,0.208,0.229,0.477c-0.186-0.269-0.229-0.477-0.229-0.477l-2.68-10.406C16.312,55.353,16.294,55.209,16.294,55.066
			 M56.163,43.493c-0.977,0-2.21,0.163-3.758,0.603c-6.072,1.712-29.51,7.96-29.51,7.96s-5.467,1.132-4.662,3.847l2.373,9.217
			c0,0,0.26,1.451,3.009,1.451c0.812,0,1.837-0.126,3.135-0.45c4.024-1.005,19.54-5.326,28.358-7.79l-27.209,7.495
			c0,0-2.52,0.625-3.352,0.695h-0.004c-0.311,0-1.35-3.942-1.885-5.943c-0.311-1.152-0.721-2.287,2.322-3.141l29.281-8.158
			c0,0,0.764-0.27,1.642-0.27c0.77,0,1.628,0.207,2.144,0.979c1.104,1.655,4.072,6.411,4.072,6.411l-0.4,0.109
			c1.238-0.295,4.838-1.542,2.18-5.634c-2.784-4.285-4.213-5.997-4.213-5.997S59.013,43.493,56.163,43.493"/>
		<path fill="#FBC565" d="M23.615,66.57c-2.749,0-3.009-1.451-3.009-1.451l-2.373-9.217c-0.805-2.715,4.662-3.847,4.662-3.847
			s23.438-6.248,29.51-7.96c1.548-0.439,2.781-0.603,3.758-0.603c2.85,0,3.523,1.385,3.523,1.385s1.429,1.712,4.213,5.997
			c2.658,4.092-0.941,5.339-2.18,5.634l-6.611,1.821c-8.818,2.464-24.334,6.785-28.358,7.79
			C25.452,66.444,24.427,66.57,23.615,66.57 M56.993,42.469c-1.078,0-2.438,0.177-4.149,0.663c-6.7,1.89-31.291,8.354-31.291,8.354
			s-5.26,1.175-5.259,3.58c0,0.143,0.018,0.286,0.057,0.438l2.68,10.406c0,0,0.043,0.208,0.229,0.477
			c0.338,0.471,1.156,1.122,3.094,1.122c0.893,0,2.024-0.139,3.455-0.497l0,0c6.383-1.52,36.89-10.087,36.89-10.087
			s0.048-0.008,0.135-0.021c0.412-0.117,0.79-0.225,1.126-0.318c0.232-0.086,0.478-0.188,0.723-0.314
			c0.064-0.037,0.134-0.073,0.203-0.112l0,0l0,0l0,0c0.887-0.51,1.705-1.332,1.705-2.635c0-0.783-0.295-1.74-1.057-2.906
			c-3.072-4.729-4.648-6.619-4.648-6.619S60.14,42.469,56.993,42.469"/>
		<path fill="#F8AF14" d="M64.856,56.158c-0.069,0.039-0.137,0.075-0.204,0.112c-0.347,0.181-0.622,0.287-0.622,0.287
			c-0.033,0.009-0.067,0.018-0.1,0.027c-0.494,0.182-5.922,1.641-9.167,2.533c-9.233,2.556-28.974,7.911-29.161,7.95
			c-1.65,0.329-3.496,0.486-3.604,0.48l3.134,0.783c0,0,0.347,0.114,0.911,0.114c0.673,0,1.688-0.141,3.227-0.527
			c2.837-0.71,30.619-8.455,30.619-8.455s1.486-0.239,3.252-1.698C64.065,57.002,64.838,56.177,64.856,56.158"/>
		<path fill="#F6A713" d="M55.904,49.009c-0.878,0-1.642,0.27-1.642,0.27l-29.281,8.158c-3.043,0.854-2.633,1.988-2.322,3.141
			c0.535,2.001,1.574,5.943,1.885,5.943h0.004c0.832-0.07,3.352-0.695,3.352-0.695l27.209-7.495
			c3.701-1.033,7.012-1.931,7.012-1.931s-2.969-4.756-4.072-6.411C57.532,49.216,56.674,49.009,55.904,49.009"/>
	</g>
	<path fill="#E6543C" d="M49.334,71.364c0.282,0.023,3.883-10.035,3.883-10.035c-11.63,3.187-17.298,4.918-24.792,6.773
		c-0.604,0.15-1.625,0.354-2.746,0.32c-1.583-0.332-3.652-0.874-3.652-0.874c-1.42-0.04-2.624-0.599-2.965-1.538
		c-0.128-0.351-0.262-0.996-0.262-0.996l-1.562,2.381l9.666,1.248C26.903,68.644,43.875,70.899,49.334,71.364z"/>
</g>
</svg>
