<?xml version="1.0" encoding="utf-8"?>
<!-- Generator: Adobe Illustrator 16.0.0, SVG Export Plug-In . SVG Version: 6.00 Build 0)  -->
<!DOCTYPE svg PUBLIC "-//W3C//DTD SVG 1.1//EN" "http://www.w3.org/Graphics/SVG/1.1/DTD/svg11.dtd">
<svg version="1.1" id="Calque_1" xmlns="http://www.w3.org/2000/svg" xmlns:xlink="http://www.w3.org/1999/xlink" x="0px" y="0px"
	 width="75px" height="75px" viewBox="0 0 75 75" enable-background="new 0 0 75 75" xml:space="preserve">
<g>
	<path opacity="0.8" fill="#10AD90" d="M52.403,47.225c0,3.445-6.555,6.236-15.316,6.236c-8.457,0-15.314-2.791-15.314-6.236
		c0-0.456,0.168-1.56,0.398-1.987c1.494-2.808,7.578-4.251,14.916-4.251c7.5,0,13.658,1.351,14.978,4.251
		C52.231,45.607,52.403,46.835,52.403,47.225z"/>
	<ellipse fill="#009F90" cx="37.116" cy="45.88" rx="15.041" ry="5.747"/>
	<path fill="#5A5858" d="M37.118,51.627c-5.953,0-10.381-1.589-10.381-1.589c2.7-0.982,6.355-1.589,10.381-1.589
		c4.023,0,7.676,0.604,10.376,1.589C47.494,50.038,43.2,51.627,37.118,51.627z"/>
	<g>
		<path opacity="0.5" fill="#10AD90" d="M37.118,74.433l-0.002-0.003c-0.005,0-0.009,0.002-0.015,0.002
			C37.107,74.432,37.114,74.433,37.118,74.433z"/>
		<path opacity="0.5" fill="#10AD90" d="M37.087,74.433c0.006,0,0.012-0.001,0.015-0.001c-0.003,0-0.009-0.002-0.013-0.002
			L37.087,74.433z"/>
		<path opacity="0.8" fill="#10AD90" d="M55.286,55.336c-0.876-2.854-3.363-4.197-3.864-5.881c0,0-3.269,4.006-14.335,4.006
			c-10.699,0-14.304-4.006-14.304-4.006c-0.501,1.684-2.99,3.027-3.864,5.881c-2.01,6.546,0.102,18.303,18.199,19.097
			C55.296,73.639,57.297,61.882,55.286,55.336z"/>
		<path opacity="0.5" fill="#10AD90" d="M37.089,74.43c0.004,0,0.01,0.002,0.013,0.002c0.006,0,0.01-0.002,0.015-0.002l-0.015-0.023
			L37.089,74.43z"/>
		<path opacity="0.5" fill="#10AD90" d="M37.089,74.43c0.004,0,0.01,0.002,0.013,0.002c0.006,0,0.01-0.002,0.015-0.002l-0.015-0.023
			L37.089,74.43z"/>
	</g>
	<g>
		<polygon opacity="0.5" fill="#028990" points="37.128,74.433 37.126,74.43 37.111,74.432 		"/>
		<polygon opacity="0.5" fill="#028990" points="37.099,74.433 37.111,74.432 37.099,74.43 		"/>
		<path opacity="0.8" fill="#028990" d="M52.037,50.569c-0.275-0.37-0.493-0.733-0.605-1.114c0,0-3.269,4.006-14.333,4.006
			c-10.701,0-14.307-4.006-14.307-4.006c-0.125,0.421-0.375,0.82-0.692,1.229c0,0,2.955,5.151,15.028,5.151
			C50.081,55.835,52.037,50.569,52.037,50.569z"/>
		<polygon opacity="0.5" fill="#028990" points="37.099,74.43 37.111,74.432 37.126,74.43 37.111,74.406 		"/>
		<polygon opacity="0.5" fill="#028990" points="37.099,74.43 37.111,74.432 37.126,74.43 37.111,74.406 		"/>
	</g>
	<ellipse opacity="0.6" fill="#96CDB1" cx="37.126" cy="70.332" rx="8.395" ry="2.983"/>
	<path opacity="0.6" fill="#96CDB1" d="M52.939,56.057c0.625,1.399,0.625,2.539-0.301,2.693c-0.843,0.139-0.691-0.777-1.119-1.896
		c-0.428-1.121-1.23-1.857-0.43-2.16C51.884,54.388,52.448,54.96,52.939,56.057z"/>
</g>
</svg>
