<?xml version="1.0" encoding="utf-8"?>
<!-- Generator: Adobe Illustrator 16.0.0, SVG Export Plug-In . SVG Version: 6.00 Build 0)  -->
<!DOCTYPE svg PUBLIC "-//W3C//DTD SVG 1.1//EN" "http://www.w3.org/Graphics/SVG/1.1/DTD/svg11.dtd">
<svg version="1.1" id="Calque_1" xmlns="http://www.w3.org/2000/svg" xmlns:xlink="http://www.w3.org/1999/xlink" x="0px" y="0px"
	 width="75px" height="75px" viewBox="0 0 75 75" enable-background="new 0 0 75 75" xml:space="preserve">
<g>
	<path fill="#35495E" d="M48.883,69.242L26.041,69.69c0,0-0.566,1.904,0.729,2.478c0.844,0.371,4.028,2.236,10.697,2.236
		c4.087,0,6.954-0.332,11.004-2.462C49.546,71.38,48.883,69.969,48.883,69.242"/>
	<path fill="#ACB6BE" d="M37.24,50.987c-5.854,0-10.871-1.3-10.871-2.792s5.018-2.607,10.871-2.607c5.856,0,11.182,1.208,11.182,2.7
		C48.422,49.779,43.097,50.987,37.24,50.987 M37.42,45.19c-6.513,0-11.795,1.344-11.795,3.005c0,1.657,5.282,3.005,11.795,3.005
		c6.514,0,11.793-1.348,11.793-3.005C49.213,46.534,43.934,45.19,37.42,45.19"/>
	<path fill="#8D8E8E" d="M37.253,50.795c-5.437,0-10.095-1.129-10.095-2.421c0-1.29,4.658-2.256,10.095-2.256
		c5.434,0,10.38,1.044,10.38,2.337C47.633,49.746,42.687,50.795,37.253,50.795 M37.24,45.588c-5.854,0-10.871,1.115-10.871,2.607
		s5.018,2.792,10.871,2.792c5.856,0,11.182-1.208,11.182-2.699C48.422,46.796,43.097,45.588,37.24,45.588"/>
	<path fill="#4E4B4A" d="M37.253,46.118c-5.437,0-10.095,0.966-10.095,2.256c0,1.292,4.658,2.421,10.095,2.421
		c5.434,0,10.38-1.049,10.38-2.34C47.633,47.162,42.687,46.118,37.253,46.118"/>
	<path fill="#96A8B9" d="M26.041,49.56l0.021,19.683c0,0-0.049,1.838,1.191,2.383c0.809,0.357,3.852,2.138,10.224,2.138
		c3.909,0,6.648-0.315,10.513-2.35c1.185-0.619,0.849-1.888,0.849-2.584c0-0.693,0.044-19.27,0.044-19.27
		C48.107,51.415,31.652,53.535,26.041,49.56z"/>
	<path fill="#35495E" d="M26.665,47.921c0,0,1.594-12.712,10.186-12.712s10.547,5.716,8.291,12.068
		c-1.239,3.494-7.732,4.028-11.966,3.494C29.473,50.305,26.323,49.753,26.665,47.921z"/>
	<path fill="#3E3A39" d="M34.085,31.547c-1.589,0.101-0.909,0.979-0.447,1.293c0.879,0.596,4.389,2.928,4.389,2.928h0.549
		l-1.112-0.747c-0.271-0.186-0.201-0.517,0.818-0.565c1.003-0.048,1.708,0.954,1.725,0.979c0.223,0.377,0.268,0.488,0.268,0.488
		l0.466,0.146C38.95,31.945,35.673,31.451,34.085,31.547z M38.281,34.155c-0.15,0.076-0.639,0.207-1.514,0.009
		c-0.877-0.198-2.829-1.59-2.834-1.59c-0.33-0.215-0.411-0.651,0.151-0.679c1.936-0.086,3.438,0.6,4.319,1.651
		C38.732,33.939,38.43,34.081,38.281,34.155z"/>
	<path fill="#5E7C93" d="M43.425,42.429c-3.108-3.632-9.464-3.486-11.998-1.48c-2.532,2.009-3.108,5.642-3.205,6.357
		c-0.093,0.717-0.278,1.947,0.622,2.34c1.866,0.813,6.264,1.388,8.799,1.34c2.531-0.052,3.868-1.386,4.108-1.578
		C41.99,49.216,46.533,46.062,43.425,42.429z M41.331,49.248c-0.222,0.172-1.463,1.413-3.81,1.46
		c-2.35,0.043-6.425-0.488-8.156-1.24c-0.835-0.366-0.662-1.505-0.575-2.17c0.09-0.665,0.624-4.034,2.973-5.896
		c2.347-1.857,8.241-1.994,11.119,1.376C45.761,46.143,41.553,49.067,41.331,49.248z"/>
	<path fill="#5E7C93" d="M36.758,42.422c-4.818-0.447-5.867,6.185-4.893,6.942c5.288,4.084,8.338-0.832,9.065-2.341
		C41.306,46.248,41.575,42.872,36.758,42.422z M40.601,46.944c-0.78,1.588-3.616,5.887-8.411,2.182
		c-0.888-0.682,0.161-6.762,4.526-6.356C41.085,43.175,40.942,46.239,40.601,46.944z"/>
	<path fill="#3E3A39" d="M36.152,45.421c0,0.238-0.124,0.432-0.282,0.432c-0.152,0-0.282-0.193-0.282-0.432
		c0-0.236,0.13-0.43,0.282-0.43C36.028,44.991,36.152,45.185,36.152,45.421z"/>
	<ellipse fill="#3E3A39" cx="37.816" cy="45.588" rx="0.281" ry="0.429"/>
	<ellipse fill="#737272" cx="38.638" cy="37.24" rx="1.081" ry="1.111"/>
	<path fill="#DBDCDC" d="M39.366,37.154c0,0.521-0.411,0.94-0.916,0.94c-0.507,0-0.915-0.419-0.915-0.94
		c0-0.516,0.408-0.938,0.915-0.938C38.955,36.216,39.366,36.639,39.366,37.154z"/>
	<path fill="#8292A3" d="M45.972,70.261c-0.55,0.808-2.929,1.139-2.929,1.139V51.39c0,0,2.085-0.189,2.962-0.543L45.972,70.261z"/>
	<path fill="#5A5858" d="M26.833,53.336v0.694c0,0,8.111,4.503,21.257,0v-0.694C48.09,53.336,36.632,57.837,26.833,53.336z"/>
	<path fill="#5A5858" d="M26.833,54.925v0.693c0,0,8.111,4.504,21.257,0v-0.693C48.09,54.925,36.632,59.426,26.833,54.925z"/>
	<path fill="#5A5858" d="M26.833,56.514v0.694c0,0,8.111,4.503,21.257,0v-0.694C48.09,56.514,36.632,61.014,26.833,56.514z"/>
	<path fill="#5A5858" d="M26.833,58.103v0.695c0,0,8.111,4.503,21.257,0v-0.695C48.09,58.103,36.632,62.604,26.833,58.103z"/>
	<path fill="#5A5858" d="M26.833,59.757v0.697c0,0,8.111,4.501,21.257,0v-0.697C48.09,59.757,36.632,64.263,26.833,59.757z"/>
	<path fill="#5A5858" d="M26.833,61.38v0.695c0,0,8.111,4.504,21.257,0V61.38C48.09,61.38,36.632,65.882,26.833,61.38z"/>
	<path fill="#5A5858" d="M26.833,63.07v0.694c0,0,8.111,4.504,21.257,0V63.07C48.09,63.07,36.632,67.572,26.833,63.07z"/>
	<path fill="#5A5858" d="M26.833,64.821v0.7c0,0,8.111,4.5,21.257,0v-0.7C48.09,64.821,36.632,69.327,26.833,64.821z"/>
	<path fill="#5A5858" d="M26.833,66.544v0.695c0,0,8.111,4.502,21.257,0v-0.695C48.09,66.544,36.632,71.049,26.833,66.544z"/>
</g>
</svg>
