<?xml version="1.0" encoding="utf-8"?>
<!-- Generator: Adobe Illustrator 16.0.0, SVG Export Plug-In . SVG Version: 6.00 Build 0)  -->
<!DOCTYPE svg PUBLIC "-//W3C//DTD SVG 1.1//EN" "http://www.w3.org/Graphics/SVG/1.1/DTD/svg11.dtd">
<svg version="1.1" id="Calque_1" xmlns="http://www.w3.org/2000/svg" xmlns:xlink="http://www.w3.org/1999/xlink" x="0px" y="0px"
	 width="75px" height="75px" viewBox="0 0 75 75" enable-background="new 0 0 75 75" xml:space="preserve">
<g>
	<path opacity="0.8" fill="#EFE3C4" d="M44.051,26.435c0-5.615-3.002-5.633-4.69-5.633c-1.421,0-3.236,0-4.358,0
		c-1.288,0-4.267,0.403-4.267,5.577c0,0.608,0,1.65,0,5.765h13.315C44.051,28.066,44.051,27.12,44.051,26.435z"/>
	<path fill="#9F9F9E" d="M38.306,27.687H36.47v-2.447c0,0,0.307,0.069,0.924,0.069c0.535,0,0.912-0.069,0.912-0.069V27.687z"/>
	<circle fill="#FFFFFF" cx="37.395" cy="26.084" r="0.429"/>
	<path fill="#737272" d="M39.528,29.891h-4.283v-2.448c0,0,1.127,0.078,2.142,0.078c1.021,0,2.142-0.078,2.142-0.078V29.891z"/>
	<path fill="#F39C7A" d="M30.735,69.816c0,3.668,0.063,3.646,1.689,4.1c1.27,0.356,3.241,0.667,4.969,0.667
		c2.317,0,4.188-0.413,4.933-0.667c1.636-0.554,1.725-0.599,1.725-4.005c0-2.241,0-22.629,0-37.798c0,0-3.39,0.561-6.657,0.561
		c-3.249,0-6.658-0.561-6.658-0.561C30.735,47.138,30.735,67.284,30.735,69.816z"/>
	<path fill="#DBDCDC" d="M32.797,29.146c0,0,2.462,0.213,4.587,0.213c2.121,0,4.586-0.213,4.586-0.213l2.081,2.968H30.716
		L32.797,29.146z"/>
	<path fill="#B4B4B5" d="M30.735,31.21c0,0,3.258,0.514,6.658,0.514c3.222,0,6.657-0.514,6.657-0.514v0.903
		c0,0-3.743,0.561-6.657,0.561c-3.034,0-6.678-0.561-6.678-0.561L30.735,31.21z"/>
</g>
</svg>
