<?xml version="1.0" encoding="utf-8"?>
<!-- Generator: Adobe Illustrator 16.0.0, SVG Export Plug-In . SVG Version: 6.00 Build 0)  -->
<!DOCTYPE svg PUBLIC "-//W3C//DTD SVG 1.1//EN" "http://www.w3.org/Graphics/SVG/1.1/DTD/svg11.dtd">
<svg version="1.1" id="Calque_1" xmlns="http://www.w3.org/2000/svg" xmlns:xlink="http://www.w3.org/1999/xlink" x="0px" y="0px"
	 width="75px" height="75px" viewBox="0 0 75 75" enable-background="new 0 0 75 75" xml:space="preserve">
<g>
	<path fill="#423C38" d="M9.636,54.294c0,0,1.122-0.548,1.409-0.548c0.286,0,11.915,12.127,11.915,12.127L31.097,73
		c0,0-0.18,1.836-2.474,0.084c-0.319-0.241-3.606-3.304-5.741-5.676C18.463,62.506,10.183,55.858,9.636,54.294z"/>
	<path fill="#706761" d="M10.915,52.262c0,0-0.965,0.311-1.07,0.493c-0.105,0.184,1.485,1.931,2.008,2.296
		c0.521,0.362,6.125,5.397,6.7,6.361c0.573,0.964,9.358,10.272,9.358,10.272s1.098,1.875,2.947,1.381
		c1.852-0.496,1.152-0.587,1.152-0.587L20.064,60.239L10.915,52.262z"/>
	<path fill="#887F77" d="M10.08,51.479c0,0,2.604-1.095,3.857-0.729c1.252,0.364,18.519,19.24,18.519,19.24
		s-0.434,2.568-1.128,2.854c-0.698,0.286-1.044,0.195-1.724-0.352c-0.674-0.548-2.172-2.645-3.959-4.721
		c-3.1-3.597-7.438-8.597-9.152-10.241C14.987,56.08,11.853,53.901,10.08,51.479z"/>
	<path fill="#7C726B" d="M12.634,49.08c0,0,1.044,0.312,1.932,0.416c0.884,0.104,17.725,21.73,17.725,21.73l0.166,1.017l-1.128,0.6
		c0,0,0.831-0.638-0.704-2.333c-1.023-1.126-4.434-5.525-6.518-7.769C22.021,60.498,14.253,52.938,12.634,49.08z"/>
	<path fill="#AEA196" d="M13.208,47.778h1.875L32.29,71.084h-0.629c0,0-11.1-14.496-14.022-16.997
		C14.721,51.583,13.831,49.289,13.208,47.778z"/>
	<path fill="#CDBDAE" d="M13.938,46.708c0,0,4.615-0.078,8.29-1.174c3.678-1.096,15.883-6.884,17.445-7.118
		c1.567-0.234,4.93-1.406,5.165-1.877c0.232-0.47,2.574,2.818,4.529,4.458c1.955,1.643,10.326,10.325,12.905,12.671
		c2.582,2.347,2.5,2.896,2.816,4.07c0.312,1.17,0.781,2.423-1.329,3.36c-2.113,0.937-24.57,11.92-29.333,12.982
		c-3.385,0.755-4.355,0.177-5.804-0.997c0,0,3.563,0.763,3.147-1.585c-0.417-2.345-5.059-7.507-6.622-9.436
		C23.583,60.132,16.231,50.853,13.938,46.708z"/>
	<polygon fill="#060707" points="26.45,59.429 27.234,60.316 54.45,49.08 53.454,48.178 	"/>
	<polyline fill="#060707" points="26.278,59.249 53.193,47.986 53.071,47.697 26.157,58.959 	"/>
	<polygon fill="#060707" points="18.74,50.414 19.511,51.311 46.865,40.412 45.881,39.497 	"/>
	<polyline fill="#060707" points="20.036,51.799 47.087,40.87 46.971,40.579 19.92,51.509 	"/>
	<text transform="matrix(0.9452 -0.3834 0.6556 0.7551 25.5254 58.3779)" font-family="'TimesNewRomanPSMT'" font-size="11.6136">TIME</text>
</g>
</svg>
