<?xml version="1.0" encoding="utf-8"?>
<!-- Generator: Adobe Illustrator 16.0.0, SVG Export Plug-In . SVG Version: 6.00 Build 0)  -->
<!DOCTYPE svg PUBLIC "-//W3C//DTD SVG 1.1//EN" "http://www.w3.org/Graphics/SVG/1.1/DTD/svg11.dtd">
<svg version="1.1" id="Calque_1" xmlns="http://www.w3.org/2000/svg" xmlns:xlink="http://www.w3.org/1999/xlink" x="0px" y="0px"
	 width="75px" height="75px" viewBox="0 0 75 75" enable-background="new 0 0 75 75" xml:space="preserve">
<g>
	<path fill="#383983" d="M10.317,54.515c-1.12,0.663-2.201,3.388,0,4.82l37.101,11.11c0,0,5.24,1.989,8.07-1.153
		c2.829-3.144,9.956-11.738,9.956-11.738s2.621-3.772-2.305-5.344c-4.928-1.572-32.077-6.55-32.077-6.55s-3.61-0.944-6.125,0.313
		C22.379,47.251,13.956,52.352,10.317,54.515z"/>
	<path fill="#788AC5" d="M10.317,54.515c-0.942,0.576-0.604,1.965,1.913,2.541l36.551,10.418c0,0,3.987,1.372,5.999-0.725
		c2.626-2.734,9.54-10.067,10.841-12.154c0.256-0.407,0.111-0.606,0.091-0.697c0,0-0.922-1.155-2.572-1.688
		c-4.919-1.594-32.077-6.55-32.077-6.55s-3.61-0.944-6.125,0.313C22.379,47.251,13.929,52.306,10.317,54.515z"/>
	<path fill="#35367A" d="M19.593,46.611c0,0,0.282-2.1,7.964-4.412c2.961-0.891,6.866,1.887,6.866,1.887s1.373,0.769-0.584,2.086
		c-1.957,1.321-5.953,3.02-5.953,3.02s-1.087,0.258-1.691,0.187C24.962,49.234,20.011,48.378,19.593,46.611z"/>
	<path fill="#484896" d="M19.582,46.611c0,0,0.281-2.1,7.964-4.412c2.96-0.891,7.022,1.993,7.022,1.993s-0.021,0.337-1.377,1.037
		c-2.098,1.083-5.41,2.754-5.41,2.754s-1.217,0.464-1.819,0.392C24.729,48.232,21.111,47.047,19.582,46.611z"/>
	<g>
		<path fill="#484896" d="M20.378,56.17c0,0,0.454,0.419,0.805,0.28c0.35-0.141,1.047-0.771,1.047-0.771h-0.925L20.378,56.17z"/>
		<path fill="#484896" d="M22.229,56.699c0,0,0.453,0.419,0.805,0.279c0.35-0.139,1.047-0.769,1.047-0.769h-0.925L22.229,56.699z"/>
		<path fill="#484896" d="M24.081,57.173c0,0,0.455,0.417,0.805,0.277c0.348-0.138,1.048-0.768,1.048-0.768h-0.926L24.081,57.173z"
			/>
		<path fill="#484896" d="M25.934,57.685c0,0,0.454,0.419,0.803,0.279c0.35-0.14,1.048-0.769,1.048-0.769h-0.923L25.934,57.685z"/>
		<path fill="#484896" d="M27.784,58.218c0,0,0.454,0.419,0.803,0.279c0.35-0.14,1.049-0.768,1.049-0.768h-0.925L27.784,58.218z"/>
		<path fill="#484896" d="M29.636,58.682c0,0,0.454,0.417,0.803,0.279c0.35-0.141,1.047-0.77,1.047-0.77h-0.924L29.636,58.682z"/>
		<path fill="#484896" d="M31.486,59.224c0,0,0.455,0.418,0.805,0.28c0.348-0.14,1.048-0.769,1.048-0.769h-0.927L31.486,59.224z"/>
		<path fill="#484896" d="M33.339,59.722c0,0,0.453,0.419,0.803,0.278c0.35-0.139,1.047-0.769,1.047-0.769h-0.924L33.339,59.722z"/>
		<path fill="#484896" d="M35.189,60.269c0,0,0.456,0.419,0.804,0.279c0.35-0.141,1.05-0.768,1.05-0.768h-0.925L35.189,60.269z"/>
		<path fill="#484896" d="M37.034,60.738c0,0,0.453,0.419,0.803,0.281c0.35-0.142,1.048-0.77,1.048-0.77h-0.925L37.034,60.738z"/>
		<path fill="#484896" d="M38.886,61.25c0,0,0.454,0.419,0.805,0.281c0.348-0.142,1.048-0.77,1.048-0.77h-0.927L38.886,61.25z"/>
		<path fill="#484896" d="M40.738,61.774c0,0,0.454,0.418,0.803,0.279c0.35-0.139,1.049-0.77,1.049-0.77h-0.925L40.738,61.774z"/>
		<path fill="#484896" d="M42.59,62.247c0,0,0.453,0.418,0.803,0.278c0.351-0.142,1.048-0.768,1.048-0.768h-0.924L42.59,62.247z"/>
		<path fill="#484896" d="M44.44,62.781c0,0,0.453,0.42,0.803,0.281c0.351-0.141,1.049-0.768,1.049-0.768h-0.924L44.44,62.781z"/>
		<path fill="#484896" d="M46.292,63.281c0,0,0.452,0.418,0.804,0.279c0.35-0.142,1.049-0.769,1.049-0.769h-0.927L46.292,63.281z"/>
		<path fill="#484896" d="M48.145,63.792c0,0,0.452,0.418,0.803,0.28c0.348-0.141,1.049-0.77,1.049-0.77H49.07L48.145,63.792z"/>
		<path fill="#484896" d="M49.996,64.304c0,0,0.453,0.417,0.804,0.278c0.35-0.139,1.048-0.769,1.048-0.769h-0.925L49.996,64.304z"/>
		<path fill="#484896" d="M51.847,64.813c0,0,0.453,0.418,0.804,0.28c0.349-0.14,1.049-0.77,1.049-0.77h-0.926L51.847,64.813z"/>
	</g>
	<path fill="#484896" d="M23.152,54.292c0,0,0.455,0.419,0.804,0.28c0.349-0.14,1.048-0.769,1.048-0.769h-0.925L23.152,54.292z"/>
	<path fill="#484896" d="M25.004,54.821c0,0,0.454,0.42,0.803,0.281c0.349-0.141,1.048-0.768,1.048-0.768h-0.924L25.004,54.821z"/>
	<path fill="#484896" d="M26.855,55.296c0,0,0.453,0.418,0.803,0.278c0.351-0.139,1.05-0.768,1.05-0.768h-0.926L26.855,55.296z"/>
	<path fill="#484896" d="M28.708,55.81c0,0,0.453,0.417,0.802,0.279c0.35-0.14,1.048-0.769,1.048-0.769h-0.926L28.708,55.81z"/>
	<path fill="#484896" d="M30.558,56.341c0,0,0.455,0.419,0.804,0.28c0.349-0.141,1.047-0.771,1.047-0.771h-0.925L30.558,56.341z"/>
	<path fill="#484896" d="M32.409,56.806c0,0,0.455,0.417,0.804,0.279c0.35-0.14,1.048-0.769,1.048-0.769h-0.925L32.409,56.806z"/>
	<path fill="#484896" d="M34.26,57.348c0,0,0.456,0.419,0.804,0.28c0.35-0.14,1.049-0.769,1.049-0.769h-0.924L34.26,57.348z"/>
	<path fill="#484896" d="M36.112,57.846c0,0,0.454,0.417,0.803,0.278c0.351-0.139,1.049-0.769,1.049-0.769h-0.926L36.112,57.846z"/>
	<path fill="#484896" d="M37.964,58.392c0,0,0.453,0.419,0.803,0.28c0.351-0.141,1.048-0.77,1.048-0.77h-0.925L37.964,58.392z"/>
	<path fill="#484896" d="M39.81,58.863c0,0,0.452,0.418,0.803,0.28c0.349-0.141,1.048-0.769,1.048-0.769h-0.925L39.81,58.863z"/>
	<path fill="#484896" d="M41.66,59.374c0,0,0.454,0.419,0.803,0.28c0.351-0.141,1.049-0.77,1.049-0.77h-0.924L41.66,59.374z"/>
	<path fill="#484896" d="M43.512,59.898c0,0,0.452,0.419,0.804,0.279c0.35-0.14,1.048-0.768,1.048-0.768h-0.926L43.512,59.898z"/>
	<path fill="#484896" d="M45.362,60.369c0,0,0.456,0.419,0.806,0.28c0.348-0.14,1.047-0.77,1.047-0.77h-0.926L45.362,60.369z"/>
	<path fill="#484896" d="M47.215,60.906c0,0,0.454,0.419,0.803,0.28c0.351-0.142,1.049-0.769,1.049-0.769h-0.924L47.215,60.906z"/>
	<path fill="#484896" d="M49.065,61.404c0,0,0.454,0.419,0.804,0.279c0.35-0.139,1.048-0.769,1.048-0.769h-0.924L49.065,61.404z"/>
	<path fill="#484896" d="M50.917,61.916c0,0,0.454,0.419,0.804,0.278c0.35-0.14,1.048-0.767,1.048-0.767h-0.926L50.917,61.916z"/>
	<path fill="#484896" d="M52.769,62.428c0,0,0.454,0.418,0.806,0.278c0.348-0.14,1.047-0.768,1.047-0.768h-0.926L52.769,62.428z"/>
	<path fill="#484896" d="M26.306,52.602c0,0,0.458,0.414,0.806,0.27c0.35-0.144,1.041-0.78,1.041-0.78l-0.925,0.011L26.306,52.602z"
		/>
	<path fill="#484896" d="M28.165,53.111c0,0,0.459,0.413,0.807,0.268c0.347-0.144,1.04-0.78,1.04-0.78l-0.927,0.013L28.165,53.111z"
		/>
	<path fill="#484896" d="M30.021,53.561c0,0,0.459,0.413,0.807,0.27c0.349-0.145,1.039-0.78,1.039-0.78l-0.925,0.011L30.021,53.561z
		"/>
	<path fill="#484896" d="M31.88,54.051c0,0,0.458,0.416,0.806,0.271c0.347-0.144,1.038-0.78,1.038-0.78l-0.923,0.011L31.88,54.051z"
		/>
	<path fill="#484896" d="M33.737,54.562c0,0,0.459,0.414,0.805,0.271c0.349-0.146,1.041-0.784,1.041-0.784l-0.926,0.014
		L33.737,54.562z"/>
	<path fill="#484896" d="M35.594,55.005c0,0,0.458,0.413,0.807,0.269c0.348-0.143,1.039-0.781,1.039-0.781l-0.926,0.012
		L35.594,55.005z"/>
	<path fill="#484896" d="M37.451,55.525c0,0,0.458,0.414,0.807,0.269c0.348-0.144,1.037-0.779,1.037-0.779l-0.924,0.011
		L37.451,55.525z"/>
	<path fill="#484896" d="M39.309,56.002c0,0,0.459,0.413,0.806,0.27c0.349-0.143,1.038-0.781,1.038-0.781l-0.924,0.011
		L39.309,56.002z"/>
	<path fill="#484896" d="M41.166,56.526c0,0,0.458,0.413,0.808,0.27c0.348-0.145,1.038-0.782,1.038-0.782l-0.926,0.013
		L41.166,56.526z"/>
	<path fill="#484896" d="M43.016,56.977c0,0,0.458,0.413,0.807,0.27c0.348-0.144,1.039-0.781,1.039-0.781l-0.926,0.012
		L43.016,56.977z"/>
	<path fill="#484896" d="M44.873,57.465c0,0,0.459,0.413,0.807,0.271c0.348-0.146,1.038-0.78,1.038-0.78l-0.924,0.01L44.873,57.465z
		"/>
	<path fill="#484896" d="M46.73,57.968c0,0,0.46,0.415,0.806,0.27c0.349-0.144,1.041-0.78,1.041-0.78l-0.927,0.011L46.73,57.968z"/>
	<path fill="#484896" d="M48.588,58.417c0,0,0.458,0.415,0.805,0.271c0.351-0.143,1.042-0.78,1.042-0.78l-0.927,0.011L48.588,58.417
		z"/>
	<path fill="#484896" d="M50.444,58.934c0,0,0.459,0.413,0.808,0.269c0.348-0.144,1.039-0.781,1.039-0.781l-0.924,0.013
		L50.444,58.934z"/>
	<path fill="#484896" d="M52.304,59.409c0,0,0.457,0.414,0.807,0.269c0.347-0.143,1.037-0.779,1.037-0.779l-0.924,0.01
		L52.304,59.409z"/>
	<path fill="#484896" d="M54.16,59.9c0,0,0.459,0.411,0.806,0.269c0.349-0.145,1.038-0.781,1.038-0.781l-0.925,0.011L54.16,59.9z"/>
	<path fill="#484896" d="M56.018,60.387c0,0,0.457,0.415,0.806,0.271c0.348-0.145,1.04-0.781,1.04-0.781l-0.926,0.011L56.018,60.387
		z"/>
	<path fill="#484896" d="M29.201,51.038c0,0,0.464,0.407,0.81,0.258c0.347-0.149,1.027-0.796,1.027-0.796l-0.925,0.024
		L29.201,51.038z"/>
	<path fill="#484896" d="M31.067,51.52c0,0,0.464,0.406,0.809,0.255c0.346-0.149,1.027-0.795,1.027-0.795l-0.925,0.025L31.067,51.52
		z"/>
	<path fill="#484896" d="M32.927,51.942c0,0,0.467,0.407,0.814,0.258c0.346-0.15,1.024-0.795,1.024-0.795l-0.924,0.024
		L32.927,51.942z"/>
	<path fill="#484896" d="M34.794,52.405c0,0,0.464,0.408,0.812,0.259c0.344-0.152,1.025-0.797,1.025-0.797l-0.924,0.023
		L34.794,52.405z"/>
	<path fill="#484896" d="M36.659,52.887c0,0,0.464,0.407,0.811,0.259c0.346-0.149,1.027-0.796,1.027-0.796l-0.926,0.023
		L36.659,52.887z"/>
	<path fill="#484896" d="M38.522,53.302c0,0,0.464,0.407,0.81,0.259c0.347-0.149,1.027-0.796,1.027-0.796l-0.924,0.023
		L38.522,53.302z"/>
	<path fill="#484896" d="M40.387,53.797c0,0,0.466,0.405,0.812,0.258c0.347-0.15,1.027-0.796,1.027-0.796l-0.927,0.023
		L40.387,53.797z"/>
	<path fill="#484896" d="M42.25,54.245c0,0,0.466,0.405,0.813,0.256c0.345-0.149,1.025-0.795,1.025-0.795l-0.924,0.024L42.25,54.245
		z"/>
	<path fill="#484896" d="M44.118,54.741c0,0,0.464,0.406,0.811,0.258c0.345-0.147,1.025-0.797,1.025-0.797l-0.926,0.023
		L44.118,54.741z"/>
	<path fill="#484896" d="M45.973,55.163c0,0,0.465,0.406,0.812,0.259c0.345-0.15,1.025-0.798,1.025-0.798l-0.923,0.025
		L45.973,55.163z"/>
	<path fill="#484896" d="M47.838,55.623c0,0,0.465,0.408,0.811,0.259c0.345-0.149,1.026-0.796,1.026-0.796l-0.926,0.023
		L47.838,55.623z"/>
	<path fill="#484896" d="M49.702,56.101c0,0,0.465,0.405,0.812,0.256c0.344-0.149,1.026-0.797,1.026-0.797l-0.926,0.025
		L49.702,56.101z"/>
	<path fill="#484896" d="M51.567,56.521c0,0,0.464,0.407,0.809,0.257c0.347-0.149,1.028-0.796,1.028-0.796l-0.925,0.025
		L51.567,56.521z"/>
	<path fill="#484896" d="M53.43,57.01c0,0,0.467,0.406,0.812,0.257c0.348-0.148,1.026-0.796,1.026-0.796l-0.925,0.023L53.43,57.01z"
		/>
	<path fill="#484896" d="M55.296,57.457c0,0,0.464,0.407,0.81,0.258c0.345-0.15,1.026-0.796,1.026-0.796l-0.926,0.024L55.296,57.457
		z"/>
	<path fill="#484896" d="M57.16,57.92c0,0,0.463,0.406,0.81,0.257c0.346-0.148,1.026-0.796,1.026-0.796l-0.924,0.025L57.16,57.92z"
		/>
	<path fill="#484896" d="M31.781,49.643c0,0,0.472,0.397,0.815,0.243c0.343-0.155,1.012-0.813,1.012-0.813l-0.923,0.041
		L31.781,49.643z"/>
	<path fill="#484896" d="M33.653,50.091c0,0,0.472,0.397,0.815,0.244s1.014-0.813,1.014-0.813l-0.924,0.04L33.653,50.091z"/>
	<path fill="#484896" d="M35.524,50.48c0,0,0.472,0.399,0.816,0.245c0.344-0.154,1.014-0.813,1.014-0.813l-0.926,0.041L35.524,50.48
		z"/>
	<path fill="#484896" d="M37.396,50.911c0,0,0.472,0.399,0.816,0.245c0.343-0.154,1.013-0.813,1.013-0.813l-0.924,0.041
		L37.396,50.911z"/>
	<path fill="#484896" d="M39.271,51.363c0,0,0.469,0.399,0.813,0.243c0.342-0.153,1.012-0.814,1.012-0.814l-0.922,0.042
		L39.271,51.363z"/>
	<path fill="#484896" d="M41.14,51.746c0,0,0.472,0.398,0.815,0.243c0.343-0.155,1.013-0.815,1.013-0.815l-0.924,0.042L41.14,51.746
		z"/>
	<path fill="#484896" d="M43.012,52.207c0,0,0.473,0.399,0.816,0.243c0.343-0.154,1.015-0.813,1.015-0.813l-0.926,0.04
		L43.012,52.207z"/>
	<path fill="#484896" d="M44.884,52.622c0,0,0.472,0.399,0.815,0.243c0.344-0.152,1.015-0.813,1.015-0.813l-0.927,0.041
		L44.884,52.622z"/>
	<path fill="#484896" d="M46.758,53.088c0,0,0.471,0.397,0.814,0.243s1.015-0.815,1.015-0.815l-0.926,0.042L46.758,53.088z"/>
	<path fill="#484896" d="M48.62,53.478c0,0,0.474,0.399,0.816,0.244c0.345-0.155,1.013-0.813,1.013-0.813l-0.924,0.04L48.62,53.478z
		"/>
	<path fill="#484896" d="M50.494,53.906c0,0,0.472,0.398,0.816,0.245c0.342-0.154,1.012-0.814,1.012-0.814l-0.923,0.042
		L50.494,53.906z"/>
	<path fill="#484896" d="M52.366,54.35c0,0,0.473,0.398,0.814,0.243c0.344-0.154,1.013-0.813,1.013-0.813l-0.922,0.04L52.366,54.35z
		"/>
	<path fill="#484896" d="M54.236,54.739c0,0,0.472,0.398,0.816,0.244c0.343-0.155,1.013-0.815,1.013-0.815l-0.923,0.042
		L54.236,54.739z"/>
	<path fill="#484896" d="M56.109,55.192c0,0,0.473,0.4,0.815,0.245s1.015-0.813,1.015-0.813l-0.926,0.04L56.109,55.192z"/>
	<path fill="#484896" d="M57.98,55.61c0,0,0.474,0.399,0.816,0.245c0.345-0.155,1.014-0.815,1.014-0.815l-0.926,0.042L57.98,55.61z"
		/>
	<path fill="#484896" d="M59.854,56.039c0,0,0.472,0.398,0.814,0.244c0.344-0.153,1.014-0.814,1.014-0.814l-0.924,0.041
		L59.854,56.039z"/>
	<path fill="#484896" d="M34.264,48.162c0,0,0.479,0.39,0.819,0.229c0.341-0.159,1-0.828,1-0.828l-0.922,0.055L34.264,48.162z"/>
	<path fill="#484896" d="M36.145,48.582c0,0,0.478,0.391,0.819,0.229c0.339-0.158,1-0.827,1-0.827l-0.923,0.055L36.145,48.582z"/>
	<path fill="#484896" d="M38.021,48.942c0,0,0.478,0.39,0.818,0.231c0.34-0.159,1-0.83,1-0.83l-0.924,0.055L38.021,48.942z"/>
	<path fill="#484896" d="M39.899,49.345c0,0,0.479,0.392,0.818,0.231c0.341-0.159,1-0.83,1-0.83l-0.922,0.055L39.899,49.345z"/>
	<path fill="#484896" d="M41.777,49.767c0,0,0.48,0.392,0.82,0.233c0.341-0.16,1.001-0.831,1.001-0.831l-0.925,0.054L41.777,49.767z
		"/>
	<path fill="#484896" d="M43.654,50.12c0,0,0.479,0.392,0.818,0.232c0.341-0.16,1-0.831,1-0.831l-0.922,0.057L43.654,50.12z"/>
	<path fill="#484896" d="M45.534,50.554c0,0,0.479,0.391,0.818,0.229c0.343-0.158,1.002-0.827,1.002-0.827l-0.924,0.053
		L45.534,50.554z"/>
	<path fill="#484896" d="M47.411,50.941c0,0,0.479,0.391,0.82,0.23c0.34-0.158,1-0.828,1-0.828l-0.924,0.055L47.411,50.941z"/>
	<path fill="#484896" d="M49.294,51.377c0,0,0.476,0.39,0.818,0.231c0.339-0.161,1.001-0.83,1.001-0.83l-0.925,0.056L49.294,51.377z
		"/>
	<path fill="#484896" d="M51.162,51.739c0,0,0.478,0.39,0.819,0.229c0.341-0.158,1.001-0.829,1.001-0.829l-0.924,0.055
		L51.162,51.739z"/>
	<path fill="#484896" d="M53.041,52.14c0,0,0.479,0.391,0.818,0.23c0.341-0.16,1.002-0.829,1.002-0.829l-0.926,0.053L53.041,52.14z"
		/>
	<path fill="#484896" d="M54.918,52.552c0,0,0.479,0.391,0.819,0.232c0.341-0.16,1.002-0.831,1.002-0.831l-0.925,0.055
		L54.918,52.552z"/>
	<path fill="#484896" d="M56.796,52.913c0,0,0.478,0.393,0.818,0.232c0.342-0.159,1.001-0.83,1.001-0.83l-0.923,0.056L56.796,52.913
		z"/>
	<path fill="#484896" d="M58.675,53.339c0,0,0.48,0.394,0.819,0.233c0.342-0.161,1.001-0.83,1.001-0.83l-0.923,0.056L58.675,53.339z
		"/>
	<path fill="#484896" d="M60.553,53.728c0,0,0.479,0.391,0.82,0.23c0.34-0.158,1.001-0.827,1.001-0.827l-0.926,0.054L60.553,53.728z
		"/>
	<path fill="#484896" d="M9.833,51.526l8.763-4.715c0,0,1.474-0.448,2.724,0c1.252,0.446,5,1.202,5.032,2.775
		c0.01,0.542-0.578,0.891-0.996,1.101c-0.419,0.211-7.257,4.455-7.257,4.455s-0.988,0.646-2.647,0.419
		c-1.938-0.266-4.455-1.1-4.455-1.1S7.623,53.415,9.833,51.526z"/>
	<path fill="#596CB0" d="M10.851,50.979l7.746-4.168c0,0,1.097-0.454,2.647-0.052c1.265,0.326,3.659,1.043,4.528,1.827
		c0.535,0.485-0.153,0.909-0.86,1.325c-0.405,0.236-6.027,3.496-6.027,3.496s-1.167,0.793-2.492,0.623
		c-1.942-0.25-3.771-0.764-3.771-0.764s-3.729-0.729-2.946-1.598C9.756,51.582,10.431,51.199,10.851,50.979z"/>
</g>
</svg>
