<?xml version="1.0" encoding="utf-8"?>
<!-- Generator: Adobe Illustrator 16.0.0, SVG Export Plug-In . SVG Version: 6.00 Build 0)  -->
<!DOCTYPE svg PUBLIC "-//W3C//DTD SVG 1.1//EN" "http://www.w3.org/Graphics/SVG/1.1/DTD/svg11.dtd">
<svg version="1.1" id="Calque_1" xmlns="http://www.w3.org/2000/svg" xmlns:xlink="http://www.w3.org/1999/xlink" x="0px" y="0px"
	 width="75px" height="75px" viewBox="0 0 75 75" enable-background="new 0 0 75 75" xml:space="preserve">
<g>
	<path fill="#00A286" d="M46.218,40.292c-0.101,0.016-0.137,0.021-0.139,0.021C46.083,40.313,46.163,40.301,46.218,40.292
		 M46.242,40.288c-0.007,0.001-0.014,0.002-0.021,0.003C46.229,40.29,46.235,40.289,46.242,40.288 M46.247,40.287
		c-0.002,0-0.002,0-0.002,0.001C46.245,40.287,46.245,40.287,46.247,40.287 M46.255,40.286c-0.001,0-0.004,0-0.006,0.001
		C46.251,40.286,46.254,40.286,46.255,40.286 M46.257,40.286L46.257,40.286L46.257,40.286 M46.266,40.285
		c-0.004,0-0.006,0-0.008,0.001C46.261,40.285,46.262,40.285,46.266,40.285 M46.267,40.285L46.267,40.285L46.267,40.285
		 M46.27,40.285L46.27,40.285L46.27,40.285L46.27,40.285c-1.557,1.082-3.406,1.953-5.371,2.652c0.068,0.131,0.106,0.28,0.106,0.44
		c0,0.523-0.424,0.947-0.947,0.947c-0.477,0-0.872-0.353-0.939-0.809c-7.533,2.241-15.968,2.272-16.197,2.272
		c-1.442,0.605-3.026,1.032-4.58,1.032c-0.04,0-0.079-0.001-0.12-0.001c-0.046,0-0.095-0.002-0.14-0.002
		c-2.484,0-1.494,1.008,0.492,2.016c1.987,1.008,4.974,2.016,6.483,2.016c0.028,0,0.055,0,0.082-0.001c0.02,0,0.04,0,0.057,0
		c1.367,0-0.465,1.369-2.925,2.738c-2.46,1.368-5.548,2.738-6.698,2.738c-0.03,0-0.061-0.002-0.087-0.003
		c-0.062-0.006-0.116-0.008-0.165-0.008c-1.687,0,3.003,2.438,6.474,2.438c3.572,0-3.497,1.368-5.777,1.368
		c-2.179,0,8.074,4.516,20.068,4.516c0.554,0,1.11-0.01,1.671-0.03c12.693-0.456,19.078-2.054,22.118-5.472
		c0.913-1.027-2.051,0.684-9.424-2.966c0,0,3.443-0.699,4.995-1.451c1.932-0.938,3.195-2.575,2.227-2.575
		c-8.678,0-8.818-2.586-8.818-2.586s8.665-0.76,9.047-2.585c0.188-0.899-6.158,0.786-10.566-4.302c0,0,1.747-0.006,3.078-0.447
		c0.799-0.268,1.73-1.055,1.246-1.055c-0.007,0-0.014,0-0.02,0c-0.221,0.01-0.435,0.013-0.644,0.013
		C47.996,41.179,46.27,40.285,46.27,40.285L46.27,40.285 M48.953,39.066c-0.007,0-0.014,0-0.024,0.001c0.006,0,0.011,0,0.015,0
		c0.292,0-0.452,0.604-1.691,0.989c0.238-0.071,0.495-0.154,0.736-0.258C48.639,39.527,49.222,39.066,48.953,39.066 M45.851,38.438
		c0.599,0.274,1.324,0.533,2.185,0.614C47.219,38.963,46.437,38.692,45.851,38.438 M43.244,33.177
		c-0.042,0.001-0.086,0.001-0.129,0.002c0,0.001,0,0.003,0,0.003C43.157,33.18,43.199,33.179,43.244,33.177 M37.416,22.119
		c0,0-4.068,5.472-7.261,6.233c-3.191,0.76,2.128,0.91,2.128,0.91s-1.369,2.053-4.636,2.813c-3.27,0.761,2.507,1.9,2.507,1.9
		l-5.168,1.825c0,0,0.835,0.76,1.14,0.913c0.305,0.151-1.292,0.379-1.976,0.455c-0.684,0.076,2.66,2.129,3.8,2.509
		c1.139,0.381-1.217,0.913-2.281,0.988s2.206,1.064,2.888,1.14l0,0c0.693,0.069,1.38,0.101,2.059,0.101
		c7.665,0,14.208-3.987,14.208-3.987l0,0c0,0,7.212-2.222,4.181-2.269c-3.408-0.052-5.581-1.371-6.324-1.905
		c-0.171,0.11-0.374,0.176-0.593,0.176c-0.001,0-0.003,0-0.004,0c-0.002,0-0.003,0-0.004,0c-0.325,0-0.614-0.146-0.813-0.375v0
		c-0.092-0.106-0.163-0.231-0.208-0.366c-2.839-0.058-5.094-0.334-6.811-0.664v1.68h-0.277V32.46
		c-2.758-0.555-4.031-1.226-4.031-1.226c1.654-0.884,2.379-1.972,2.379-1.972c2.886,1.165,6.446,1.223,8.466,1.223
		c0.109,0,0.217,0,0.318,0c0.103,0,0.201-0.001,0.293-0.001c0.434,0,0.743,0.004,0.891,0.031c-0.348-0.208-0.651-0.445-0.884-0.719
		c0,0,5.496-0.887,2.924-1.402C41.286,27.784,37.416,22.119,37.416,22.119"/>
	<polygon fill="#DF2524" points="37.376,19.901 38.006,21.177 39.415,21.381 38.396,22.375 38.637,23.777 37.376,23.115 
		36.117,23.777 36.358,22.375 35.338,21.381 36.747,21.177 	"/>
	<path fill="#F0C30D" d="M44.824,37.917c0,0-7.752,4.723-16.266,3.887c0,0-0.341,1.405-5.642,3.985c0,0,15.448,0,23.354-5.504
		c0,0-0.429,0.065,0,0c1.817-0.286,3.065-1.24,2.658-1.218C47.034,39.172,45.693,38.369,44.824,37.917"/>
	<path fill="#F0C30D" d="M24.61,52.14c0,0,11.512,5.55,25.84,4.03c0,0,2.38,1.304,4.865,1.899c0,0-21.827,6.916-36.051-2.966
		C19.265,55.104,22.609,53.555,24.61,52.14z"/>
	<path fill="#36B4A5" d="M43.172,32.835c0,0.598-0.485,1.083-1.083,1.083c-0.599,0-1.084-0.485-1.084-1.083s0.485-1.083,1.084-1.083
		C42.687,31.752,43.172,32.237,43.172,32.835"/>
	<circle fill="#36B4A5" cx="31.493" cy="36.92" r="1.083"/>
	<circle fill="#A02D2D" cx="36.237" cy="26.813" r="0.949"/>
	<circle fill="#36B4A5" cx="36.238" cy="26.813" r="0.559"/>
	<path fill="#7082C0" d="M41.005,43.378c0,0.523-0.423,0.947-0.947,0.947c-0.523,0-0.948-0.424-0.948-0.947
		c0-0.524,0.425-0.948,0.948-0.948S41.005,42.854,41.005,43.378"/>
	<circle fill="#A02D2D" cx="26.447" cy="53.567" r="1.399"/>
	<circle fill="#6066AB" cx="50.718" cy="52.169" r="1.399"/>
	<circle fill="#36B4A5" cx="30.24" cy="48.36" r="1.104"/>
	<circle fill="#6066AB" cx="42.088" cy="60.123" r="1.104"/>
	<circle fill="#36B4A5" cx="37.28" cy="49.882" r="1.991"/>
	<path fill="#A02D2D" d="M32.312,36.229c-0.199-0.237-0.493-0.392-0.826-0.392c-0.326,0-0.614,0.147-0.813,0.374
		c0.166,0.19,0.271,0.437,0.271,0.709s-0.105,0.52-0.271,0.709c0.198,0.228,0.487,0.375,0.813,0.375
		c0.333,0,0.627-0.154,0.826-0.392c-0.158-0.188-0.255-0.427-0.255-0.692C32.057,36.656,32.154,36.416,32.312,36.229z"/>
	<path fill="#36B4A5" d="M51.539,51.477c-0.2-0.236-0.492-0.391-0.827-0.391c-0.325,0-0.613,0.147-0.813,0.373
		c0.168,0.189,0.272,0.438,0.272,0.71s-0.104,0.52-0.272,0.708c0.2,0.228,0.488,0.375,0.813,0.375c0.335,0,0.627-0.154,0.827-0.392
		c-0.158-0.188-0.257-0.428-0.257-0.691C51.282,51.904,51.381,51.664,51.539,51.477z"/>
	<circle fill="#A02D2D" cx="30.238" cy="48.36" r="0.558"/>
	<circle fill="#6066AB" cx="26.447" cy="53.567" r="0.558"/>
	<path fill="#0A56A3" d="M44.222,45.318c-0.619,0-1.063,0.502-1.063,1.121l0.411-0.013c0.046-0.327,0.178-0.685,0.618-0.685
		s0.555,0.369,0.594,0.697v3.829h0.436v-3.829C45.218,45.82,44.843,45.318,44.222,45.318z"/>
	<path fill="#0A56A3" d="M31.516,40.518c-0.415,0-0.71,0.334-0.71,0.748l0.275-0.008c0.03-0.218,0.119-0.458,0.412-0.458
		c0.293,0,0.369,0.249,0.396,0.466v2.557h0.291v-2.557C32.18,40.853,31.929,40.518,31.516,40.518z"/>
	<path fill="#0A56A3" d="M36.141,53.567c0.695,0,1.194,0.563,1.194,1.26l-0.46-0.014c-0.053-0.367-0.201-0.77-0.696-0.77
		c-0.492,0-0.622,0.417-0.667,0.783v4.307h-0.488v-4.307C35.023,54.132,35.444,53.567,36.141,53.567z"/>
	<path fill="#7082C0" d="M38.75,49.822c0.164-0.048,0.333-0.104,0.505-0.174l-0.319-0.871c-1.884,0.68-3.31,0-3.31,0l-0.336,0.871
		c0,0,0.161,0.085,0.443,0.174C36.307,49.637,37.407,49.426,38.75,49.822z"/>
	<path fill="#7082C0" d="M35.731,49.822c-0.281,0.092-0.442,0.176-0.442,0.176l0.336,0.874c0,0,1.427-0.685,3.309,0l0.321-0.874
		c-0.172-0.071-0.341-0.125-0.507-0.176C37.407,50.222,36.307,50.008,35.731,49.822z"/>
	<path fill="#36B4A5" d="M42.908,60.123c0.094-0.028,0.187-0.059,0.282-0.099l-0.179-0.484c-1.046,0.379-1.84,0-1.84,0l-0.188,0.484
		c0,0,0.09,0.048,0.246,0.099C41.552,60.02,42.162,59.9,42.908,60.123z"/>
	<path fill="#36B4A5" d="M41.23,60.123c-0.156,0.05-0.245,0.098-0.245,0.098l0.188,0.484c0,0,0.794-0.381,1.839,0l0.18-0.484
		c-0.097-0.04-0.189-0.07-0.281-0.098C42.162,60.343,41.552,60.224,41.23,60.123z"/>
	<path fill="#A02D2D" d="M40.846,42.891c-0.299,0.107-0.572,0.145-0.804,0.145c-0.465,0-0.766-0.145-0.766-0.145l-0.159,0.415
		c0,0,0.075,0.039,0.21,0.084l0,0l0,0c0.159-0.053,0.403-0.108,0.706-0.108c0.214,0,0.459,0.028,0.726,0.108l0,0l0,0
		c0.078-0.024,0.158-0.052,0.239-0.084L40.846,42.891"/>
	<path fill="#A02D2D" d="M40.758,43.39L40.758,43.39c-0.266,0.076-0.511,0.104-0.725,0.104c-0.304,0-0.546-0.056-0.707-0.104l0,0
		l0,0c-0.134,0.042-0.21,0.08-0.21,0.08l0.158,0.415c0,0,0.303-0.144,0.767-0.144c0.232,0,0.506,0.035,0.804,0.144l0.152-0.415
		C40.917,43.438,40.836,43.412,40.758,43.39L40.758,43.39"/>
	<path fill="#B7B7B7" d="M42.288,30.514c2.255,1.356,6.344,1.476,4.74,2.093c-1.083,0.417-2.684,0.511-3.784,0.569
		c0.021-0.001,0.04-0.001,0.06-0.001c1.101-0.023,2.687-0.152,3.764-0.567c1.595-0.614-2.438-0.735-4.701-2.069
		C42.349,30.528,42.322,30.521,42.288,30.514"/>
	<path fill="#F0C30D" d="M32.32,29.262c0,0-0.725,1.087-2.379,1.972c0,0,1.274,0.671,4.032,1.226v-0.719
		c0-0.395,0.239-0.716,0.636-0.716c0.396,0,0.679,0.321,0.679,0.716l-0.263-0.008c-0.028-0.208-0.113-0.437-0.394-0.437
		c-0.281,0-0.355,0.237-0.381,0.444v0.773c1.717,0.329,3.971,0.606,6.81,0.664c-0.036-0.108-0.056-0.224-0.056-0.342
		c0-0.272,0.101-0.519,0.265-0.71l0,0c0.198-0.226,0.487-0.372,0.812-0.372c0.002,0,0.002,0,0.004,0c0.001,0,0.003,0,0.005,0
		c0.597,0,1.082,0.484,1.082,1.083c0,0.12-0.021,0.235-0.056,0.343c0.042,0,0.085,0,0.129-0.002c1.101-0.058,2.7-0.152,3.783-0.569
		c1.604-0.618-2.484-0.737-4.74-2.093c-0.147-0.026-0.457-0.03-0.89-0.03c-0.092,0-0.19,0.001-0.294,0.001c-0.102,0-0.208,0-0.317,0
		C38.767,30.485,35.207,30.427,32.32,29.262"/>
	<path fill="#36B4A5" d="M41.269,32.125c-0.163,0.192-0.264,0.439-0.264,0.71c0,0.119,0.02,0.234,0.056,0.342
		c0.138,0.001,0.278,0.003,0.419,0.005c0.04-0.109,0.061-0.226,0.061-0.348C41.541,32.563,41.436,32.316,41.269,32.125
		 M42.089,31.752c-0.001,0-0.003,0-0.004,0c0.331,0,0.625,0.155,0.822,0.39c-0.158,0.188-0.256,0.428-0.256,0.692
		c0,0.122,0.021,0.24,0.06,0.349c0.135-0.002,0.27-0.004,0.404-0.006c0.036-0.108,0.057-0.223,0.057-0.343
		C43.172,32.237,42.687,31.752,42.089,31.752"/>
	<g>
		<path fill="#9F9F9E" d="M42.223,31.769c0.034,0.003,0.069,0.003,0.102,0.011C42.292,31.772,42.257,31.772,42.223,31.769z"/>
		<path fill="#9F9F9E" d="M42.613,31.902c0.111,0.064,0.214,0.143,0.295,0.241C42.826,32.045,42.725,31.967,42.613,31.902z"/>
		<path fill="#9F9F9E" d="M41.269,32.125c0.167,0.192,0.272,0.438,0.272,0.71C41.541,32.563,41.436,32.316,41.269,32.125
			L41.269,32.125z"/>
		<path fill="#9F9F9E" d="M42.439,31.821c0.036,0.014,0.072,0.021,0.105,0.039C42.512,31.843,42.476,31.834,42.439,31.821z"/>
		<path fill="#A02D2D" d="M42.908,32.143c-0.081-0.098-0.184-0.177-0.295-0.241c-0.021-0.015-0.043-0.032-0.068-0.043
			c-0.033-0.017-0.07-0.024-0.105-0.039c-0.038-0.014-0.073-0.032-0.115-0.042c-0.032-0.008-0.067-0.008-0.101-0.011
			c-0.044-0.007-0.091-0.016-0.139-0.016c-0.001,0-0.002,0-0.003,0c-0.325,0-0.614,0.147-0.812,0.372l0,0
			c0.165,0.192,0.271,0.438,0.271,0.711c0,0.272-0.104,0.52-0.271,0.708c0.197,0.228,0.486,0.375,0.812,0.375
			c0.334,0,0.628-0.155,0.826-0.391c-0.159-0.188-0.256-0.429-0.256-0.692C42.651,32.571,42.749,32.33,42.908,32.143z"/>
	</g>
	<path opacity="0.9" fill="#006FA7" enable-background="new    " d="M34.609,31.025c-0.397,0-0.636,0.32-0.636,0.716v0.718
		c0.09,0.018,0.185,0.037,0.277,0.055v-0.773c0.025-0.208,0.1-0.444,0.381-0.444s0.366,0.228,0.394,0.436l0.264,0.008
		C35.289,31.345,35.004,31.025,34.609,31.025"/>
	<path fill="#0A56A3" d="M34.609,31.025c0.396,0,0.68,0.32,0.68,0.716l-0.264-0.008c-0.028-0.208-0.113-0.436-0.394-0.436
		s-0.355,0.237-0.381,0.444v2.453h-0.277v-2.453C33.973,31.345,34.212,31.025,34.609,31.025"/>
</g>
</svg>
