<?xml version="1.0" encoding="utf-8"?>
<!-- Generator: Adobe Illustrator 16.0.0, SVG Export Plug-In . SVG Version: 6.00 Build 0)  -->
<!DOCTYPE svg PUBLIC "-//W3C//DTD SVG 1.1//EN" "http://www.w3.org/Graphics/SVG/1.1/DTD/svg11.dtd">
<svg version="1.1" xmlns="http://www.w3.org/2000/svg" xmlns:xlink="http://www.w3.org/1999/xlink" x="0px" y="0px" width="200px"
	 height="200px" viewBox="0 0 200 200" enable-background="new 0 0 200 200" xml:space="preserve">
<g id="batiment1">
	<rect x="2.118" y="71.961" fill="#C4CDD7" width="38.07" height="72.073"/>
	<polygon fill="#5B5F61" points="40.173,71.978 2.103,71.978 17.042,61.007 55.111,61.007 	"/>
	<polygon fill="#777A7D" points="55.111,133.08 40.189,144.138 40.189,71.961 55.111,61.007 	"/>
	<polygon fill="#3D3D3B" points="55.111,107.932 40.265,118.975 40.265,99.188 55.111,88.25 	"/>
	<rect x="40.258" y="88.926" fill="#777A7D" width="1.741" height="35.729"/>
	<rect x="53.812" y="82.397" fill="#777A7D" width="1.247" height="35.729"/>
	<path fill="#3D3D3B" d="M53.757,105.694h-7.716V94.978l7.716-5.638C53.757,92.204,53.757,105.694,53.757,105.694z"/>
	<path fill="#3D3D3B" d="M15.964,66.997V54.227c0-1.687-0.924-3.056-2.064-3.056l0,0c-1.142,0-2.065,1.369-2.065,3.056v12.771
		c-0.86,0.615-0.86,0.615-0.86,0.615h4.065L15.964,66.997z"/>
	<path fill="#3D3D3B" d="M10.646,50.895h2.669c1.433,0,2.598,0.924,2.598,2.065l0,0c0,0.232,0.056,1.502-0.034,1.712
		c-0.348,0.812-1.422,0.353-2.564,0.353h-2.669c-1.196,0-1.458-0.594-1.458-2.073C9.188,51.311,9.52,50.895,10.646,50.895z"/>
	<path fill="#C4CDD7" d="M9.866,51.127c0.254-0.147,1.016,0.654,1.016,1.702c0,1.539-0.523,2.055-1.016,1.9
		C9.374,54.576,9.219,51.495,9.866,51.127z"/>
	<polygon fill="#3D3D3B" points="6.639,71.979 6.031,71.971 20.931,61.007 21.548,61.015 	"/>
	<polygon fill="#3D3D3B" points="12.354,71.974 11.766,71.974 26.654,61.011 27.272,61.017 	"/>
	<polygon fill="#3D3D3B" points="18.089,71.971 17.458,71.971 32.395,61.002 33.024,61.007 	"/>
	<polygon fill="#3D3D3B" points="23.811,71.979 23.206,71.979 38.118,61.007 38.742,61.007 	"/>
	<polygon fill="#3D3D3B" points="29.543,71.974 28.935,71.974 43.846,61.007 44.454,61.011 	"/>
	<polygon fill="#3D3D3B" points="35.272,71.974 34.653,71.979 49.571,61.007 50.183,61.011 	"/>
	<path fill="#C4CDD7" d="M42.006,97.802l11.783-8.581v5.055c-3.465,2.539-11.783,8.764-11.783,8.764V97.802z"/>
	<polygon fill="#5B5F61" points="41.999,101.416 41.999,100.963 53.803,92.023 53.796,92.484 	"/>
	<polygon fill="#5B5F61" points="41.999,102.495 41.999,102.04 53.803,93.102 53.796,93.563 	"/>
	<polygon fill="#5B5F61" points="41.999,100.285 41.999,99.832 53.796,90.891 53.803,91.338 	"/>
	<polygon fill="#5B5F61" points="42.006,99.137 42.014,98.676 53.803,89.745 53.803,90.207 	"/>
	<polygon fill="#444749" points="42.006,105.405 42.006,114.459 53.803,103.969 42.006,103.969 	"/>
</g>
<g id="Tapis_1">
	<polygon fill="#5B5F61" points="53.803,103.969 41.96,114.431 87.977,114.459 99.312,103.613 	"/>
</g>
<g id="sigle">
	<path fill="#3D3D3B" d="M10.975,68.415"/>
	<polygon fill="#5B5F61" points="117.746,104.528 117.746,114.431 121.674,114.784 129.573,108.965 129.573,105.405 	"/>
	<polygon fill="#085546" points="150.67,120.834 133.977,107.509 137.471,106.684 154.166,120.008 	"/>
	<path fill="#FFFFFF" stroke="#1E1E1C" stroke-miterlimit="10" d="M111.244,119.404"/>
	<path fill="#FFFFFF" stroke="#1E1E1C" stroke-miterlimit="10" d="M133.705,102.896"/>
	<g>
		<path fill="#15AF91" stroke="#C4CDD7" stroke-miterlimit="10" d="M87.151,113.063c0.079,0.136,0.195,0.267,0.331,0.381
			c0.028-0.019,0.059-0.033,0.087-0.052c-0.073-0.128-0.11-0.275-0.108-0.439c0.004-0.216,0.075-0.451,0.221-0.705l1.787-3.071
			l1.658-2.87l2.036,1.175l-1.723-6.424l-6.423,1.722l2.039,1.186l-2.109,3.65c-0.259,0.449-0.259,1.182,0,1.63L87.151,113.063z"/>
		<path fill="#15AF91" stroke="#C4CDD7" stroke-miterlimit="10" d="M88.133,112.2c-0.145,0.253-0.217,0.494-0.22,0.706
			c-0.006,0.321,0.14,0.584,0.412,0.745c0.156,0.077,0.321,0.134,0.481,0.161c0.031,0.004,0.065,0.008,0.097,0.011l0.336,0.008
			h6.111v-1.712v-2.988h-5.43L88.133,112.2z"/>
		<path fill="#15AF91" stroke="#C4CDD7" stroke-miterlimit="10" d="M102.084,96.997l-2.098-3.656
			c-0.258-0.449-0.892-0.819-1.409-0.82l-4.408-0.016c-0.175,0-0.364,0.046-0.547,0.118v0.082c0.164-0.011,0.329,0.031,0.486,0.127
			c0.182,0.11,0.353,0.291,0.499,0.545l1.758,3.091l1.647,2.873l-2.038,1.17l6.417,1.74l1.742-6.417L102.084,96.997z"/>
		<path fill="#15AF91" stroke="#C4CDD7" stroke-miterlimit="10" d="M94.294,93.562c-0.145-0.251-0.314-0.433-0.498-0.543
			c-0.274-0.168-0.575-0.173-0.852-0.02c-0.146,0.097-0.277,0.211-0.381,0.336c-0.02,0.025-0.039,0.052-0.058,0.077L92.331,93.7
			l-3.071,5.283l1.48,0.861l2.584,1.503l2.731-4.693L94.294,93.562z"/>
		<path fill="#15AF91" stroke="#C4CDD7" stroke-miterlimit="10" d="M104.243,109.262l-3.409,0.027l-0.019-2.419l-4.803,4.877
			l4.879,4.803l-0.011-2.427l4.34-0.033c0.533-0.003,1.183-0.387,1.445-0.85l2.237-3.946c0.151-0.266,0.212-0.627,0.188-0.974
			c-0.003,0.326-0.159,0.592-0.446,0.755c-0.192,0.106-0.441,0.167-0.74,0.17L104.243,109.262z"/>
		<path fill="#15AF91" stroke="#C4CDD7" stroke-miterlimit="10" d="M107.748,108.904c0.299-0.004,0.547-0.064,0.739-0.173
			c0.29-0.162,0.445-0.429,0.446-0.755c-0.011-0.179-0.049-0.354-0.107-0.512c-0.014-0.029-0.027-0.061-0.043-0.09l-0.167-0.302
			l-3.187-5.425l-1.52,0.896l-2.654,1.56l2.833,4.817L107.748,108.904z"/>
	</g>
</g>
<g id="ronds_verts">
	<g>
		<g>
			<g enable-background="new    ">
				<g enable-background="new    ">
					<defs>
						<path id="SVGID_1_" enable-background="new    " d="M73.477,98.63l4.559,2.48c-0.866-0.471-1.894-0.67-2.998-0.515
							l-4.559-2.48C71.583,97.961,72.611,98.159,73.477,98.63z"/>
					</defs>
					<clipPath id="SVGID_2_">
						<use xlink:href="#SVGID_1_"  overflow="visible"/>
					</clipPath>
					<g clip-path="url(#SVGID_2_)" enable-background="new    ">
						<path fill="#085F4D" d="M75.038,100.596l-4.559-2.48c0.683-0.096,1.337-0.057,1.941,0.099l4.559,2.48
							C76.375,100.539,75.721,100.5,75.038,100.596"/>
						<path fill="#075E4C" d="M76.979,100.695l-4.559-2.48c0.309,0.08,0.605,0.189,0.886,0.327l4.559,2.479
							C77.584,100.884,77.288,100.774,76.979,100.695"/>
						<path fill="#075D4B" d="M77.865,101.021l-4.559-2.479c0.058,0.028,0.114,0.058,0.17,0.088l4.559,2.48
							C77.979,101.08,77.922,101.05,77.865,101.021"/>
					</g>
				</g>
				<g>
					<path fill="#0B6D59" d="M75.038,100.596c3.1-0.436,5.602,1.918,5.596,5.265c-0.006,3.337-2.518,6.404-5.618,6.84
						c-3.092,0.435-5.603-1.927-5.596-5.264C69.425,104.09,71.945,101.03,75.038,100.596z"/>
				</g>
				<g enable-background="new    ">
					<defs>
						<path id="SVGID_3_" enable-background="new    " d="M72.024,112.185l-4.559-2.479c-1.568-0.854-2.609-2.599-2.605-4.749
							c0.006-3.346,2.526-6.406,5.619-6.84l4.559,2.48c-3.092,0.435-5.613,3.494-5.619,6.841
							C69.415,109.586,70.456,111.332,72.024,112.185z"/>
					</defs>
					<clipPath id="SVGID_4_">
						<use xlink:href="#SVGID_3_"  overflow="visible"/>
					</clipPath>
					<g clip-path="url(#SVGID_4_)" enable-background="new    ">
						<path fill="#055545" d="M72.024,112.185l-4.559-2.479c-1.568-0.854-2.609-2.599-2.605-4.749
							c0.001-0.822,0.155-1.628,0.432-2.382l4.559,2.48c-0.277,0.753-0.43,1.559-0.432,2.382
							C69.415,109.586,70.456,111.332,72.024,112.185"/>
						<path fill="#055746" d="M69.851,105.055l-4.559-2.48c0.119-0.325,0.262-0.641,0.425-0.943l4.559,2.479
							C70.112,104.414,69.97,104.729,69.851,105.055"/>
						<path fill="#065847" d="M70.275,104.11l-4.559-2.479c0.138-0.256,0.291-0.504,0.457-0.741l4.559,2.48
							C70.566,103.606,70.413,103.854,70.275,104.11"/>
						<path fill="#065A48" d="M70.732,103.37l-4.559-2.48c0.157-0.224,0.326-0.438,0.505-0.641l4.559,2.48
							C71.058,102.933,70.889,103.146,70.732,103.37"/>
						<path fill="#075B49" d="M71.237,102.729l-4.559-2.48c0.181-0.205,0.372-0.398,0.573-0.579l4.559,2.48
							C71.608,102.332,71.417,102.525,71.237,102.729"/>
						<path fill="#075D4B" d="M71.81,102.151l-4.559-2.48c0.215-0.194,0.442-0.374,0.678-0.537l4.559,2.48
							C72.252,101.777,72.025,101.957,71.81,102.151"/>
						<path fill="#075E4C" d="M72.488,101.614l-4.559-2.48c0.291-0.201,0.595-0.377,0.912-0.526l4.559,2.479
							C73.083,101.237,72.778,101.413,72.488,101.614"/>
						<path fill="#085F4D" d="M73.399,101.088l-4.559-2.479c0.519-0.243,1.068-0.413,1.638-0.493l4.559,2.48
							C74.468,100.676,73.918,100.845,73.399,101.088"/>
					</g>
				</g>
			</g>
		</g>
	</g>
	<g>
		<g>
			<g enable-background="new    ">
				<g enable-background="new    ">
					<defs>
						<path id="SVGID_5_" enable-background="new    " d="M58.821,97.315l4.559,2.479c-0.863-0.47-1.887-0.668-2.985-0.514
							l-4.559-2.48C56.934,96.647,57.958,96.846,58.821,97.315z"/>
					</defs>
					<clipPath id="SVGID_6_">
						<use xlink:href="#SVGID_5_"  overflow="visible"/>
					</clipPath>
					<g clip-path="url(#SVGID_6_)" enable-background="new    ">
						<path fill="#085F4D" d="M60.394,99.281l-4.559-2.48c0.679-0.095,1.329-0.056,1.93,0.099l4.559,2.479
							C61.723,99.225,61.073,99.186,60.394,99.281"/>
						<path fill="#075E4C" d="M62.324,99.38L57.766,96.9c0.309,0.079,0.604,0.189,0.885,0.327l4.559,2.479
							C62.929,99.569,62.633,99.459,62.324,99.38"/>
						<path fill="#075D4B" d="M63.209,99.707l-4.559-2.479c0.058,0.028,0.114,0.058,0.17,0.088l4.559,2.479
							C63.323,99.765,63.267,99.735,63.209,99.707"/>
					</g>
				</g>
				<g>
					<path fill="#0B6D59" d="M60.394,99.281c3.092-0.435,5.594,1.928,5.588,5.265c-0.006,3.347-2.518,6.404-5.61,6.839
						c-3.1,0.436-5.602-1.917-5.596-5.264C54.782,102.784,57.294,99.717,60.394,99.281z"/>
				</g>
				<g enable-background="new    ">
					<defs>
						<path id="SVGID_7_" enable-background="new    " d="M57.374,110.871l-4.559-2.48c-1.566-0.852-2.602-2.595-2.598-4.749
							c0.006-3.337,2.518-6.405,5.618-6.84l4.559,2.48c-3.1,0.436-5.612,3.503-5.618,6.84
							C54.771,108.275,55.808,110.019,57.374,110.871z"/>
					</defs>
					<clipPath id="SVGID_8_">
						<use xlink:href="#SVGID_7_"  overflow="visible"/>
					</clipPath>
					<g clip-path="url(#SVGID_8_)" enable-background="new    ">
						<path fill="#055545" d="M57.374,110.871l-4.559-2.48c-1.566-0.852-2.602-2.595-2.598-4.749
							c0.001-0.822,0.155-1.628,0.432-2.382l4.559,2.48c-0.277,0.754-0.43,1.559-0.432,2.381
							C54.771,108.275,55.808,110.019,57.374,110.871"/>
						<path fill="#055746" d="M55.208,103.74l-4.559-2.48c0.12-0.325,0.262-0.641,0.425-0.944l4.559,2.48
							C55.47,103.099,55.327,103.415,55.208,103.74"/>
						<path fill="#065847" d="M55.633,102.796l-4.559-2.48c0.138-0.256,0.291-0.504,0.457-0.741l4.559,2.48
							C55.924,102.291,55.771,102.539,55.633,102.796"/>
						<path fill="#065A48" d="M56.09,102.055l-4.559-2.48c0.157-0.224,0.325-0.438,0.505-0.641l4.559,2.479
							C56.416,101.617,56.247,101.831,56.09,102.055"/>
						<path fill="#075B49" d="M56.595,101.413l-4.559-2.479c0.18-0.204,0.372-0.397,0.572-0.578l4.559,2.48
							C56.966,101.016,56.775,101.209,56.595,101.413"/>
						<path fill="#075D4B" d="M57.167,100.835l-4.559-2.48c0.215-0.194,0.442-0.373,0.678-0.536l4.559,2.479
							C57.609,100.462,57.382,100.642,57.167,100.835"/>
						<path fill="#075E4C" d="M57.845,100.299l-4.559-2.479c0.29-0.201,0.594-0.377,0.911-0.525l4.559,2.48
							C58.439,99.922,58.135,100.099,57.845,100.299"/>
						<path fill="#085F4D" d="M58.755,99.774l-4.559-2.48c0.519-0.243,1.068-0.413,1.639-0.493l4.559,2.48
							C59.824,99.361,59.274,99.53,58.755,99.774"/>
					</g>
				</g>
			</g>
		</g>
	</g>
</g>
<g id="Batiment_2">
	<rect x="77.889" y="71.961" fill="#C4CDD7" width="38.07" height="72.073"/>
	<polygon fill="#5B5F61" points="115.943,71.978 77.873,71.978 92.812,61.007 130.881,61.007 	"/>
	<polygon fill="#777A7D" points="130.881,133.415 115.959,144.138 115.959,71.961 130.881,61.007 	"/>
	<polygon fill="#3D3D3B" points="130.881,107.932 116.035,118.975 116.035,99.188 130.881,88.25 	"/>
	<rect x="116.028" y="88.926" fill="#777A7D" width="1.741" height="35.729"/>
	<rect x="129.582" y="82.397" fill="#777A7D" width="1.247" height="35.729"/>
	<path fill="#3D3D3B" d="M129.527,105.694h-7.716V94.978l7.716-5.638C129.527,92.204,129.527,105.694,129.527,105.694z"/>
	<polygon fill="#3D3D3B" points="82.409,71.979 81.801,71.971 96.702,61.007 97.317,61.015 	"/>
	<polygon fill="#3D3D3B" points="88.125,71.974 87.537,71.974 102.425,61.011 103.042,61.017 	"/>
	<polygon fill="#3D3D3B" points="93.859,71.971 93.229,71.971 108.164,61.002 108.795,61.007 	"/>
	<polygon fill="#3D3D3B" points="99.581,71.979 98.976,71.979 113.889,61.007 114.512,61.007 	"/>
	<polygon fill="#3D3D3B" points="105.313,71.974 104.705,71.974 119.617,61.007 120.223,61.011 	"/>
	<polygon fill="#3D3D3B" points="111.041,71.974 110.422,71.979 125.341,61.007 125.951,61.011 	"/>
	<path fill="#444749" d="M129.573,105.405H117.77v9.046C119.148,113.413,129.573,105.405,129.573,105.405z"/>
</g>
<g id="Tapis_2">
	<polygon fill="#5B5F61" points="129.573,105.405 117.73,114.431 154.343,143.937 162.084,132.541 	"/>
</g>
<g id="carton_sur_tapis">
	
		<rect x="127.515" y="112.61" transform="matrix(0.7816 0.6238 -0.6238 0.7816 104.6331 -60.1409)" fill="#15AF91" width="21.362" height="13.464"/>
	<polygon fill="#08765F" points="145.768,130.53 142.344,131.267 150.742,120.744 154.166,120.008 	"/>
</g>
<g id="tas_de_carton">
	<g>
		<rect x="151.934" y="134.555" fill="#15AF91" width="21.361" height="13.462"/>
		<polygon fill="#08765F" points="175.513,145.307 173.295,148.017 173.295,134.555 175.513,131.844 		"/>
		<polygon fill="#085546" points="173.295,134.669 151.934,134.669 154.15,131.844 175.513,131.844 		"/>
	</g>
	<g>
		<rect x="175.513" y="134.555" fill="#15AF91" width="21.362" height="13.462"/>
		<polygon fill="#085546" points="196.875,134.669 175.513,134.669 177.73,131.844 199.092,131.844 		"/>
		<polygon fill="#08765F" points="199.092,145.307 196.875,148.017 196.875,134.555 199.092,131.844 		"/>
	</g>
	<g>
		<rect x="162.984" y="120.836" fill="#15AF91" width="21.361" height="13.463"/>
		<polygon fill="#08765F" points="186.562,131.59 184.346,134.299 184.346,120.836 186.562,118.126 		"/>
		<polygon fill="#085546" points="184.346,120.95 162.984,120.95 165.201,118.126 186.562,118.126 		"/>
	</g>
</g>
<g id="levier">
	<rect x="8.387" y="91.27" fill="#3D3D3B" width="4.066" height="11.641"/>
	<polygon fill="#777A7D" points="6.631,92.101 11.159,100.231 11.159,101.248 5.246,94.688 	"/>
	<path fill="#3D3D3B" d="M7.987,93.495c0,1.607-0.848,2.701-1.895,2.701c-1.045,0-1.894-1.304-1.894-2.911
		c0-1.606,0.849-2.91,1.894-2.91C7.139,90.375,7.987,91.887,7.987,93.495z"/>
	<ellipse fill="#777A7D" cx="5.741" cy="93.14" rx="1.894" ry="2.841"/>
</g>
</svg>
