<?xml version="1.0" encoding="utf-8"?>
<!-- Generator: Adobe Illustrator 16.0.0, SVG Export Plug-In . SVG Version: 6.00 Build 0)  -->
<!DOCTYPE svg PUBLIC "-//W3C//DTD SVG 1.1//EN" "http://www.w3.org/Graphics/SVG/1.1/DTD/svg11.dtd">
<svg version="1.1" xmlns="http://www.w3.org/2000/svg" xmlns:xlink="http://www.w3.org/1999/xlink" x="0px" y="0px" width="200px"
	 height="200px" viewBox="0 0 200 200" enable-background="new 0 0 200 200" xml:space="preserve">
<g id="batiment1">
	<rect x="1.787" y="78.961" fill="#C3CCD5" width="38.07" height="72.073"/>
	<polygon fill="#5B5E60" points="39.842,78.978 1.772,78.978 16.71,68.007 54.78,68.007 	"/>
	<polygon fill="#777A7C" points="54.78,140.08 39.858,151.138 39.858,78.961 54.78,68.007 	"/>
	<polygon fill="#5B5E60" points="41.645,111.528 41.645,121.431 45.572,121.784 53.472,115.965 53.472,112.405 	"/>
	<polygon fill="#3C3C3B" points="54.78,114.932 39.934,125.975 39.934,106.188 54.78,95.25 	"/>
	<rect x="39.927" y="95.926" fill="#777A7C" width="1.741" height="35.729"/>
	<rect x="53.48" y="89.397" fill="#777A7C" width="1.247" height="35.729"/>
	<path fill="#3C3C3B" d="M53.426,112.694H45.71v-10.717l7.715-5.638C53.426,99.204,53.426,112.694,53.426,112.694z"/>
	<path fill="#3C3C3B" d="M15.634,73.997V61.227c0-1.687-0.925-3.056-2.065-3.056l0,0c-1.141,0-2.064,1.369-2.064,3.056v12.771
		c-0.86,0.615-0.86,0.615-0.86,0.615h4.065L15.634,73.997z"/>
	<path fill="#3C3C3B" d="M10.315,57.895h2.668c1.434,0,2.598,0.924,2.598,2.065l0,0c0,0.232,0.057,1.502-0.034,1.712
		c-0.348,0.812-1.422,0.353-2.564,0.353h-2.668c-1.195,0-1.458-0.594-1.458-2.073C8.857,58.311,9.188,57.895,10.315,57.895z"/>
	<path fill="#C3CCD5" d="M9.535,58.127c0.254-0.147,1.016,0.654,1.016,1.702c0,1.539-0.523,2.055-1.016,1.9
		C9.042,61.576,8.888,58.495,9.535,58.127z"/>
	<polygon fill="#3C3C3B" points="6.308,78.979 5.7,78.971 20.599,68.007 21.217,68.015 	"/>
	<polygon fill="#3C3C3B" points="12.023,78.974 11.435,78.974 26.323,68.011 26.941,68.017 	"/>
	<polygon fill="#3C3C3B" points="17.758,78.971 17.127,78.971 32.063,68.002 32.693,68.007 	"/>
	<polygon fill="#3C3C3B" points="23.479,78.979 22.875,78.979 37.787,68.007 38.411,68.007 	"/>
	<polygon fill="#3C3C3B" points="29.212,78.974 28.604,78.974 43.516,68.007 44.123,68.011 	"/>
	<polygon fill="#3C3C3B" points="34.941,78.974 34.322,78.979 49.24,68.007 49.852,68.011 	"/>
	<path fill="#C3CCD5" d="M41.675,104.802l11.783-8.581v5.055c-3.465,2.539-11.783,8.764-11.783,8.764V104.802z"/>
	<polygon fill="#5B5E60" points="41.668,108.416 41.668,107.963 53.472,99.023 53.465,99.484 	"/>
	<polygon fill="#5B5E60" points="41.668,109.495 41.668,109.04 53.472,100.102 53.465,100.563 	"/>
	<polygon fill="#5B5E60" points="41.668,107.285 41.668,106.832 53.465,97.891 53.472,98.338 	"/>
	<polygon fill="#5B5E60" points="41.675,106.137 41.683,105.676 53.472,96.745 53.472,97.207 	"/>
	<path fill="#3C3C3B" d="M10.644,75.415"/>
</g>
<g id="Tapis_1">
	<polygon fill="#5B5E60" points="53.472,110.969 41.629,121.431 87.646,121.459 98.98,110.613 	"/>
	<polygon fill="#434749" points="41.675,112.405 41.675,121.459 53.472,110.969 41.675,110.969 	"/>
</g>
<g id="ronds_bleus">
	<g>
		<g>
			<g enable-background="new    ">
				<g enable-background="new    ">
					<defs>
						<path id="SVGID_1_" enable-background="new    " d="M73.146,105.634l4.559,2.479c-0.866-0.471-1.895-0.67-3-0.515
							l-4.559-2.479C71.251,104.964,72.28,105.162,73.146,105.634z"/>
					</defs>
					<clipPath id="SVGID_2_">
						<use xlink:href="#SVGID_1_"  overflow="visible"/>
					</clipPath>
					<g clip-path="url(#SVGID_2_)" enable-background="new    ">
						<path fill="#16264D" d="M74.705,107.599l-4.559-2.479c0.683-0.097,1.337-0.057,1.942,0.099l4.559,2.479
							C76.042,107.542,75.388,107.503,74.705,107.599"/>
						<path fill="#15254A" d="M76.647,107.697l-4.559-2.479c0.31,0.079,0.606,0.189,0.887,0.327l4.559,2.48
							C77.253,107.887,76.957,107.777,76.647,107.697"/>
						<path fill="#142448" d="M77.534,108.025l-4.559-2.48c0.058,0.028,0.115,0.058,0.171,0.089l4.559,2.479
							C77.648,108.083,77.591,108.054,77.534,108.025"/>
					</g>
				</g>
				<g>
					<path fill="#1D3365" d="M74.705,107.599c3.1-0.436,5.602,1.917,5.596,5.255c-0.006,3.346-2.518,6.404-5.618,6.841
						c-3.092,0.435-5.594-1.92-5.588-5.266C69.101,111.091,71.613,108.033,74.705,107.599z"/>
				</g>
				<g enable-background="new    ">
					<defs>
						<path id="SVGID_3_" enable-background="new    " d="M71.693,119.18l-4.559-2.479c-1.565-0.852-2.603-2.596-2.599-4.751
							c0.006-3.338,2.518-6.396,5.61-6.83l4.559,2.479c-3.092,0.435-5.604,3.492-5.61,6.83
							C69.091,116.585,70.128,118.328,71.693,119.18z"/>
					</defs>
					<clipPath id="SVGID_4_">
						<use xlink:href="#SVGID_3_"  overflow="visible"/>
					</clipPath>
					<g clip-path="url(#SVGID_4_)" enable-background="new    ">
						<path fill="#111E3C" d="M71.693,119.18l-4.559-2.479c-1.565-0.852-2.603-2.596-2.599-4.751
							c0.001-0.822,0.155-1.627,0.431-2.379l4.559,2.479c-0.276,0.753-0.43,1.558-0.431,2.379
							C69.091,116.585,70.128,118.328,71.693,119.18"/>
						<path fill="#121F3F" d="M69.526,112.05l-4.559-2.479c0.119-0.325,0.261-0.64,0.424-0.942l4.559,2.479
							C69.787,111.41,69.645,111.726,69.526,112.05"/>
						<path fill="#122041" d="M69.95,111.107l-4.559-2.479c0.138-0.256,0.29-0.503,0.456-0.74l4.559,2.48
							C70.24,110.604,70.088,110.852,69.95,111.107"/>
						<path fill="#132243" d="M70.406,110.368l-4.559-2.48c0.156-0.223,0.325-0.437,0.504-0.64l4.559,2.48
							C70.731,109.931,70.562,110.145,70.406,110.368"/>
						<path fill="#142346" d="M70.91,109.729l-4.559-2.48c0.18-0.203,0.371-0.396,0.571-0.577l4.559,2.48
							C71.281,109.331,71.09,109.524,70.91,109.729"/>
						<path fill="#142448" d="M71.481,109.151l-4.559-2.48c0.215-0.193,0.441-0.372,0.677-0.535l4.559,2.479
							C71.923,108.778,71.697,108.958,71.481,109.151"/>
						<path fill="#15254A" d="M72.159,108.615l-4.559-2.479c0.29-0.2,0.594-0.377,0.91-0.524l4.559,2.479
							C72.752,108.239,72.448,108.415,72.159,108.615"/>
						<path fill="#16264D" d="M73.068,108.091l-4.559-2.479c0.518-0.244,1.067-0.413,1.637-0.492l4.559,2.479
							C74.136,107.679,73.586,107.848,73.068,108.091"/>
					</g>
				</g>
			</g>
		</g>
	</g>
	<g>
		<g>
			<g enable-background="new    ">
				<g enable-background="new    ">
					<defs>
						<path id="SVGID_5_" enable-background="new    " d="M58.494,104.319l4.559,2.479c-0.866-0.471-1.892-0.67-2.991-0.515
							l-4.559-2.48C56.603,103.649,57.628,103.849,58.494,104.319z"/>
					</defs>
					<clipPath id="SVGID_6_">
						<use xlink:href="#SVGID_5_"  overflow="visible"/>
					</clipPath>
					<g clip-path="url(#SVGID_6_)" enable-background="new    ">
						<path fill="#16264D" d="M60.062,106.284l-4.559-2.48c0.679-0.096,1.331-0.056,1.933,0.1l4.559,2.479
							C61.392,106.228,60.741,106.188,60.062,106.284"/>
						<path fill="#15254A" d="M61.995,106.383l-4.559-2.479c0.309,0.079,0.605,0.189,0.887,0.327l4.559,2.48
							C62.601,106.572,62.304,106.463,61.995,106.383"/>
						<path fill="#142448" d="M62.881,106.711l-4.559-2.48c0.058,0.028,0.115,0.058,0.171,0.089l4.559,2.479
							C62.996,106.769,62.939,106.738,62.881,106.711"/>
					</g>
				</g>
				<g>
					<path fill="#1D3365" d="M60.062,106.284c3.092-0.435,5.602,1.927,5.596,5.264c-0.006,3.346-2.526,6.406-5.618,6.841
						c-3.1,0.436-5.602-1.919-5.596-5.265C54.449,109.787,56.961,106.72,60.062,106.284z"/>
				</g>
				<g enable-background="new    ">
					<defs>
						<path id="SVGID_7_" enable-background="new    " d="M57.042,117.874l-4.559-2.479c-1.566-0.853-2.603-2.596-2.598-4.751
							c0.006-3.337,2.518-6.404,5.618-6.84l4.559,2.48c-3.1,0.436-5.612,3.503-5.618,6.84
							C54.439,115.278,55.476,117.022,57.042,117.874z"/>
					</defs>
					<clipPath id="SVGID_8_">
						<use xlink:href="#SVGID_7_"  overflow="visible"/>
					</clipPath>
					<g clip-path="url(#SVGID_8_)" enable-background="new    ">
						<path fill="#111E3C" d="M57.042,117.874l-4.559-2.479c-1.566-0.853-2.603-2.596-2.598-4.751
							c0.001-0.821,0.155-1.627,0.432-2.381l4.559,2.479c-0.277,0.754-0.43,1.56-0.432,2.382
							C54.439,115.278,55.476,117.022,57.042,117.874"/>
						<path fill="#121F3F" d="M54.875,110.742l-4.559-2.479c0.12-0.325,0.262-0.642,0.425-0.944l4.559,2.479
							C55.137,110.102,54.995,110.417,54.875,110.742"/>
						<path fill="#122041" d="M55.3,109.798l-4.559-2.479c0.138-0.257,0.291-0.504,0.457-0.741l4.559,2.479
							C55.591,109.294,55.438,109.542,55.3,109.798"/>
						<path fill="#132243" d="M55.757,109.057l-4.559-2.479c0.157-0.224,0.326-0.438,0.505-0.641l4.559,2.479
							C56.083,108.619,55.914,108.833,55.757,109.057"/>
						<path fill="#142346" d="M56.262,108.416l-4.559-2.479c0.18-0.204,0.372-0.397,0.572-0.578l4.559,2.479
							C56.634,108.019,56.442,108.212,56.262,108.416"/>
						<path fill="#142448" d="M56.834,107.838l-4.559-2.479c0.215-0.194,0.442-0.374,0.678-0.537l4.559,2.48
							C57.276,107.465,57.05,107.645,56.834,107.838"/>
						<path fill="#15254A" d="M57.513,107.302l-4.559-2.48c0.29-0.2,0.594-0.376,0.91-0.524l4.559,2.479
							C58.106,106.925,57.802,107.101,57.513,107.302"/>
						<path fill="#16264D" d="M58.423,106.776l-4.559-2.479c0.519-0.244,1.068-0.413,1.639-0.493l4.559,2.48
							C59.491,106.364,58.941,106.533,58.423,106.776"/>
					</g>
				</g>
			</g>
		</g>
	</g>
</g>
<g id="Batiment_2">
	<polygon fill="#5B5E60" points="115.612,78.978 77.542,78.978 92.481,68.007 130.551,68.007 	"/>
	<polygon fill="#777A7C" points="130.551,140.415 115.628,151.138 115.628,78.961 130.551,68.007 	"/>
	<polygon fill="#3C3C3B" points="130.551,114.932 115.704,125.975 115.704,106.188 130.551,95.25 	"/>
	<rect x="115.698" y="95.926" fill="#777A7C" width="1.741" height="35.729"/>
	<rect x="129.251" y="89.397" fill="#777A7C" width="1.247" height="35.729"/>
	<path fill="#3C3C3B" d="M129.197,112.694h-7.717v-10.717l7.717-5.638C129.197,99.204,129.197,112.694,129.197,112.694z"/>
	<polygon fill="#3C3C3B" points="82.078,78.979 81.47,78.971 96.371,68.007 96.987,68.015 	"/>
	<polygon fill="#3C3C3B" points="87.794,78.974 87.206,78.974 102.094,68.011 102.712,68.017 	"/>
	<polygon fill="#3C3C3B" points="93.528,78.971 92.897,78.971 107.834,68.002 108.465,68.007 	"/>
	<polygon fill="#3C3C3B" points="99.251,78.979 98.645,78.979 113.558,68.007 114.182,68.007 	"/>
	<polygon fill="#3C3C3B" points="104.982,78.974 104.375,78.974 119.286,68.007 119.892,68.011 	"/>
	<polygon fill="#3C3C3B" points="110.711,78.974 110.092,78.979 125.01,68.007 125.622,68.011 	"/>
	<rect x="77.558" y="78.961" fill="#C3CCD5" width="38.07" height="72.073"/>
</g>
<g id="sigle">
	<g>
		<path fill="#3D62AB" stroke="#C3CCD5" stroke-miterlimit="10" d="M86.82,120.063c0.079,0.136,0.195,0.267,0.331,0.381
			c0.028-0.019,0.059-0.033,0.087-0.052c-0.073-0.128-0.11-0.275-0.107-0.439c0.004-0.216,0.075-0.451,0.22-0.705l1.788-3.071
			l1.657-2.87l2.036,1.175l-1.723-6.424l-6.424,1.722l2.039,1.186l-2.109,3.65c-0.259,0.449-0.259,1.182,0,1.63L86.82,120.063z"/>
		<path fill="#3D62AB" stroke="#C3CCD5" stroke-miterlimit="10" d="M87.802,119.2c-0.145,0.253-0.217,0.494-0.22,0.706
			c-0.006,0.321,0.14,0.584,0.413,0.745c0.156,0.077,0.32,0.134,0.48,0.161c0.031,0.004,0.065,0.008,0.097,0.011l0.336,0.008h6.111
			v-1.712v-2.988H89.59L87.802,119.2z"/>
		<path fill="#3D62AB" stroke="#C3CCD5" stroke-miterlimit="10" d="M101.752,103.997l-2.096-3.656
			c-0.26-0.449-0.893-0.819-1.41-0.82l-4.408-0.016c-0.175,0-0.365,0.046-0.548,0.118v0.082c0.165-0.011,0.329,0.031,0.486,0.127
			c0.182,0.11,0.353,0.291,0.499,0.545l1.758,3.091l1.647,2.873l-2.039,1.17l6.417,1.74l1.743-6.417L101.752,103.997z"/>
		<path fill="#3D62AB" stroke="#C3CCD5" stroke-miterlimit="10" d="M93.963,100.562c-0.145-0.251-0.314-0.433-0.498-0.543
			c-0.274-0.168-0.575-0.173-0.852-0.02c-0.146,0.097-0.276,0.211-0.381,0.336c-0.02,0.025-0.039,0.052-0.058,0.077L92,100.7
			l-3.071,5.283l1.48,0.861l2.584,1.503l2.731-4.693L93.963,100.562z"/>
		<path fill="#3D62AB" stroke="#C3CCD5" stroke-miterlimit="10" d="M103.912,116.262l-3.408,0.027l-0.02-2.419l-4.803,4.877
			l4.879,4.803l-0.012-2.427l4.34-0.033c0.534-0.003,1.184-0.387,1.446-0.85l2.237-3.946c0.15-0.266,0.211-0.627,0.188-0.974
			c-0.004,0.326-0.159,0.592-0.447,0.755c-0.19,0.106-0.441,0.167-0.739,0.17L103.912,116.262z"/>
		<path fill="#3D62AB" stroke="#C3CCD5" stroke-miterlimit="10" d="M107.418,115.904c0.298-0.004,0.547-0.064,0.738-0.173
			c0.291-0.162,0.445-0.429,0.447-0.755c-0.012-0.179-0.049-0.354-0.108-0.512c-0.014-0.029-0.026-0.061-0.042-0.09l-0.168-0.302
			l-3.186-5.425l-1.521,0.896l-2.653,1.56l2.832,4.817L107.418,115.904z"/>
	</g>
</g>
<g id="Tapis_2">
	<polygon fill="#5B5E60" points="129.243,112.405 117.4,121.431 154.012,150.937 161.754,139.541 	"/>
	<path fill="#FFFFFF" stroke="#1D1E1C" stroke-miterlimit="10" d="M110.913,126.404"/>
	<path fill="#FFFFFF" stroke="#1D1E1C" stroke-miterlimit="10" d="M133.375,109.896"/>
	<path fill="#434749" d="M129.243,112.405h-11.804v9.046C118.816,120.413,129.243,112.405,129.243,112.405z"/>
</g>
<g id="carton_sur_tapis">
	
		<rect x="127.184" y="119.61" transform="matrix(0.7816 0.6238 -0.6238 0.7816 108.9223 -58.4048)" fill="#3D62AB" width="21.363" height="13.464"/>
	<polygon fill="#213A74" points="145.438,137.53 142.014,138.267 150.412,127.744 153.836,127.008 	"/>
	<polygon fill="#21305B" points="150.339,127.834 133.646,114.509 137.141,113.684 153.836,127.008 	"/>
</g>
<g id="tas_de_carton">
	<polygon fill="#213A74" points="175.183,152.307 172.965,155.017 172.965,141.555 175.183,138.844 	"/>
	<polygon fill="#21305B" points="172.965,141.669 151.604,141.669 153.821,138.844 175.183,138.844 	"/>
	<rect x="175.183" y="141.555" fill="#3D62AB" width="21.361" height="13.462"/>
	<polygon fill="#21305B" points="196.544,141.669 175.183,141.669 177.399,138.844 198.762,138.844 	"/>
	<rect x="162.653" y="127.836" fill="#3D62AB" width="21.362" height="13.463"/>
	<polygon fill="#213A74" points="186.232,138.59 184.016,141.299 184.016,127.836 186.232,125.126 	"/>
	<polygon fill="#21305B" points="184.016,127.95 162.653,127.95 164.87,125.126 186.232,125.126 	"/>
	<rect x="151.604" y="141.555" fill="#3D62AB" width="21.361" height="13.462"/>
	<polygon fill="#213A74" points="198.762,152.307 196.544,155.017 196.544,141.555 198.762,138.844 	"/>
</g>
<g id="levier">
	<rect x="8.056" y="98.27" fill="#3C3C3B" width="4.066" height="11.641"/>
	<polygon fill="#777A7C" points="6.3,99.101 10.828,107.231 10.828,108.248 4.915,101.688 	"/>
	<path fill="#3C3C3B" d="M7.656,100.495c0,1.607-0.848,2.701-1.895,2.701c-1.046,0-1.894-1.304-1.894-2.911
		c0-1.606,0.848-2.91,1.894-2.91C6.808,97.375,7.656,98.887,7.656,100.495z"/>
	<ellipse fill="#777A7C" cx="5.41" cy="100.14" rx="1.894" ry="2.841"/>
</g>
</svg>
