<?xml version="1.0" encoding="utf-8"?>
<!-- Generator: Adobe Illustrator 16.0.0, SVG Export Plug-In . SVG Version: 6.00 Build 0)  -->
<!DOCTYPE svg PUBLIC "-//W3C//DTD SVG 1.1//EN" "http://www.w3.org/Graphics/SVG/1.1/DTD/svg11.dtd">
<svg version="1.1" xmlns="http://www.w3.org/2000/svg" xmlns:xlink="http://www.w3.org/1999/xlink" x="0px" y="0px" width="200px"
	 height="200px" viewBox="0 0 200 200" enable-background="new 0 0 200 200" xml:space="preserve">
<g id="batiment">
	<polygon fill="#5B5F61" points="109.536,187.543 131.322,187.543 124.151,98.472 116.981,98.472 	"/>
	<polygon fill="#777A7D" points="122.083,164.931 143.868,164.931 136.697,75.859 129.528,75.859 	"/>
	<polygon fill="#C4CDD7" points="73.866,199.52 50.473,199.52 50.473,135.958 73.866,113.005 73.866,135.958 97.259,113.005 
		97.259,135.958 120.651,113.005 120.651,135.958 144.045,113.005 144.045,199.52 120.651,199.52 	"/>
	<polygon fill="#BEC4C8" points="73.866,199.988 50.473,199.988 50.473,136.426 73.866,113.474 73.866,136.426 97.259,113.474 
		97.259,136.426 120.651,113.474 120.651,136.426 144.045,113.474 144.045,199.988 120.651,199.988 	"/>
</g>
<g id="sigle">
	<g>
		<path fill-rule="evenodd" clip-rule="evenodd" fill="#5B5F61" d="M110.288,160.652c0.018,0.789-0.068,1.57-0.258,2.328
			c-0.121,0.479,0.052,0.629,0.459,0.772c1.666,0.584,3.157,1.464,4.436,2.694c2.296,2.216,3.567,4.906,3.734,8.101
			c0.089,1.704-0.152,3.364-0.763,4.965c-0.008,0.018-0.005,0.042-0.017,0.059c-0.166,0.249-0.111,0.801-0.601,0.637
			c-0.485-0.163-0.189-0.545-0.096-0.86c0.884-2.994,0.304-5.694-1.753-8.024c-1.464-1.66-3.33-2.552-5.578-2.679
			c-2.942-0.168-5.286,0.933-7.091,3.212c-0.326,0.411-0.559,0.5-0.959,0.176c-0.153-0.124-0.34-0.211-0.521-0.297
			c-0.633-0.291-1.031-0.604-0.919-1.475c0.105-0.838-0.462-1.526-1.27-1.871c-0.42-0.182-0.574-0.414-0.519-0.869
			c0.05-0.396,0.021-0.803-0.008-1.204c-0.039-0.518,0.202-0.689,0.692-0.75c2.981-0.377,5.188-1.937,6.463-4.625
			c2.29-4.827-0.487-10.379-5.608-11.542c-0.176-0.041-0.354-0.077-0.527-0.126c-0.169-0.046-0.415-0.07-0.362-0.305
			c0.047-0.213,0.275-0.178,0.46-0.161c1.317,0.114,2.571,0.489,3.747,1.062c3.302,1.612,5.479,4.191,6.456,7.747
			C110.157,158.606,110.274,159.623,110.288,160.652z"/>
		<path fill-rule="evenodd" clip-rule="evenodd" fill="#5B5F61" d="M107.292,187.269c-3.792-0.024-6.412-1.035-8.654-3.007
			c-0.344-0.304-0.535-0.318-0.895-0.012c-4.991,4.237-12.093,3.892-16.662-0.795c-0.294-0.302-0.562-0.627-0.829-0.954
			c-0.152-0.183-0.349-0.402-0.081-0.621c0.242-0.193,0.456-0.039,0.619,0.163c0.74,0.903,1.677,1.538,2.704,2.068
			c3.666,1.897,8.751,0.303,10.706-3.333c1.107-2.063,1.397-4.199,0.777-6.454c-0.089-0.325-0.197-0.658-0.369-0.943
			c-0.229-0.386-0.083-0.591,0.244-0.775c0.436-0.245,0.873-0.489,1.304-0.745c0.22-0.13,0.381-0.095,0.595,0.06
			c1.139,0.825,1.766,0.828,2.886,0.038c0.208-0.147,0.386-0.193,0.604-0.061c0.034,0.02,0.068,0.043,0.1,0.064
			c0.496,0.303,1.149,0.5,1.444,0.937c0.342,0.504-0.268,1.044-0.416,1.58c-1.248,4.456,1.198,8.652,5.064,10.07
			c3.371,1.235,6.735,0.33,9.126-2.357c0.079-0.09,0.147-0.191,0.233-0.274c0.158-0.15,0.326-0.234,0.52-0.038
			c0.177,0.179,0.15,0.337,0.002,0.526c-1.027,1.304-2.217,2.422-3.664,3.253C110.743,186.75,108.697,187.301,107.292,187.269z"/>
		<path fill-rule="evenodd" clip-rule="evenodd" fill="#5B5F61" d="M77.8,175.249c-0.103-5.487,3.605-10.194,8.502-11.647
			c0.353-0.104,0.459-0.228,0.391-0.635c-0.627-3.666,0.048-7.033,2.467-9.933c1.968-2.358,4.489-3.777,7.549-4.186
			c0.197-0.027,0.504-0.171,0.535,0.164c0.027,0.271-0.276,0.298-0.491,0.341c-1.856,0.353-3.426,1.219-4.697,2.618
			c-3.984,4.381-1.894,11.696,3.797,13.334c0.488,0.14,0.976,0.229,1.469,0.285c0.412,0.046,0.552,0.247,0.542,0.634
			c-0.013,0.481-0.011,0.965,0.005,1.447c0.008,0.321-0.111,0.508-0.414,0.647c-1.042,0.483-1.585,1.275-1.381,2.459
			c0.047,0.272-0.055,0.408-0.28,0.521c-0.41,0.209-0.837,0.4-1.213,0.663c-0.397,0.272-0.638,0.177-0.9-0.178
			c-1.422-1.929-3.35-3.019-5.704-3.341c-3.765-0.518-7.672,2.009-8.801,5.646c-0.574,1.849-0.556,3.675,0.126,5.486
			c0.087,0.237,0.197,0.492-0.087,0.635c-0.337,0.166-0.402-0.155-0.489-0.365C78.09,178.33,77.726,176.763,77.8,175.249z"/>
		<path fill-rule="evenodd" clip-rule="evenodd" fill="#5B5F61" d="M90.074,171.307c0.239,2.215,1.383,4.378,3.658,5.846
			c0.563,0.363,0.709,0.741,0.512,1.344c-0.17,0.516-0.332,1.026-0.572,1.516c-0.211,0.432-0.435,0.488-0.843,0.256
			c-2.846-1.617-4.72-3.984-5.554-7.155c-0.284-1.074-0.36-2.167-0.325-3.276c0.016-0.499,0.229-0.607,0.675-0.568
			c0.443,0.039,0.875,0.109,1.301,0.224C90.006,169.776,90.006,169.772,90.074,171.307z"/>
		<path fill-rule="evenodd" clip-rule="evenodd" fill="#5B5F61" d="M109.501,170.528c-0.241,4.383-2.226,7.686-6.085,9.83
			c-0.389,0.218-0.598,0.173-0.779-0.261c-0.258-0.63-0.501-1.264-0.632-1.938c-0.064-0.334,0.009-0.551,0.323-0.746
			c2.613-1.621,4.003-3.962,4.093-7.052c0.01-0.302,0.115-0.465,0.424-0.548c0.603-0.155,1.2-0.312,1.824-0.362
			c0.741-0.058,0.83,0.014,0.832,0.776C109.501,170.327,109.501,170.428,109.501,170.528z"/>
		<path fill-rule="evenodd" clip-rule="evenodd" fill="#5B5F61" d="M98.079,159.125c2.308-0.024,4.235,0.565,6.044,1.605
			c0.459,0.264,0.6,0.506,0.205,0.974c-0.426,0.508-0.855,1.006-1.354,1.443c-0.242,0.213-0.451,0.249-0.752,0.083
			c-2.649-1.451-5.315-1.457-7.977-0.027c-0.273,0.147-0.474,0.115-0.706-0.07c-0.506-0.404-0.926-0.886-1.306-1.402
			c-0.443-0.6-0.409-0.719,0.255-1.1C94.287,159.6,96.212,159.083,98.079,159.125z"/>
	</g>
</g>
<g id="Fumée">
	<path fill="#ECECEC" d="M132.063,73.695c-1.241-5.17-13.029-17.166-7.238-25.853s8.687-1.654,8.687-1.654
		c-3.723-13.237-10.548-40.33,2.068-37.021c12.615,3.309,9.307,11.996,9.307,11.996c2.274-17.167,47.775-29.162,49.224-14.685
		c1.447,14.478-23.991,32.885-41.571,27.301c2.481,3.102,22.13-0.414,14.271,8.686c-7.859,9.101-16.959,14.478-23.164,9.928
		c6.411-5.791,10.135,3.516,8.894,8.066C149.886,70.189,132.891,73.489,132.063,73.695z"/>
	<path fill="#ECECEC" d="M120.407,96.231c-0.301-1.25-3.152-4.152-1.751-6.255c1.4-2.101,2.102-0.4,2.102-0.4
		c-0.901-3.202-2.553-9.757,0.499-8.956c3.053,0.801,2.253,2.902,2.253,2.902c0.549-4.153,11.558-7.055,11.908-3.552
		c0.351,3.502-5.804,7.955-10.057,6.604c0.6,0.75,5.354-0.1,3.451,2.102c-1.9,2.201-4.103,3.503-5.604,2.402
		c1.552-1.401,2.451,0.851,2.152,1.952C124.718,95.383,120.607,96.181,120.407,96.231z"/>
</g>
</svg>
