<?xml version="1.0" encoding="utf-8"?>
<!-- Generator: Adobe Illustrator 16.0.0, SVG Export Plug-In . SVG Version: 6.00 Build 0)  -->
<!DOCTYPE svg PUBLIC "-//W3C//DTD SVG 1.1//EN" "http://www.w3.org/Graphics/SVG/1.1/DTD/svg11.dtd">
<svg version="1.1" id="Calque_1" xmlns="http://www.w3.org/2000/svg" xmlns:xlink="http://www.w3.org/1999/xlink" x="0px" y="0px"
	 width="75px" height="75px" viewBox="0 0 75 75" enable-background="new 0 0 75 75" xml:space="preserve">
<g>
	<path fill="#DBDCDC" d="M32.443,23.375c3.584,0.046,7.204,0.068,10.825,0.201c0.205,0.01,0.479,0.221,0.485,0.568
		c0.014,0.973-0.01,2.309-0.007,2.309l-11.826-0.209c0,0-0.055-1.527-0.055-2.1C31.866,23.775,31.866,23.367,32.443,23.375z"/>
	<path fill="#A8CEEF" d="M31.921,26.244l-5.814,4.67c0,0-0.25,0.225-0.339,0.368l0.347,0.006l12.01,0.234
		c0.021-0.072,0.158-0.212,0.158-0.212l5.465-4.857L31.921,26.244z"/>
	<g>
		<path opacity="0.8" fill="#3996D2" d="M38.124,31.522l-11.841-0.231l-0.516-0.009c-0.078,0.086-0.097,0.517-0.097,0.517
			l1.242,37.018c0,0,0.036,1.086,0.363,1.553c0.385,0.539,1.122,0.805,1.122,0.805l10.271,3.443L38.051,32
			C38.051,32,38.053,31.628,38.124,31.522z"/>
		<path opacity="0.9" fill="#006FA7" d="M48.791,29.781c-1.702-1.1-5.029-3.33-5.029-3.332c0,0-3.949,3.511-5.253,4.67
			c-0.449,0.399-0.449,0.399-0.438,1.168c0.152,10.583,0.598,42.331,0.598,42.331s6.975-3.055,9.317-4.055
			c0.281-0.123,0.723-0.434,0.966-0.762c0.262-0.359,0.316-0.779,0.316-1.174c0-5.883,0.061-28.996,0.061-37.335
			C49.329,30.618,49.26,30.083,48.791,29.781z"/>
	</g>
	<polygon opacity="0.9" fill="#003D4D" points="47.01,29.952 42.759,27.329 38.733,30.91 	"/>
	<path fill="#DBDCDC" d="M32.947,29.634l-1.759,1.756c0,0,0.874,10.981,0.257,14.569c-0.136,0.773-0.694,3.404,0.513,3.404
		c1.061,0,0.527-2.463,0.353-3.404c-0.256-1.377-0.788-14.566-0.788-14.566l2.077-1.496L32.947,29.634z"/>
	<path fill="#35495E" d="M31.397,27.353l0.738,2.259c0,0,0.216,0.545,1.251,0.384c1.148-0.177,3.822-1.37,3.317-2.587
		c-0.342-0.822-0.868-1.81-0.868-1.81L31.397,27.353z"/>
	<path opacity="0.8" fill="#10AD90" d="M35.799,25.496c0.231,0.535-0.569,1.386-1.784,1.901c-1.219,0.514-2.387,0.494-2.617-0.044
		c-0.228-0.538,0.577-1.387,1.793-1.9C34.407,24.937,35.574,24.957,35.799,25.496z"/>
	<path fill="#EEEEEE" d="M32.152,51.658c0,0-1.45,3.799-1.627,4.77c-0.512,2.838,3.782,3.311,3.256,0.492
		C33.544,55.66,32.152,51.658,32.152,51.658z"/>
</g>
</svg>
