<?xml version="1.0" encoding="utf-8"?>
<!-- Generator: Adobe Illustrator 16.0.0, SVG Export Plug-In . SVG Version: 6.00 Build 0)  -->
<!DOCTYPE svg PUBLIC "-//W3C//DTD SVG 1.1//EN" "http://www.w3.org/Graphics/SVG/1.1/DTD/svg11.dtd">
<svg version="1.1" id="Calque_1" xmlns="http://www.w3.org/2000/svg" xmlns:xlink="http://www.w3.org/1999/xlink" x="0px" y="0px"
	 width="75px" height="75px" viewBox="0 0 75 75" enable-background="new 0 0 75 75" xml:space="preserve">
<g>
	<path fill="#383983" d="M3.588,54.013c-1.396,0.828-2.744,4.225,0,6.011l46.255,13.851c0,0,6.533,2.481,10.061-1.438
		c3.528-3.919,12.413-14.634,12.413-14.634s3.268-4.703-2.873-6.663c-6.143-1.961-39.992-8.166-39.992-8.166s-4.5-1.177-7.636,0.392
		C18.626,44.958,8.125,51.316,3.588,54.013z"/>
	<path fill="#788AC5" d="M3.588,54.013c-1.175,0.719-0.752,2.45,2.385,3.169L51.542,70.17c0,0,4.972,1.711,7.479-0.902
		c3.275-3.411,11.894-12.553,13.517-15.154c0.317-0.509,0.139-0.757,0.113-0.869c0,0-1.149-1.44-3.207-2.105
		c-6.134-1.985-39.992-8.166-39.992-8.166s-4.5-1.177-7.636,0.392C18.626,44.958,8.091,51.26,3.588,54.013z"/>
	<path fill="#35367A" d="M15.152,44.16c0,0,0.352-2.618,9.929-5.501c3.692-1.11,8.56,2.352,8.56,2.352s1.712,0.96-0.729,2.603
		c-2.44,1.646-7.421,3.763-7.421,3.763s-1.355,0.322-2.108,0.233C21.846,47.431,15.674,46.364,15.152,44.16z"/>
	<path fill="#484896" d="M15.138,44.16c0,0,0.351-2.618,9.93-5.501c3.691-1.11,8.755,2.486,8.755,2.486s-0.026,0.42-1.717,1.293
		c-2.616,1.35-6.744,3.433-6.744,3.433s-1.518,0.578-2.268,0.489C21.556,46.182,17.045,44.703,15.138,44.16z"/>
	<g>
		<path fill="#484896" d="M16.131,56.077c0,0,0.566,0.522,1.003,0.35c0.436-0.176,1.306-0.96,1.306-0.96h-1.154L16.131,56.077z"/>
		<path fill="#484896" d="M18.439,56.738c0,0,0.565,0.522,1.003,0.347c0.436-0.173,1.305-0.958,1.305-0.958h-1.153L18.439,56.738z"
			/>
		<path fill="#484896" d="M20.747,57.327c0,0,0.567,0.521,1.004,0.347c0.434-0.172,1.306-0.957,1.306-0.957h-1.154L20.747,57.327z"
			/>
		<path fill="#484896" d="M23.057,57.967c0,0,0.566,0.521,1.002,0.347c0.436-0.173,1.306-0.958,1.306-0.958h-1.151L23.057,57.967z"
			/>
		<path fill="#484896" d="M25.364,58.631c0,0,0.566,0.521,1.001,0.347c0.437-0.174,1.309-0.957,1.309-0.957H26.52L25.364,58.631z"/>
		<path fill="#484896" d="M27.674,59.208c0,0,0.565,0.521,1.001,0.349c0.436-0.174,1.306-0.96,1.306-0.96h-1.153L27.674,59.208z"/>
		<path fill="#484896" d="M29.98,59.885c0,0,0.567,0.522,1.004,0.349c0.434-0.174,1.306-0.959,1.306-0.959h-1.155L29.98,59.885z"/>
		<path fill="#484896" d="M32.29,60.506c0,0,0.565,0.521,1.001,0.348c0.436-0.174,1.306-0.959,1.306-0.959h-1.152L32.29,60.506z"/>
		<path fill="#484896" d="M34.597,61.187c0,0,0.568,0.522,1.002,0.349c0.436-0.175,1.309-0.958,1.309-0.958h-1.154L34.597,61.187z"
			/>
		<path fill="#484896" d="M36.897,61.774c0,0,0.565,0.522,1.001,0.349c0.437-0.175,1.307-0.958,1.307-0.958h-1.152L36.897,61.774z"
			/>
		<path fill="#484896" d="M39.205,62.411c0,0,0.566,0.523,1.003,0.35c0.435-0.176,1.307-0.959,1.307-0.959H40.36L39.205,62.411z"/>
		<path fill="#484896" d="M41.515,63.065c0,0,0.566,0.521,1.001,0.348s1.308-0.959,1.308-0.959H42.67L41.515,63.065z"/>
		<path fill="#484896" d="M43.823,63.654c0,0,0.565,0.521,1.001,0.347c0.437-0.176,1.307-0.957,1.307-0.957h-1.153L43.823,63.654z"
			/>
		<path fill="#484896" d="M46.131,64.321c0,0,0.564,0.523,1.001,0.35c0.437-0.176,1.308-0.957,1.308-0.957h-1.154L46.131,64.321z"/>
		<path fill="#484896" d="M48.439,64.943c0,0,0.564,0.522,1.002,0.348c0.436-0.175,1.307-0.957,1.307-0.957h-1.154L48.439,64.943z"
			/>
		<path fill="#484896" d="M50.748,65.58c0,0,0.564,0.522,1.001,0.349c0.435-0.175,1.308-0.959,1.308-0.959h-1.155L50.748,65.58z"/>
		<path fill="#484896" d="M53.057,66.218c0,0,0.565,0.521,1.001,0.347c0.437-0.173,1.307-0.957,1.307-0.957h-1.153L53.057,66.218z"
			/>
		<path fill="#484896" d="M55.364,66.854c0,0,0.565,0.521,1.001,0.348s1.309-0.958,1.309-0.958h-1.155L55.364,66.854z"/>
	</g>
	<path fill="#484896" d="M19.59,53.737c0,0,0.567,0.521,1.002,0.348c0.435-0.173,1.307-0.958,1.307-0.958h-1.154L19.59,53.737z"/>
	<path fill="#484896" d="M21.898,54.397c0,0,0.566,0.523,1.002,0.35c0.435-0.174,1.306-0.958,1.306-0.958h-1.152L21.898,54.397z"/>
	<path fill="#484896" d="M24.206,54.988c0,0,0.565,0.521,1.001,0.347c0.437-0.173,1.309-0.957,1.309-0.957h-1.154L24.206,54.988z"/>
	<path fill="#484896" d="M26.516,55.628c0,0,0.565,0.521,1,0.348c0.437-0.174,1.307-0.958,1.307-0.958h-1.154L26.516,55.628z"/>
	<path fill="#484896" d="M28.822,56.29c0,0,0.567,0.522,1.003,0.35c0.436-0.176,1.306-0.96,1.306-0.96h-1.154L28.822,56.29z"/>
	<path fill="#484896" d="M31.131,56.87c0,0,0.567,0.521,1.002,0.349c0.436-0.175,1.306-0.959,1.306-0.959h-1.153L31.131,56.87z"/>
	<path fill="#484896" d="M33.438,57.546c0,0,0.568,0.522,1.002,0.348c0.436-0.174,1.308-0.957,1.308-0.957h-1.153L33.438,57.546z"/>
	<path fill="#484896" d="M35.748,58.167c0,0,0.565,0.521,1.001,0.347c0.437-0.173,1.307-0.957,1.307-0.957h-1.154L35.748,58.167z"/>
	<path fill="#484896" d="M38.056,58.848c0,0,0.565,0.522,1.002,0.349c0.437-0.175,1.306-0.959,1.306-0.959h-1.152L38.056,58.848z"/>
	<path fill="#484896" d="M40.357,59.435c0,0,0.564,0.521,1,0.35c0.435-0.175,1.307-0.959,1.307-0.959h-1.153L40.357,59.435z"/>
	<path fill="#484896" d="M42.664,60.072c0,0,0.566,0.522,1.001,0.349c0.437-0.174,1.307-0.959,1.307-0.959h-1.152L42.664,60.072z"/>
	<path fill="#484896" d="M44.972,60.726c0,0,0.565,0.522,1.002,0.348c0.437-0.174,1.307-0.957,1.307-0.957h-1.153L44.972,60.726z"/>
	<path fill="#484896" d="M47.28,61.312c0,0,0.567,0.523,1.004,0.35c0.434-0.174,1.305-0.959,1.305-0.959h-1.153L47.28,61.312z"/>
	<path fill="#484896" d="M49.589,61.983c0,0,0.566,0.522,1.002,0.349c0.436-0.175,1.307-0.959,1.307-0.959h-1.152L49.589,61.983z"/>
	<path fill="#484896" d="M51.897,62.604c0,0,0.566,0.521,1.001,0.347c0.437-0.172,1.307-0.958,1.307-0.958h-1.152L51.897,62.604z"/>
	<path fill="#484896" d="M54.205,63.241c0,0,0.566,0.522,1.002,0.348c0.436-0.174,1.307-0.957,1.307-0.957H55.36L54.205,63.241z"/>
	<path fill="#484896" d="M56.514,63.879c0,0,0.566,0.521,1.003,0.347c0.435-0.174,1.306-0.957,1.306-0.957h-1.155L56.514,63.879z"/>
	<path fill="#484896" d="M23.522,51.628c0,0,0.572,0.516,1.005,0.337c0.436-0.179,1.297-0.973,1.297-0.973l-1.153,0.013
		L23.522,51.628z"/>
	<path fill="#484896" d="M25.839,52.263c0,0,0.572,0.517,1.006,0.335c0.433-0.179,1.296-0.973,1.296-0.973l-1.155,0.015
		L25.839,52.263z"/>
	<path fill="#484896" d="M28.153,52.824c0,0,0.573,0.515,1.006,0.337c0.435-0.18,1.295-0.973,1.295-0.973l-1.153,0.013
		L28.153,52.824z"/>
	<path fill="#484896" d="M30.471,53.436c0,0,0.571,0.518,1.005,0.338c0.433-0.179,1.294-0.973,1.294-0.973l-1.151,0.013
		L30.471,53.436z"/>
	<path fill="#484896" d="M32.786,54.072c0,0,0.572,0.517,1.004,0.338c0.435-0.181,1.297-0.976,1.297-0.976l-1.154,0.016
		L32.786,54.072z"/>
	<path fill="#484896" d="M35.101,54.625c0,0,0.571,0.516,1.006,0.335c0.434-0.179,1.295-0.973,1.295-0.973L36.247,54L35.101,54.625z
		"/>
	<path fill="#484896" d="M37.416,55.273c0,0,0.572,0.517,1.007,0.337c0.432-0.18,1.293-0.973,1.293-0.973l-1.151,0.013
		L37.416,55.273z"/>
	<path fill="#484896" d="M39.732,55.868c0,0,0.572,0.516,1.005,0.336c0.434-0.179,1.294-0.974,1.294-0.974l-1.151,0.013
		L39.732,55.868z"/>
	<path fill="#484896" d="M42.048,56.521c0,0,0.572,0.516,1.007,0.336c0.433-0.18,1.295-0.974,1.295-0.974l-1.154,0.015
		L42.048,56.521z"/>
	<path fill="#484896" d="M44.354,57.083c0,0,0.572,0.515,1.005,0.336c0.435-0.178,1.296-0.974,1.296-0.974l-1.154,0.015
		L44.354,57.083z"/>
	<path fill="#484896" d="M46.67,57.692c0,0,0.572,0.515,1.006,0.337c0.434-0.181,1.295-0.973,1.295-0.973l-1.152,0.012L46.67,57.692
		z"/>
	<path fill="#484896" d="M48.986,58.318c0,0,0.573,0.518,1.004,0.336c0.435-0.178,1.297-0.973,1.297-0.973l-1.154,0.014
		L48.986,58.318z"/>
	<path fill="#484896" d="M51.301,58.879c0,0,0.572,0.517,1.004,0.338c0.436-0.179,1.298-0.974,1.298-0.974l-1.155,0.014
		L51.301,58.879z"/>
	<path fill="#484896" d="M53.616,59.523c0,0,0.572,0.515,1.007,0.334c0.433-0.177,1.295-0.972,1.295-0.972L54.765,58.9
		L53.616,59.523z"/>
	<path fill="#484896" d="M55.933,60.116c0,0,0.571,0.516,1.006,0.335c0.433-0.178,1.294-0.972,1.294-0.972l-1.152,0.012
		L55.933,60.116z"/>
	<path fill="#484896" d="M58.248,60.728c0,0,0.572,0.513,1.005,0.335c0.434-0.179,1.294-0.973,1.294-0.973l-1.152,0.013
		L58.248,60.728z"/>
	<path fill="#484896" d="M60.564,61.335c0,0,0.571,0.516,1.005,0.339c0.433-0.181,1.296-0.975,1.296-0.975l-1.154,0.014
		L60.564,61.335z"/>
	<path fill="#484896" d="M27.131,49.679c0,0,0.579,0.508,1.01,0.322c0.432-0.186,1.281-0.992,1.281-0.992l-1.153,0.03L27.131,49.679
		z"/>
	<path fill="#484896" d="M29.457,50.279c0,0,0.579,0.507,1.009,0.319c0.432-0.187,1.281-0.992,1.281-0.992l-1.154,0.032
		L29.457,50.279z"/>
	<path fill="#484896" d="M31.777,50.807c0,0,0.582,0.507,1.014,0.321c0.431-0.186,1.278-0.991,1.278-0.991l-1.153,0.03
		L31.777,50.807z"/>
	<path fill="#484896" d="M34.104,51.384c0,0,0.579,0.508,1.012,0.322c0.429-0.188,1.278-0.993,1.278-0.993l-1.152,0.03
		L34.104,51.384z"/>
	<path fill="#484896" d="M36.429,51.985c0,0,0.579,0.506,1.011,0.321c0.431-0.186,1.281-0.992,1.281-0.992l-1.155,0.03
		L36.429,51.985z"/>
	<path fill="#484896" d="M38.752,52.502c0,0,0.579,0.507,1.01,0.322c0.431-0.186,1.281-0.992,1.281-0.992l-1.153,0.029
		L38.752,52.502z"/>
	<path fill="#484896" d="M41.077,53.119c0,0,0.581,0.505,1.011,0.32c0.431-0.186,1.28-0.991,1.28-0.991l-1.154,0.029L41.077,53.119z
		"/>
	<path fill="#484896" d="M43.4,53.677c0,0,0.58,0.506,1.012,0.32c0.431-0.186,1.279-0.991,1.279-0.991l-1.152,0.03L43.4,53.677z"/>
	<path fill="#484896" d="M45.728,54.296c0,0,0.579,0.507,1.011,0.322c0.43-0.185,1.279-0.993,1.279-0.993l-1.154,0.03L45.728,54.296
		z"/>
	<path fill="#484896" d="M48.041,54.822c0,0,0.579,0.507,1.012,0.322c0.43-0.187,1.278-0.993,1.278-0.993l-1.151,0.031
		L48.041,54.822z"/>
	<path fill="#484896" d="M50.366,55.397c0,0,0.58,0.507,1.011,0.322c0.43-0.187,1.279-0.993,1.279-0.993l-1.153,0.029L50.366,55.397
		z"/>
	<path fill="#484896" d="M52.69,55.991c0,0,0.579,0.506,1.012,0.319c0.429-0.186,1.28-0.993,1.28-0.993l-1.154,0.031L52.69,55.991z"
		/>
	<path fill="#484896" d="M55.015,56.516c0,0,0.58,0.507,1.009,0.32c0.432-0.185,1.282-0.992,1.282-0.992l-1.154,0.032L55.015,56.516
		z"/>
	<path fill="#484896" d="M57.338,57.124c0,0,0.581,0.508,1.012,0.322c0.432-0.186,1.279-0.993,1.279-0.993l-1.153,0.03
		L57.338,57.124z"/>
	<path fill="#484896" d="M59.665,57.682c0,0,0.577,0.507,1.009,0.321c0.43-0.186,1.28-0.992,1.28-0.992l-1.154,0.03L59.665,57.682z"
		/>
	<path fill="#484896" d="M61.988,58.259c0,0,0.579,0.507,1.01,0.321s1.28-0.992,1.28-0.992l-1.153,0.031L61.988,58.259z"/>
	<path fill="#484896" d="M30.348,47.939c0,0,0.588,0.496,1.016,0.304c0.427-0.194,1.262-1.014,1.262-1.014l-1.151,0.05
		L30.348,47.939z"/>
	<path fill="#484896" d="M32.682,48.498c0,0,0.588,0.496,1.016,0.305c0.428-0.192,1.264-1.015,1.264-1.015l-1.152,0.05
		L32.682,48.498z"/>
	<path fill="#484896" d="M35.014,48.985c0,0,0.588,0.497,1.017,0.305c0.429-0.193,1.264-1.015,1.264-1.015l-1.155,0.051
		L35.014,48.985z"/>
	<path fill="#484896" d="M37.348,49.522c0,0,0.588,0.497,1.017,0.305c0.427-0.192,1.263-1.014,1.263-1.014l-1.152,0.05
		L37.348,49.522z"/>
	<path fill="#484896" d="M39.685,50.085c0,0,0.587,0.497,1.015,0.303c0.427-0.191,1.262-1.015,1.262-1.015l-1.15,0.052
		L39.685,50.085z"/>
	<path fill="#484896" d="M42.015,50.562c0,0,0.589,0.496,1.017,0.303c0.427-0.193,1.263-1.016,1.263-1.016l-1.153,0.052
		L42.015,50.562z"/>
	<path fill="#484896" d="M44.35,51.137c0,0,0.589,0.497,1.017,0.303c0.428-0.193,1.265-1.013,1.265-1.013l-1.154,0.05L44.35,51.137z
		"/>
	<path fill="#484896" d="M46.683,51.655c0,0,0.589,0.497,1.017,0.303c0.429-0.191,1.265-1.014,1.265-1.014l-1.154,0.051
		L46.683,51.655z"/>
	<path fill="#484896" d="M49.02,52.234c0,0,0.588,0.496,1.015,0.304c0.429-0.192,1.265-1.016,1.265-1.016l-1.153,0.052L49.02,52.234
		z"/>
	<path fill="#484896" d="M51.342,52.721c0,0,0.59,0.498,1.018,0.304s1.263-1.014,1.263-1.014l-1.153,0.049L51.342,52.721z"/>
	<path fill="#484896" d="M53.678,53.256c0,0,0.588,0.496,1.017,0.304c0.426-0.192,1.262-1.015,1.262-1.015l-1.151,0.052
		L53.678,53.256z"/>
	<path fill="#484896" d="M56.012,53.808c0,0,0.589,0.496,1.015,0.304c0.428-0.193,1.264-1.015,1.264-1.015l-1.151,0.051
		L56.012,53.808z"/>
	<path fill="#484896" d="M58.344,54.294c0,0,0.588,0.497,1.017,0.304c0.427-0.193,1.262-1.016,1.262-1.016l-1.151,0.052
		L58.344,54.294z"/>
	<path fill="#484896" d="M60.678,54.86c0,0,0.59,0.498,1.018,0.305c0.426-0.194,1.265-1.014,1.265-1.014L61.806,54.2L60.678,54.86z"
		/>
	<path fill="#484896" d="M63.012,55.38c0,0,0.589,0.498,1.017,0.305c0.429-0.194,1.265-1.016,1.265-1.016l-1.155,0.051L63.012,55.38
		z"/>
	<path fill="#484896" d="M65.348,55.914c0,0,0.588,0.498,1.015,0.305c0.429-0.192,1.264-1.016,1.264-1.016l-1.153,0.052
		L65.348,55.914z"/>
	<path fill="#484896" d="M33.444,46.093c0,0,0.596,0.487,1.021,0.287c0.425-0.198,1.246-1.032,1.246-1.032l-1.15,0.067
		L33.444,46.093z"/>
	<path fill="#484896" d="M35.788,46.617c0,0,0.596,0.486,1.021,0.286c0.423-0.199,1.247-1.032,1.247-1.032l-1.151,0.068
		L35.788,46.617z"/>
	<path fill="#484896" d="M38.128,47.067c0,0,0.595,0.486,1.02,0.289c0.424-0.2,1.246-1.035,1.246-1.035l-1.151,0.068L38.128,47.067z
		"/>
	<path fill="#484896" d="M40.47,47.569c0,0,0.596,0.488,1.02,0.288c0.424-0.199,1.247-1.035,1.247-1.035l-1.151,0.069L40.47,47.569z
		"/>
	<path fill="#484896" d="M42.811,48.094c0,0,0.598,0.488,1.022,0.291c0.425-0.2,1.248-1.036,1.248-1.036l-1.153,0.067L42.811,48.094
		z"/>
	<path fill="#484896" d="M45.151,48.535c0,0,0.596,0.488,1.02,0.289c0.425-0.199,1.247-1.035,1.247-1.035l-1.151,0.07L45.151,48.535
		z"/>
	<path fill="#484896" d="M47.494,49.075c0,0,0.597,0.487,1.02,0.286c0.427-0.197,1.25-1.031,1.25-1.031l-1.153,0.067L47.494,49.075z
		"/>
	<path fill="#484896" d="M49.835,49.558c0,0,0.597,0.488,1.022,0.288c0.424-0.197,1.247-1.032,1.247-1.032l-1.152,0.068
		L49.835,49.558z"/>
	<path fill="#484896" d="M52.181,50.102c0,0,0.595,0.486,1.021,0.288c0.423-0.201,1.248-1.035,1.248-1.035l-1.153,0.07
		L52.181,50.102z"/>
	<path fill="#484896" d="M54.511,50.552c0,0,0.595,0.488,1.021,0.288c0.424-0.198,1.248-1.033,1.248-1.033l-1.152,0.067
		L54.511,50.552z"/>
	<path fill="#484896" d="M56.853,51.052c0,0,0.597,0.488,1.021,0.288c0.424-0.199,1.248-1.033,1.248-1.033l-1.153,0.066
		L56.853,51.052z"/>
	<path fill="#484896" d="M59.194,51.567c0,0,0.598,0.486,1.021,0.288c0.425-0.199,1.249-1.034,1.249-1.034l-1.153,0.068
		L59.194,51.567z"/>
	<path fill="#484896" d="M61.535,52.018c0,0,0.595,0.488,1.02,0.289c0.425-0.2,1.248-1.035,1.248-1.035l-1.151,0.069L61.535,52.018z
		"/>
	<path fill="#484896" d="M63.878,52.549c0,0,0.598,0.489,1.021,0.29c0.426-0.2,1.247-1.035,1.247-1.035l-1.15,0.07L63.878,52.549z"
		/>
	<path fill="#484896" d="M66.219,53.033c0,0,0.596,0.487,1.021,0.288c0.424-0.199,1.249-1.033,1.249-1.033l-1.154,0.068
		L66.219,53.033z"/>
	<path fill="#484896" d="M2.985,50.288L13.91,44.41c0,0,1.838-0.559,3.396,0c1.561,0.557,6.234,1.498,6.273,3.46
		c0.013,0.676-0.72,1.111-1.242,1.372c-0.522,0.263-9.048,5.554-9.048,5.554s-1.232,0.806-3.3,0.523
		c-2.416-0.33-5.554-1.372-5.554-1.372S0.229,52.642,2.985,50.288z"/>
	<path fill="#596CB0" d="M4.253,49.606l9.657-5.196c0,0,1.368-0.566,3.3-0.065c1.577,0.407,4.562,1.301,5.646,2.279
		c0.667,0.605-0.191,1.134-1.072,1.651c-0.505,0.295-7.514,4.36-7.514,4.36s-1.455,0.988-3.107,0.776
		c-2.421-0.312-4.7-0.952-4.7-0.952s-4.649-0.909-3.674-1.992C2.888,50.357,3.729,49.881,4.253,49.606z"/>
</g>
</svg>
