<?xml version="1.0" encoding="utf-8"?>
<!-- Generator: Adobe Illustrator 16.0.0, SVG Export Plug-In . SVG Version: 6.00 Build 0)  -->
<!DOCTYPE svg PUBLIC "-//W3C//DTD SVG 1.1//EN" "http://www.w3.org/Graphics/SVG/1.1/DTD/svg11.dtd">
<svg version="1.1" id="Calque_1" xmlns="http://www.w3.org/2000/svg" xmlns:xlink="http://www.w3.org/1999/xlink" x="0px" y="0px"
	 width="75px" height="75px" viewBox="0 0 75 75" enable-background="new 0 0 75 75" xml:space="preserve">
<g>
	<path fill="#3C3C3B" d="M46.628,68.249v-6.194c0,0,10.587,0.019,13.045,0.019c2.703,0,2.724,0,2.724,0.803c0,0.522,0,3.256,0,4.605
		c0,0.784-0.002,0.784-2.788,0.784C56.82,68.266,46.628,68.249,46.628,68.249z"/>
	<path fill="#8A8BBE" d="M44.919,74.308V56.072c0,0,10.119,0,12.576,0c2.703,0,2.725,0,2.725,2.36c0,1.539,0,9.585,0,13.561
		c0,2.314-0.002,2.314-2.789,2.314S44.919,74.308,44.919,74.308z"/>
	<path fill="#333768" d="M15.657,56.078c-3.054,0-3.054,0-3.054,2.313c0,3.977,0,12.021,0,13.562c0,2.359,0.022,2.359,2.979,2.359
		c1.673,0,16.253-0.006,27.55-0.006V56.072C31.943,56.072,17.543,56.078,15.657,56.078z"/>
	<polyline fill="#FFFFFF" points="16.958,60.624 16.958,69.681 19.024,69.681 19.024,60.624 	"/>
	<polyline fill="#FFFFFF" points="50.212,60.642 50.212,69.699 52.275,69.699 52.275,60.642 	"/>
	<polyline fill="#FFFFFF" points="55.687,64.139 46.628,64.139 46.628,66.203 55.687,66.203 	"/>
</g>
</svg>
