<?xml version="1.0" encoding="utf-8"?>
<!-- Generator: Adobe Illustrator 16.0.0, SVG Export Plug-In . SVG Version: 6.00 Build 0)  -->
<!DOCTYPE svg PUBLIC "-//W3C//DTD SVG 1.1//EN" "http://www.w3.org/Graphics/SVG/1.1/DTD/svg11.dtd">
<svg version="1.1" id="Calque_1" xmlns="http://www.w3.org/2000/svg" xmlns:xlink="http://www.w3.org/1999/xlink" x="0px" y="0px"
	 width="75px" height="75px" viewBox="0 0 75 75" enable-background="new 0 0 75 75" xml:space="preserve">
<g>
	<path fill="#00A286" d="M50.087,39.415c-0.145,0.022-0.199,0.031-0.201,0.031C49.892,39.446,50.008,39.427,50.087,39.415
		 M50.122,39.409c-0.011,0.001-0.021,0.003-0.031,0.005C50.104,39.412,50.112,39.41,50.122,39.409 M50.129,39.408
		c-0.003,0-0.003,0-0.003,0.001C50.126,39.408,50.126,39.408,50.129,39.408 M50.14,39.407c-0.002,0-0.005,0-0.008,0.001
		C50.135,39.407,50.138,39.407,50.14,39.407 M50.142,39.407L50.142,39.407L50.142,39.407 M50.155,39.404
		c-0.004,0.001-0.008,0.001-0.01,0.003C50.148,39.405,50.151,39.405,50.155,39.404 M50.157,39.404L50.157,39.404L50.157,39.404
		 M50.161,39.404L50.161,39.404L50.161,39.404L50.161,39.404c-2.247,1.563-4.918,2.821-7.755,3.831
		c0.099,0.189,0.154,0.404,0.154,0.635c0,0.756-0.612,1.369-1.367,1.369c-0.688,0-1.259-0.51-1.356-1.168
		c-10.876,3.236-23.055,3.281-23.385,3.281c-2.082,0.873-4.369,1.49-6.612,1.49c-0.058,0-0.115-0.002-0.174-0.002
		c-0.067,0-0.137-0.002-0.202-0.002c-3.586,0-2.157,1.455,0.711,2.91s7.18,2.91,9.36,2.91c0.04,0,0.079,0,0.118-0.002
		c0.028,0,0.057,0,0.082,0c1.973,0-0.671,1.977-4.223,3.953c-3.551,1.975-8.01,3.953-9.67,3.953c-0.043,0-0.088-0.002-0.126-0.004
		c-0.09-0.008-0.167-0.01-0.239-0.01c-2.435,0,4.336,3.521,9.347,3.521c5.158,0-5.048,1.975-8.341,1.975
		c-3.145,0,11.657,6.518,28.974,6.518c0.8,0,1.603-0.014,2.413-0.043c18.326-0.658,27.544-2.965,31.933-7.9
		c1.318-1.482-2.961,0.986-13.606-4.281c0,0,4.972-1.01,7.212-2.096c2.789-1.354,4.613-3.719,3.214-3.719
		c-12.528,0-12.73-3.732-12.73-3.732s12.51-1.098,13.06-3.732c0.271-1.299-8.89,1.135-15.255-6.211c0,0,2.522-0.008,4.445-0.646
		c1.153-0.385,2.497-1.523,1.799-1.523c-0.01,0-0.02,0-0.029,0c-0.318,0.014-0.628,0.018-0.928,0.018
		C52.654,40.696,50.161,39.404,50.161,39.404L50.161,39.404 M54.036,37.646c-0.011,0-0.021,0-0.036,0.001c0.009,0,0.015,0,0.021,0
		c0.423,0-0.652,0.872-2.441,1.427c0.344-0.102,0.714-0.223,1.063-0.371C53.582,38.31,54.423,37.646,54.036,37.646 M49.557,36.737
		c0.864,0.397,1.911,0.77,3.154,0.887C51.531,37.495,50.403,37.105,49.557,36.737 M45.794,29.142
		c-0.062,0.002-0.125,0.002-0.186,0.003c0,0.002,0,0.004,0,0.005C45.668,29.147,45.729,29.145,45.794,29.142 M37.379,13.177
		c0,0-5.873,7.9-10.483,8.999c-4.608,1.098,3.073,1.314,3.073,1.314s-1.976,2.964-6.693,4.061c-4.721,1.099,3.62,2.743,3.62,2.743
		l-7.461,2.634c0,0,1.206,1.098,1.645,1.318c0.44,0.218-1.866,0.548-2.852,0.657c-0.988,0.11,3.84,3.074,5.486,3.622
		c1.645,0.549-1.757,1.319-3.293,1.427c-1.536,0.109,3.184,1.537,4.17,1.646l0,0c1.001,0.1,1.992,0.145,2.972,0.145
		c11.066,0,20.513-5.757,20.513-5.757l0,0c0,0,10.412-3.208,6.036-3.276c-4.92-0.075-8.058-1.979-9.132-2.75
		c-0.245,0.159-0.539,0.254-0.854,0.254c-0.002,0-0.005,0-0.007,0s-0.003,0-0.005,0c-0.469,0-0.887-0.212-1.172-0.541v-0.001
		c-0.133-0.153-0.236-0.333-0.302-0.528c-4.098-0.083-7.354-0.483-9.832-0.958v2.425h-0.4v-2.504c-3.981-0.801-5.82-1.77-5.82-1.77
		c2.388-1.277,3.435-2.847,3.435-2.847c4.167,1.682,9.307,1.766,12.223,1.766c0.158,0,0.313,0,0.459,0
		c0.148,0,0.291-0.002,0.424-0.002c0.625,0,1.072,0.005,1.285,0.044c-0.502-0.3-0.939-0.643-1.275-1.039c0,0,7.934-1.28,4.22-2.023
		C42.967,21.356,37.379,13.177,37.379,13.177"/>
	<polygon fill="#DF2524" points="37.321,9.975 38.231,11.817 40.266,12.112 38.794,13.547 39.14,15.571 37.321,14.615 
		35.503,15.571 35.852,13.547 34.379,12.112 36.413,11.817 	"/>
	<path fill="#F0C30D" d="M48.075,35.986c0,0-11.193,6.819-23.484,5.612c0,0-0.493,2.029-8.146,5.754c0,0,22.303,0,33.717-7.948
		c0,0-0.618,0.096,0,0c2.625-0.412,4.426-1.789,3.839-1.757C51.265,37.798,49.33,36.639,48.075,35.986"/>
	<path fill="#F0C30D" d="M18.89,56.519c0,0,16.621,8.014,37.307,5.82c0,0,3.436,1.881,7.024,2.742c0,0-31.513,9.986-52.048-4.281
		C11.173,60.8,16.002,58.562,18.89,56.519z"/>
	<path fill="#36B4A5" d="M45.689,28.649c0,0.863-0.701,1.564-1.563,1.564c-0.864,0-1.565-0.701-1.565-1.564
		c0-0.864,0.701-1.563,1.565-1.563C44.988,27.086,45.689,27.785,45.689,28.649"/>
	<circle fill="#36B4A5" cx="28.827" cy="34.547" r="1.563"/>
	<circle fill="#A02D2D" cx="35.677" cy="19.955" r="1.37"/>
	<circle fill="#36B4A5" cx="35.678" cy="19.955" r="0.806"/>
	<path fill="#7082C0" d="M42.561,43.87c0,0.756-0.612,1.369-1.367,1.369c-0.756,0-1.37-0.613-1.37-1.369s0.614-1.369,1.37-1.369
		C41.948,42.501,42.561,43.114,42.561,43.87"/>
	<circle fill="#A02D2D" cx="21.542" cy="58.581" r="2.02"/>
	<circle fill="#6066AB" cx="56.584" cy="56.562" r="2.02"/>
	<circle fill="#36B4A5" cx="27.018" cy="51.063" r="1.593"/>
	<circle fill="#6066AB" cx="44.124" cy="68.046" r="1.593"/>
	<circle fill="#36B4A5" cx="37.182" cy="53.261" r="2.874"/>
	<path fill="#A02D2D" d="M30.01,33.548c-0.287-0.343-0.711-0.565-1.193-0.565c-0.47,0-0.887,0.212-1.173,0.54
		c0.24,0.274,0.392,0.63,0.392,1.024c0,0.394-0.151,0.75-0.392,1.024c0.286,0.328,0.703,0.54,1.173,0.54
		c0.482,0,0.906-0.223,1.193-0.565c-0.228-0.271-0.369-0.616-0.369-0.999C29.641,34.165,29.782,33.819,30.01,33.548z"/>
	<path fill="#36B4A5" d="M57.77,55.562c-0.289-0.342-0.712-0.564-1.195-0.564c-0.47,0-0.886,0.213-1.174,0.539
		c0.241,0.273,0.393,0.633,0.393,1.025s-0.151,0.75-0.393,1.023c0.288,0.328,0.704,0.541,1.174,0.541
		c0.483,0,0.906-0.223,1.195-0.566c-0.229-0.27-0.371-0.617-0.371-0.998C57.398,56.179,57.541,55.833,57.77,55.562z"/>
	<circle fill="#A02D2D" cx="27.016" cy="51.063" r="0.806"/>
	<circle fill="#6066AB" cx="21.542" cy="58.581" r="0.806"/>
	<path fill="#0A56A3" d="M47.205,46.671c-0.895,0-1.534,0.725-1.534,1.619l0.593-0.018c0.067-0.473,0.257-0.988,0.893-0.988
		c0.635,0,0.8,0.533,0.857,1.006v5.529h0.628V48.29C48.642,47.396,48.101,46.671,47.205,46.671z"/>
	<path fill="#0A56A3" d="M28.86,39.741c-0.599,0-1.025,0.482-1.025,1.08l0.397-0.012c0.044-0.314,0.172-0.66,0.595-0.66
		c0.424,0,0.533,0.359,0.572,0.672v3.691h0.42v-3.691C29.819,40.224,29.457,39.741,28.86,39.741z"/>
	<path fill="#0A56A3" d="M35.538,58.581c1.004,0,1.724,0.814,1.724,1.82l-0.665-0.02c-0.076-0.531-0.29-1.111-1.004-1.111
		c-0.711,0-0.898,0.602-0.964,1.131v6.217h-0.705v-6.217C33.924,59.396,34.532,58.581,35.538,58.581z"/>
	<path fill="#7082C0" d="M39.304,53.175c0.238-0.07,0.482-0.15,0.73-0.252l-0.462-1.258c-2.719,0.982-4.778,0-4.778,0l-0.486,1.258
		c0,0,0.232,0.123,0.639,0.252C35.777,52.907,37.365,52.601,39.304,53.175z"/>
	<path fill="#7082C0" d="M34.946,53.175c-0.406,0.131-0.639,0.252-0.639,0.252l0.486,1.262c0,0,2.06-0.988,4.778,0l0.462-1.262
		c-0.248-0.102-0.492-0.18-0.73-0.252C37.365,53.751,35.777,53.442,34.946,53.175z"/>
	<path fill="#36B4A5" d="M45.309,68.046c0.134-0.041,0.269-0.084,0.407-0.141l-0.259-0.701c-1.51,0.547-2.655,0-2.655,0
		l-0.271,0.701c0,0,0.13,0.068,0.355,0.141C43.349,67.896,44.23,67.724,45.309,68.046z"/>
	<path fill="#36B4A5" d="M42.887,68.046c-0.226,0.072-0.355,0.141-0.355,0.141l0.271,0.699c0,0,1.146-0.549,2.655,0l0.259-0.699
		c-0.139-0.057-0.273-0.102-0.407-0.141C44.23,68.364,43.349,68.192,42.887,68.046z"/>
	<path fill="#A02D2D" d="M42.33,43.167c-0.431,0.156-0.825,0.209-1.16,0.209c-0.671,0-1.106-0.209-1.106-0.209l-0.229,0.598
		c0,0,0.108,0.057,0.303,0.121l0,0l0,0c0.229-0.076,0.582-0.156,1.02-0.156c0.309,0,0.663,0.041,1.047,0.156l0,0l0,0
		c0.113-0.035,0.229-0.074,0.346-0.121L42.33,43.167"/>
	<path fill="#A02D2D" d="M42.204,43.886L42.204,43.886c-0.384,0.111-0.737,0.152-1.047,0.152c-0.438,0-0.788-0.08-1.02-0.152l0,0
		l0,0c-0.194,0.061-0.303,0.117-0.303,0.117l0.229,0.598c0,0,0.436-0.207,1.106-0.207c0.335,0,0.729,0.051,1.16,0.207l0.22-0.598
		C42.433,43.956,42.317,43.919,42.204,43.886L42.204,43.886"/>
	<path fill="#B7B7B7" d="M44.413,25.298c3.256,1.958,9.159,2.13,6.844,3.022c-1.563,0.603-3.874,0.738-5.463,0.821
		c0.028-0.001,0.057-0.001,0.085-0.002c1.589-0.033,3.879-0.219,5.434-0.819c2.302-0.887-3.521-1.061-6.788-2.987
		C44.501,25.318,44.463,25.308,44.413,25.298"/>
	<path fill="#F0C30D" d="M30.022,23.49c0,0-1.047,1.569-3.435,2.847c0,0,1.839,0.969,5.82,1.77v-1.037
		c0-0.571,0.345-1.034,0.918-1.034c0.571,0,0.981,0.463,0.981,1.034l-0.38-0.012c-0.041-0.3-0.164-0.63-0.569-0.63
		c-0.406,0-0.513,0.342-0.55,0.642v1.116c2.479,0.475,5.734,0.875,9.832,0.958c-0.052-0.156-0.08-0.323-0.08-0.494
		c0-0.393,0.145-0.749,0.382-1.026l0,0c0.285-0.325,0.703-0.537,1.172-0.537c0.002,0,0.003,0,0.005,0s0.005,0,0.007,0
		c0.862,0,1.563,0.699,1.563,1.563c0,0.173-0.03,0.34-0.081,0.495c0.061-0.001,0.123-0.001,0.186-0.003
		c1.589-0.083,3.899-0.219,5.463-0.821c2.315-0.893-3.588-1.064-6.844-3.022c-0.213-0.039-0.66-0.044-1.285-0.044
		c-0.133,0-0.275,0.002-0.424,0.002c-0.146,0-0.301,0-0.459,0C39.329,25.256,34.189,25.172,30.022,23.49"/>
	<path fill="#36B4A5" d="M42.942,27.623c-0.237,0.277-0.382,0.634-0.382,1.026c0,0.171,0.028,0.338,0.08,0.494
		c0.199,0.002,0.402,0.005,0.606,0.008c0.057-0.158,0.087-0.326,0.087-0.502C43.334,28.256,43.182,27.9,42.942,27.623
		 M44.126,27.086c-0.002,0-0.005,0-0.007,0c0.479,0,0.903,0.223,1.188,0.563c-0.229,0.271-0.369,0.617-0.369,1
		c0,0.176,0.029,0.346,0.085,0.504c0.195-0.004,0.389-0.006,0.585-0.009c0.051-0.155,0.081-0.322,0.081-0.495
		C45.689,27.785,44.988,27.086,44.126,27.086"/>
	<g>
		<path fill="#9F9F9E" d="M44.319,27.109c0.049,0.005,0.1,0.005,0.146,0.016C44.419,27.114,44.368,27.114,44.319,27.109z"/>
		<path fill="#9F9F9E" d="M44.883,27.302c0.161,0.093,0.308,0.207,0.425,0.348C45.19,27.509,45.044,27.395,44.883,27.302z"/>
		<path fill="#9F9F9E" d="M42.942,27.623c0.239,0.277,0.392,0.632,0.392,1.026C43.334,28.256,43.182,27.9,42.942,27.623
			L42.942,27.623z"/>
		<path fill="#9F9F9E" d="M44.632,27.185c0.051,0.02,0.105,0.031,0.152,0.056C44.737,27.216,44.683,27.204,44.632,27.185z"/>
		<path fill="#A02D2D" d="M45.308,27.649c-0.117-0.141-0.264-0.255-0.425-0.348c-0.031-0.021-0.062-0.046-0.099-0.062
			c-0.047-0.024-0.102-0.036-0.152-0.056c-0.055-0.02-0.107-0.046-0.166-0.06c-0.047-0.011-0.098-0.011-0.146-0.016
			c-0.064-0.01-0.13-0.023-0.2-0.023c-0.002,0-0.003,0-0.005,0c-0.469,0-0.887,0.212-1.172,0.537l0,0
			c0.239,0.277,0.392,0.633,0.392,1.026c0,0.393-0.152,0.75-0.392,1.023c0.285,0.329,0.703,0.541,1.172,0.541
			c0.482,0,0.906-0.224,1.193-0.564c-0.229-0.272-0.369-0.619-0.369-1C44.938,28.267,45.079,27.92,45.308,27.649z"/>
	</g>
	<path opacity="0.9" fill="#006FA7" d="M33.326,26.035c-0.573,0-0.918,0.463-0.918,1.034v1.037c0.13,0.026,0.267,0.053,0.4,0.079
		v-1.116c0.037-0.3,0.144-0.642,0.55-0.642c0.405,0,0.528,0.33,0.569,0.63l0.38,0.012C34.308,26.498,33.897,26.035,33.326,26.035"/>
	<path fill="#0A56A3" d="M33.326,26.035c0.571,0,0.981,0.463,0.981,1.034l-0.38-0.012c-0.041-0.3-0.164-0.63-0.569-0.63
		c-0.406,0-0.513,0.342-0.55,0.642v3.541h-0.4v-3.541C32.408,26.498,32.753,26.035,33.326,26.035"/>
</g>
</svg>
