<?xml version="1.0" encoding="utf-8"?>
<!-- Generator: Adobe Illustrator 16.0.0, SVG Export Plug-In . SVG Version: 6.00 Build 0)  -->
<!DOCTYPE svg PUBLIC "-//W3C//DTD SVG 1.1//EN" "http://www.w3.org/Graphics/SVG/1.1/DTD/svg11.dtd">
<svg version="1.1" id="Calque_1" xmlns="http://www.w3.org/2000/svg" xmlns:xlink="http://www.w3.org/1999/xlink" x="0px" y="0px"
	 width="75px" height="75px" viewBox="0 0 75 75" enable-background="new 0 0 75 75" xml:space="preserve">
<g>
	<polygon fill="#9F7C52" points="19.523,63.729 52.918,36.535 53.885,36.864 21.573,64.882 	"/>
	<path fill="#2D3643" d="M46.109,68.315v5.179c0,0,1.172,0.077,1.254,0c0.082-0.08,0.267-6.813,0.267-6.813L46.109,68.315z"/>
	<path fill="#2D3643" d="M64.912,47.685v5.179c0,0,1.172,0.078,1.253,0s0.266-6.813,0.266-6.813L64.912,47.685z"/>
	<path fill="#2D3643" d="M12.779,49.983v4.521c0,0,1.021,0.068,1.092,0s0.233-5.95,0.233-5.95L12.779,49.983z"/>
	<path fill="#2D3643" d="M34.422,35.668v4.522c0,0,1.022,0.067,1.094,0c0.071-0.069,0.23-5.95,0.23-5.95L34.422,35.668z"/>
	<polyline fill="#C8B461" points="37.342,33.91 68.18,44.864 68.494,43.973 37.658,33.02 	"/>
	<polyline fill="#C8B461" points="35.91,35.229 66.747,46.181 67.062,45.291 36.227,34.339 	"/>
	<polyline fill="#C8B461" points="33.559,36.397 65.185,47.701 65.504,46.813 33.875,35.507 	"/>
	<polyline fill="#C8B461" points="31.811,37.545 64.147,49.18 64.466,48.292 32.13,36.657 	"/>
	<polyline fill="#C8B461" points="29.947,38.769 62.699,50.733 63.023,49.845 30.272,37.879 	"/>
	<polyline fill="#C8B461" points="28.175,39.929 61.218,52.32 61.551,51.436 28.506,39.043 	"/>
	<polyline fill="#C8B461" points="26.129,41.269 59.529,54.103 59.868,53.222 26.468,40.388 	"/>
	<polyline fill="#C8B461" points="24.301,42.596 58.121,55.615 58.462,54.736 24.641,41.715 	"/>
	<polyline fill="#C8B461" points="22.572,43.726 56.43,57.453 56.785,56.578 22.927,42.85 	"/>
	<polyline fill="#C8B461" points="20.459,45.11 54.722,59.286 55.081,58.413 20.819,44.239 	"/>
	<polyline fill="#C8B461" points="18.691,46.485 53.153,61.007 53.521,60.135 19.058,45.614 	"/>
	<polyline fill="#C8B461" points="16.348,47.679 51.298,62.959 51.675,62.094 16.726,46.813 	"/>
	<polyline fill="#C8B461" points="14.178,49.094 49.101,65.309 49.497,64.454 14.576,48.236 	"/>
	<polyline fill="#C8B461" points="47.567,66.54 12.316,49.727 11.91,50.579 47.16,67.39 	"/>
	<polyline fill="#C8B461" points="10.021,51.966 44.957,69.746 45.388,68.903 10.449,51.124 	"/>
	<polyline fill="#C8B461" points="7.653,53.359 43.098,71.744 43.532,70.907 8.09,52.521 	"/>
	<path fill="#172333" d="M6.808,53.642l0.259,0.395l31.157-20.481l0.02-0.016l-0.112-0.135l0.111,0.136l0.001-0.001l-0.112-0.135
		l0.111,0.136c0.004-0.007,0.217-0.176,0.574-0.341c0.36-0.165,0.86-0.324,1.455-0.324c0.361,0,0.76,0.059,1.191,0.213
		c1.074,0.389,7.734,2.673,14.138,4.864c6.403,2.189,12.539,4.286,12.539,4.286l0.152-0.448l-0.199,0.427l0,0
		c0.022,0.012,0.211,0.11,0.366,0.26c0.079,0.076,0.148,0.161,0.193,0.248c0.048,0.085,0.07,0.168,0.071,0.264
		c-0.001,0.159-0.067,0.408-0.418,0.776c-0.361,0.377-2.201,2.35-4.771,5.106c-7.697,8.273-21.904,23.574-21.904,23.574
		l-0.012,0.014l-0.013,0.015l0.04,0.031l-0.039-0.032l-0.001,0.001l0.04,0.031l-0.039-0.032c-0.014,0.018-0.281,0.339-0.729,0.645
		c-0.45,0.308-1.072,0.598-1.823,0.593c-0.521,0-1.117-0.132-1.797-0.526c-1.482-0.861-8.898-5.032-15.951-8.994
		c-7.051-3.96-13.732-7.706-13.732-7.706l-0.007-0.005l-0.007-0.003v-0.001c-0.027-0.013-0.385-0.208-0.709-0.496
		c-0.163-0.145-0.317-0.311-0.42-0.475c-0.103-0.166-0.155-0.319-0.154-0.465c0.001-0.121,0.031-0.249,0.143-0.418
		c0.112-0.167,0.313-0.368,0.646-0.585l0,0L6.808,53.642l-0.259-0.395c-0.407,0.267-0.708,0.547-0.911,0.851
		c-0.204,0.3-0.305,0.629-0.304,0.941c0.001,0.381,0.138,0.718,0.315,0.993c0.271,0.412,0.632,0.719,0.931,0.937
		c0.297,0.216,0.532,0.337,0.546,0.345l0.216-0.419l-0.229,0.411c0.001,0.001,0.418,0.233,1.153,0.647
		C13.42,60.843,34.213,72.51,36.784,74c0.808,0.47,1.58,0.657,2.271,0.655c1.028,0,1.851-0.402,2.407-0.794
		c0.562-0.393,0.866-0.778,0.886-0.804l-0.371-0.293l0.346,0.323c0.002-0.001,0.396-0.426,1.09-1.175
		c2.425-2.611,8.51-9.164,14.144-15.226c2.817-3.03,5.521-5.938,7.599-8.168c2.075-2.229,3.528-3.786,3.832-4.102
		c0.459-0.476,0.682-0.963,0.68-1.43c0.002-0.285-0.086-0.542-0.202-0.747c-0.177-0.312-0.417-0.518-0.608-0.657
		c-0.195-0.142-0.347-0.213-0.364-0.223l-0.023-0.01l-0.021-0.008c-0.003-0.001-0.387-0.131-1.062-0.363
		c-2.362-0.806-8.301-2.833-13.879-4.745c-5.578-1.909-10.804-3.704-11.722-4.034c-0.537-0.195-1.049-0.271-1.513-0.271
		c-0.79,0-1.441,0.215-1.894,0.432c-0.453,0.217-0.718,0.432-0.739,0.451l0.303,0.361l-0.259-0.394L6.523,53.262l0.025-0.015
		L6.808,53.642z"/>
</g>
</svg>
