<?xml version="1.0" encoding="utf-8"?>
<!-- Generator: Adobe Illustrator 16.0.0, SVG Export Plug-In . SVG Version: 6.00 Build 0)  -->
<!DOCTYPE svg PUBLIC "-//W3C//DTD SVG 1.1//EN" "http://www.w3.org/Graphics/SVG/1.1/DTD/svg11.dtd">
<svg version="1.1" xmlns="http://www.w3.org/2000/svg" xmlns:xlink="http://www.w3.org/1999/xlink" x="0px" y="0px" width="200px"
	 height="200px" viewBox="0 0 200 200" enable-background="new 0 0 200 200" xml:space="preserve">
<g id="bac_gris">
	<polygon fill="#C7311B" points="200.594,55.641 0.196,55.688 44.222,44.82 145.444,44.82 	"/>
	<path fill="#F1C410" d="M44.222,44.82c0,19.547,0,112.394,0,112.394"/>
	<polyline fill="#72160D" points="44.222,157.214 0.196,55.688 44.222,44.82 	"/>
	<polyline fill="#72160D" points="145.444,157.214 199.895,55.815 145.444,44.82 	"/>
	<polygon fill="#EC604A" points="161.013,157.562 39.823,157.562 0.242,55.641 200.594,55.641 	"/>
</g>
<g id="sigle">
	<g>
		<path fill="#FFFFFF" stroke="#EC604A" stroke-miterlimit="10" d="M71.459,128.406c0.222,0.384,0.546,0.747,0.928,1.066
			c0.08-0.049,0.161-0.094,0.242-0.143c-0.205-0.356-0.307-0.771-0.299-1.233c0.009-0.6,0.21-1.267,0.617-1.974l5.009-8.607
			l4.641-8.04l5.705,3.294l-4.824-18l-17.998,4.824l5.708,3.321l-5.906,10.229c-0.726,1.257-0.726,3.311,0,4.564L71.459,128.406z"/>
		<path fill="#FFFFFF" stroke="#EC604A" stroke-miterlimit="10" d="M74.212,125.992c-0.406,0.706-0.606,1.378-0.616,1.976
			c-0.018,0.898,0.39,1.635,1.153,2.087c0.438,0.217,0.9,0.377,1.35,0.451c0.089,0.013,0.179,0.024,0.27,0.029l0.942,0.021h17.125
			v-4.799v-8.374H79.22L74.212,125.992z"/>
		<path fill="#FFFFFF" stroke="#EC604A" stroke-miterlimit="10" d="M113.296,83.394l-5.874-10.247
			c-0.722-1.258-2.496-2.292-3.947-2.295l-12.352-0.041c-0.491,0-1.02,0.12-1.534,0.322v0.233c0.46-0.028,0.924,0.089,1.362,0.356
			c0.513,0.309,0.99,0.818,1.396,1.525l4.929,8.658l4.614,8.05l-5.714,3.277l17.983,4.881l4.879-17.984L113.296,83.394z"/>
		<path fill="#FFFFFF" stroke="#EC604A" stroke-miterlimit="10" d="M91.477,73.771c-0.408-0.708-0.885-1.215-1.396-1.524
			c-0.768-0.471-1.61-0.487-2.386-0.056c-0.409,0.273-0.777,0.593-1.068,0.942c-0.056,0.07-0.108,0.145-0.162,0.22l-0.491,0.803
			l-8.609,14.804l4.148,2.411l7.243,4.21l7.65-13.15L91.477,73.771z"/>
		<path fill="#FFFFFF" stroke="#EC604A" stroke-miterlimit="10" d="M119.35,117.761l-9.551,0.073l-0.054-6.779l-13.457,13.664
			l13.668,13.455l-0.03-6.795l12.16-0.097c1.492-0.01,3.312-1.08,4.048-2.38l6.271-11.058c0.424-0.744,0.595-1.757,0.524-2.727
			c-0.007,0.913-0.444,1.66-1.252,2.113c-0.537,0.302-1.234,0.474-2.073,0.48L119.35,117.761z"/>
		<path fill="#FFFFFF" stroke="#EC604A" stroke-miterlimit="10" d="M129.168,116.754c0.838-0.006,1.536-0.18,2.072-0.482
			c0.81-0.453,1.25-1.2,1.254-2.113c-0.035-0.505-0.138-0.996-0.306-1.436c-0.036-0.084-0.076-0.169-0.116-0.253l-0.471-0.849
			l-8.929-15.193l-4.258,2.503l-7.437,4.371l7.937,13.498L129.168,116.754z"/>
	</g>
</g>
</svg>
