<?xml version="1.0" encoding="utf-8"?>
<!-- Generator: Adobe Illustrator 16.0.0, SVG Export Plug-In . SVG Version: 6.00 Build 0)  -->
<!DOCTYPE svg PUBLIC "-//W3C//DTD SVG 1.1//EN" "http://www.w3.org/Graphics/SVG/1.1/DTD/svg11.dtd">
<svg version="1.1" xmlns="http://www.w3.org/2000/svg" xmlns:xlink="http://www.w3.org/1999/xlink" x="0px" y="0px" width="200px"
	 height="200px" viewBox="0 0 200 200" enable-background="new 0 0 200 200" xml:space="preserve">
<g id="batiment1">
	<rect x="1.026" y="78.961" fill="#C4CDD7" width="38.07" height="72.073"/>
	<polygon fill="#5B5F61" points="39.082,78.978 1.012,78.978 15.95,68.007 54.02,68.007 	"/>
	<polygon fill="#777A7D" points="54.02,140.08 39.098,151.138 39.098,78.961 54.02,68.007 	"/>
	<polygon fill="#5B5F61" points="40.885,111.528 40.885,121.431 44.812,121.784 52.712,115.965 52.712,112.405 	"/>
	<polygon fill="#3D3D3B" points="54.02,114.932 39.174,125.975 39.174,106.188 54.02,95.25 	"/>
	<rect x="39.167" y="95.926" fill="#777A7D" width="1.74" height="35.729"/>
	<rect x="52.721" y="89.397" fill="#777A7D" width="1.247" height="35.729"/>
	<path fill="#3D3D3B" d="M52.666,112.694H44.95v-10.717l7.716-5.638C52.666,99.204,52.666,112.694,52.666,112.694z"/>
	<path fill="#3D3D3B" d="M14.873,73.997V61.227c0-1.687-0.924-3.056-2.064-3.056l0,0c-1.142,0-2.065,1.369-2.065,3.056v12.771
		c-0.859,0.615-0.859,0.615-0.859,0.615h4.065L14.873,73.997z"/>
	<path fill="#3D3D3B" d="M9.555,57.895h2.668c1.435,0,2.599,0.924,2.599,2.065l0,0c0,0.232,0.056,1.502-0.033,1.712
		c-0.348,0.812-1.422,0.353-2.565,0.353H9.555c-1.195,0-1.458-0.594-1.458-2.073C8.097,58.311,8.428,57.895,9.555,57.895z"/>
	<path fill="#C4CDD7" d="M8.773,58.127c0.256-0.147,1.018,0.654,1.018,1.702c0,1.539-0.523,2.055-1.018,1.9
		C8.282,61.576,8.129,58.495,8.773,58.127z"/>
	<polygon fill="#3D3D3B" points="5.548,78.979 4.939,78.971 19.839,68.007 20.457,68.015 	"/>
	<polygon fill="#3D3D3B" points="11.264,78.974 10.675,78.974 25.563,68.011 26.181,68.017 	"/>
	<polygon fill="#3D3D3B" points="16.998,78.971 16.367,78.971 31.303,68.002 31.934,68.007 	"/>
	<polygon fill="#3D3D3B" points="22.72,78.979 22.114,78.979 37.027,68.007 37.651,68.007 	"/>
	<polygon fill="#3D3D3B" points="28.451,78.974 27.844,78.974 42.755,68.007 43.362,68.011 	"/>
	<polygon fill="#3D3D3B" points="34.182,78.974 33.561,78.979 48.479,68.007 49.092,68.011 	"/>
	<path fill="#C4CDD7" d="M40.915,104.802l11.782-8.581v5.055c-3.466,2.539-11.782,8.764-11.782,8.764V104.802z"/>
	<polygon fill="#5B5F61" points="40.907,108.416 40.907,107.963 52.712,99.023 52.704,99.484 	"/>
	<polygon fill="#5B5F61" points="40.907,109.495 40.907,109.04 52.712,100.102 52.704,100.563 	"/>
	<polygon fill="#5B5F61" points="40.907,107.285 40.907,106.832 52.704,97.891 52.712,98.338 	"/>
	<polygon fill="#5B5F61" points="40.915,106.137 40.924,105.676 52.712,96.745 52.712,97.207 	"/>
	<path fill="#3D3D3B" d="M9.884,75.415"/>
</g>
<g id="Tapis_1">
	<polygon fill="#5B5F61" points="52.712,110.969 40.869,121.431 86.886,121.459 98.221,110.613 	"/>
	<polygon fill="#444749" points="40.915,112.405 40.915,121.459 52.712,110.969 40.915,110.969 	"/>
</g>
<g id="ronds_rouges">
	<g>
		<g>
			<g enable-background="new    ">
				<g enable-background="new    ">
					<defs>
						<path id="SVGID_1_" enable-background="new    " d="M72.386,105.634l4.559,2.479c-0.867-0.471-1.896-0.67-3-0.515
							l-4.559-2.479C70.49,104.964,71.519,105.162,72.386,105.634z"/>
					</defs>
					<clipPath id="SVGID_2_">
						<use xlink:href="#SVGID_1_"  overflow="visible"/>
					</clipPath>
					<g clip-path="url(#SVGID_2_)" enable-background="new    ">
						<path fill="#962710" d="M73.944,107.599l-4.559-2.479c0.683-0.097,1.337-0.057,1.942,0.099l4.559,2.479
							C75.282,107.542,74.628,107.503,73.944,107.599"/>
						<path fill="#932710" d="M75.887,107.697l-4.559-2.479c0.31,0.08,0.606,0.189,0.887,0.327l4.559,2.48
							C76.493,107.888,76.196,107.777,75.887,107.697"/>
						<path fill="#90260F" d="M76.773,108.025l-4.559-2.48c0.058,0.028,0.114,0.059,0.171,0.089l4.559,2.479
							C76.888,108.083,76.831,108.054,76.773,108.025"/>
					</g>
				</g>
				<g>
					<path fill="#B52E18" d="M73.944,107.599c3.1-0.436,5.603,1.917,5.596,5.255c-0.006,3.346-2.519,6.404-5.619,6.841
						c-3.092,0.435-5.594-1.92-5.588-5.266C68.34,111.091,70.852,108.033,73.944,107.599z"/>
				</g>
				<g enable-background="new    ">
					<defs>
						<path id="SVGID_3_" enable-background="new    " d="M70.933,119.181l-4.559-2.48c-1.565-0.852-2.603-2.596-2.599-4.751
							c0.006-3.338,2.518-6.396,5.61-6.83l4.559,2.479c-3.092,0.435-5.604,3.492-5.61,6.83
							C68.33,116.585,69.367,118.328,70.933,119.181z"/>
					</defs>
					<clipPath id="SVGID_4_">
						<use xlink:href="#SVGID_3_"  overflow="visible"/>
					</clipPath>
					<g clip-path="url(#SVGID_4_)" enable-background="new    ">
						<path fill="#81220A" d="M70.933,119.181l-4.559-2.48c-1.565-0.852-2.603-2.596-2.599-4.751
							c0.001-0.821,0.155-1.626,0.431-2.379l4.559,2.479c-0.276,0.753-0.43,1.558-0.431,2.379
							C68.33,116.585,69.367,118.328,70.933,119.181"/>
						<path fill="#84230B" d="M68.765,112.05l-4.559-2.479c0.119-0.325,0.261-0.64,0.424-0.942l4.559,2.479
							C69.027,111.41,68.885,111.726,68.765,112.05"/>
						<path fill="#87240C" d="M69.189,111.107l-4.559-2.479c0.138-0.256,0.29-0.503,0.456-0.74l4.559,2.48
							C69.479,110.604,69.327,110.852,69.189,111.107"/>
						<path fill="#8A240D" d="M69.646,110.368l-4.559-2.48c0.156-0.223,0.325-0.437,0.504-0.64l4.559,2.48
							C69.971,109.931,69.802,110.145,69.646,110.368"/>
						<path fill="#8D250E" d="M70.149,109.729l-4.559-2.48c0.18-0.203,0.371-0.396,0.571-0.577l4.559,2.48
							C70.521,109.331,70.33,109.524,70.149,109.729"/>
						<path fill="#90260F" d="M70.721,109.151l-4.559-2.48c0.215-0.193,0.441-0.372,0.677-0.535l4.559,2.479
							C71.162,108.778,70.936,108.958,70.721,109.151"/>
						<path fill="#932710" d="M71.398,108.615l-4.559-2.479c0.29-0.2,0.594-0.377,0.91-0.524l4.559,2.479
							C71.992,108.239,71.688,108.415,71.398,108.615"/>
						<path fill="#962710" d="M72.308,108.091l-4.559-2.479c0.518-0.244,1.067-0.412,1.637-0.492l4.559,2.479
							C73.375,107.679,72.825,107.848,72.308,108.091"/>
					</g>
				</g>
			</g>
		</g>
	</g>
	<g>
		<g>
			<g enable-background="new    ">
				<g enable-background="new    ">
					<defs>
						<path id="SVGID_5_" enable-background="new    " d="M57.733,104.319l4.559,2.479c-0.865-0.471-1.892-0.67-2.991-0.515
							l-4.559-2.48C55.842,103.649,56.868,103.849,57.733,104.319z"/>
					</defs>
					<clipPath id="SVGID_6_">
						<use xlink:href="#SVGID_5_"  overflow="visible"/>
					</clipPath>
					<g clip-path="url(#SVGID_6_)" enable-background="new    ">
						<path fill="#962710" d="M59.301,106.284l-4.559-2.48c0.679-0.096,1.331-0.056,1.933,0.1l4.559,2.479
							C60.631,106.228,59.98,106.188,59.301,106.284"/>
						<path fill="#932710" d="M61.234,106.383l-4.559-2.479c0.31,0.079,0.606,0.189,0.887,0.327l4.559,2.48
							C61.84,106.572,61.543,106.463,61.234,106.383"/>
						<path fill="#90260F" d="M62.121,106.711l-4.559-2.48c0.058,0.028,0.115,0.059,0.171,0.089l4.559,2.479
							C62.236,106.769,62.179,106.739,62.121,106.711"/>
					</g>
				</g>
				<g>
					<path fill="#B52E18" d="M59.301,106.284c3.092-0.435,5.603,1.927,5.596,5.264c-0.006,3.346-2.526,6.406-5.619,6.841
						c-3.1,0.436-5.602-1.919-5.596-5.265C53.688,109.787,56.201,106.72,59.301,106.284z"/>
				</g>
				<g enable-background="new    ">
					<defs>
						<path id="SVGID_7_" enable-background="new    " d="M56.281,117.874l-4.559-2.479c-1.566-0.853-2.603-2.596-2.598-4.751
							c0.006-3.337,2.518-6.404,5.618-6.84l4.559,2.48c-3.1,0.436-5.612,3.503-5.618,6.84
							C53.679,115.278,54.715,117.022,56.281,117.874z"/>
					</defs>
					<clipPath id="SVGID_8_">
						<use xlink:href="#SVGID_7_"  overflow="visible"/>
					</clipPath>
					<g clip-path="url(#SVGID_8_)" enable-background="new    ">
						<path fill="#81220A" d="M56.281,117.874l-4.559-2.479c-1.566-0.853-2.603-2.596-2.598-4.751
							c0.001-0.821,0.155-1.627,0.432-2.381l4.559,2.479c-0.277,0.754-0.43,1.56-0.432,2.382
							C53.679,115.278,54.715,117.022,56.281,117.874"/>
						<path fill="#84230B" d="M54.114,110.742l-4.559-2.479c0.12-0.325,0.262-0.641,0.425-0.944l4.559,2.48
							C54.376,110.102,54.234,110.417,54.114,110.742"/>
						<path fill="#87240C" d="M54.54,109.799l-4.559-2.48c0.138-0.257,0.291-0.504,0.457-0.741l4.559,2.479
							C54.83,109.294,54.678,109.542,54.54,109.799"/>
						<path fill="#8A240D" d="M54.997,109.057l-4.559-2.479c0.157-0.224,0.326-0.438,0.505-0.641l4.559,2.479
							C55.322,108.619,55.153,108.833,54.997,109.057"/>
						<path fill="#8D250E" d="M55.501,108.416l-4.559-2.479c0.18-0.204,0.372-0.397,0.572-0.578l4.559,2.479
							C55.873,108.019,55.682,108.212,55.501,108.416"/>
						<path fill="#90260F" d="M56.074,107.838l-4.559-2.479c0.215-0.194,0.442-0.373,0.678-0.537l4.559,2.48
							C56.516,107.465,56.289,107.645,56.074,107.838"/>
						<path fill="#932710" d="M56.752,107.302l-4.559-2.48c0.29-0.2,0.594-0.376,0.91-0.524l4.559,2.479
							C57.346,106.925,57.042,107.101,56.752,107.302"/>
						<path fill="#962710" d="M57.662,106.776l-4.559-2.479c0.519-0.244,1.068-0.413,1.639-0.493l4.559,2.48
							C58.731,106.364,58.181,106.533,57.662,106.776"/>
					</g>
				</g>
			</g>
		</g>
	</g>
</g>
<g id="Batiment_2">
	<rect x="76.798" y="78.961" fill="#C4CDD7" width="38.069" height="72.073"/>
	<polygon fill="#5B5F61" points="114.852,78.978 76.782,78.978 91.721,68.007 129.79,68.007 	"/>
	<polygon fill="#777A7D" points="129.79,140.415 114.867,151.138 114.867,78.961 129.79,68.007 	"/>
	<polygon fill="#3D3D3B" points="129.79,114.932 114.945,125.975 114.945,106.188 129.79,95.25 	"/>
	<rect x="114.937" y="95.926" fill="#777A7D" width="1.741" height="35.729"/>
	<rect x="128.49" y="89.397" fill="#777A7D" width="1.248" height="35.729"/>
	<path fill="#3D3D3B" d="M128.437,112.694h-7.716v-10.717l7.716-5.638C128.437,99.204,128.437,112.694,128.437,112.694z"/>
	<polygon fill="#3D3D3B" points="87.033,78.974 86.445,78.974 101.334,68.011 101.951,68.017 	"/>
	<polygon fill="#3D3D3B" points="92.769,78.971 92.137,78.971 107.073,68.002 107.703,68.007 	"/>
	<polygon fill="#3D3D3B" points="98.489,78.979 97.885,78.979 112.797,68.007 113.422,68.007 	"/>
	<polygon fill="#3D3D3B" points="104.222,78.974 103.614,78.974 118.525,68.007 119.132,68.011 	"/>
	<polygon fill="#3D3D3B" points="109.951,78.974 109.33,78.979 124.249,68.007 124.86,68.011 	"/>
	<path fill="#444749" d="M128.482,112.405h-11.805v9.046C118.057,120.413,128.482,112.405,128.482,112.405z"/>
	<polygon fill="#3D3D3B" points="81.318,78.979 80.71,78.971 95.611,68.007 96.227,68.015 	"/>
</g>
<g id="sigle">
	<path fill="#FFFFFF" stroke="#1E1E1C" stroke-miterlimit="10" d="M110.152,126.404"/>
	<g>
		<path fill="#EC604A" stroke="#C4CDD7" stroke-miterlimit="10" d="M86.061,120.063c0.079,0.136,0.193,0.267,0.33,0.381
			c0.028-0.019,0.059-0.033,0.087-0.052c-0.073-0.128-0.109-0.275-0.107-0.439c0.004-0.216,0.075-0.451,0.221-0.705l1.787-3.071
			l1.658-2.87l2.035,1.175l-1.723-6.424l-6.424,1.722l2.039,1.186l-2.108,3.65c-0.259,0.449-0.259,1.182,0,1.63L86.061,120.063z"/>
		<path fill="#EC604A" stroke="#C4CDD7" stroke-miterlimit="10" d="M87.042,119.2c-0.146,0.253-0.217,0.494-0.221,0.706
			c-0.005,0.321,0.141,0.584,0.413,0.745c0.157,0.077,0.321,0.134,0.481,0.161c0.031,0.004,0.064,0.008,0.097,0.011l0.336,0.008
			h6.111v-1.712v-2.988h-5.43L87.042,119.2z"/>
		<path fill="#EC604A" stroke="#C4CDD7" stroke-miterlimit="10" d="M100.992,103.997l-2.098-3.656
			c-0.259-0.449-0.891-0.819-1.408-0.82l-4.408-0.016c-0.175,0-0.364,0.046-0.548,0.118v0.082c0.165-0.011,0.329,0.031,0.486,0.127
			c0.182,0.11,0.353,0.291,0.499,0.545l1.758,3.091l1.647,2.873l-2.039,1.17l6.417,1.74l1.743-6.417L100.992,103.997z"/>
		<path fill="#EC604A" stroke="#C4CDD7" stroke-miterlimit="10" d="M93.203,100.562c-0.145-0.251-0.314-0.433-0.498-0.543
			c-0.273-0.168-0.574-0.173-0.852-0.02c-0.146,0.097-0.276,0.211-0.381,0.336c-0.021,0.025-0.039,0.052-0.058,0.077l-0.176,0.288
			l-3.072,5.283l1.481,0.861l2.584,1.503l2.729-4.693L93.203,100.562z"/>
		<path fill="#EC604A" stroke="#C4CDD7" stroke-miterlimit="10" d="M103.152,116.262l-3.41,0.027l-0.019-2.419l-4.802,4.877
			l4.878,4.803l-0.011-2.427l4.34-0.033c0.533-0.003,1.183-0.387,1.445-0.85l2.237-3.946c0.151-0.266,0.212-0.627,0.188-0.974
			c-0.003,0.326-0.159,0.592-0.447,0.755c-0.191,0.106-0.44,0.167-0.741,0.17L103.152,116.262z"/>
		<path fill="#EC604A" stroke="#C4CDD7" stroke-miterlimit="10" d="M106.656,115.904c0.3-0.004,0.549-0.064,0.74-0.173
			c0.289-0.162,0.444-0.429,0.446-0.755c-0.012-0.179-0.049-0.354-0.108-0.512c-0.014-0.029-0.026-0.061-0.041-0.09l-0.168-0.302
			l-3.187-5.425l-1.52,0.896l-2.654,1.56l2.833,4.817L106.656,115.904z"/>
	</g>
</g>
<g id="Tapis_2">
	<polygon fill="#5B5F61" points="128.482,112.405 116.641,121.431 153.252,150.937 160.993,139.541 	"/>
</g>
<g id="carton_sur_tapis">
	
		<rect x="126.423" y="119.61" transform="matrix(0.7816 0.6238 -0.6238 0.7816 108.7614 -57.9311)" fill="#EC604A" width="21.362" height="13.464"/>
	<polygon fill="#C7311B" points="144.677,137.53 141.253,138.267 149.651,127.744 153.075,127.008 	"/>
	<polygon fill="#72160D" points="149.579,127.834 132.884,114.509 136.38,113.684 153.075,127.008 	"/>
</g>
<g id="tas_de_carton">
	<rect x="150.843" y="141.555" fill="#EC604A" width="21.36" height="13.462"/>
	<polygon fill="#C7311B" points="174.422,152.307 172.203,155.017 172.203,141.555 174.422,138.844 	"/>
	<polygon fill="#72160D" points="172.203,141.669 150.843,141.669 153.06,138.844 174.422,138.844 	"/>
	<polygon fill="#C7311B" points="198,152.307 195.783,155.017 195.783,141.555 198,138.844 	"/>
	<rect x="174.422" y="141.555" fill="#EC604A" width="21.361" height="13.462"/>
	<polygon fill="#72160D" points="195.783,141.669 174.422,141.669 176.639,138.844 198,138.844 	"/>
	<rect x="161.893" y="127.836" fill="#EC604A" width="21.363" height="13.463"/>
	<polygon fill="#C7311B" points="185.472,138.59 183.256,141.299 183.256,127.836 185.472,125.126 	"/>
	<polygon fill="#72160D" points="183.256,127.95 161.893,127.95 164.109,125.126 185.472,125.126 	"/>
</g>
<g id="levier">
	<rect x="7.296" y="98.27" fill="#3D3D3B" width="4.066" height="11.641"/>
	<polygon fill="#777A7D" points="5.541,99.101 10.067,107.231 10.067,108.248 4.154,101.688 	"/>
	<path fill="#3D3D3B" d="M6.896,100.495c0,1.607-0.848,2.701-1.895,2.701c-1.045,0-1.895-1.304-1.895-2.911
		c0-1.606,0.85-2.91,1.895-2.91C6.048,97.375,6.896,98.887,6.896,100.495z"/>
	<ellipse fill="#777A7D" cx="4.65" cy="100.14" rx="1.895" ry="2.841"/>
</g>
</svg>
