<?xml version="1.0" encoding="utf-8"?>
<!-- Generator: Adobe Illustrator 16.0.0, SVG Export Plug-In . SVG Version: 6.00 Build 0)  -->
<!DOCTYPE svg PUBLIC "-//W3C//DTD SVG 1.1//EN" "http://www.w3.org/Graphics/SVG/1.1/DTD/svg11.dtd">
<svg version="1.1" id="Calque_1" xmlns="http://www.w3.org/2000/svg" xmlns:xlink="http://www.w3.org/1999/xlink" x="0px" y="0px"
	 width="200px" height="200px" viewBox="0 0 200 200" enable-background="new 0 0 200 200" xml:space="preserve">
<g id="batiment">
	<polygon fill="#5B5F61" points="109.841,181.478 129.895,181.478 123.293,99.488 116.693,99.488 	"/>
	<polygon fill="#777A7D" points="121.39,160.664 141.443,160.664 134.843,78.672 128.242,78.672 	"/>
	<polygon fill="#C4CDD7" points="77.006,192.502 55.473,192.502 55.473,133.994 77.006,112.865 77.006,133.994 98.539,112.865 
		98.539,133.994 120.071,112.865 120.071,133.994 141.605,112.865 141.605,192.502 120.071,192.502 	"/>
	<polygon fill="#BEC4C8" points="77.006,192.934 55.473,192.934 55.473,134.424 77.006,113.298 77.006,134.424 98.539,113.298 
		98.539,134.424 120.071,113.298 120.071,134.424 141.605,113.298 141.605,192.934 120.071,192.934 	"/>
</g>
<g id="sigle">
	<g>
		<path fill="#5B5F61" d="M110.533,156.725c0.017,0.727-0.063,1.445-0.237,2.144c-0.112,0.44,0.047,0.579,0.422,0.71
			c1.534,0.537,2.906,1.348,4.083,2.479c2.113,2.04,3.284,4.516,3.438,7.457c0.082,1.568-0.141,3.097-0.702,4.57
			c-0.007,0.017-0.005,0.039-0.016,0.054c-0.153,0.23-0.103,0.738-0.554,0.587c-0.446-0.149-0.174-0.501-0.089-0.792
			c0.814-2.756,0.281-5.24-1.612-7.385c-1.349-1.528-3.065-2.351-5.135-2.467c-2.708-0.155-4.867,0.859-6.528,2.957
			c-0.3,0.378-0.514,0.46-0.882,0.162c-0.141-0.114-0.313-0.194-0.48-0.273c-0.582-0.268-0.948-0.557-0.846-1.357
			c0.097-0.772-0.425-1.406-1.169-1.723c-0.386-0.168-0.528-0.381-0.477-0.8c0.046-0.365,0.019-0.739-0.008-1.109
			c-0.036-0.477,0.186-0.634,0.637-0.69c2.744-0.347,4.775-1.782,5.95-4.257c2.107-4.442-0.448-9.554-5.162-10.624
			c-0.162-0.037-0.326-0.071-0.485-0.116c-0.155-0.042-0.382-0.064-0.333-0.281c0.043-0.195,0.253-0.163,0.423-0.147
			c1.213,0.104,2.367,0.45,3.45,0.978c3.038,1.484,5.043,3.857,5.941,7.131C110.412,154.841,110.52,155.777,110.533,156.725z"/>
		<path fill="#5B5F61" d="M107.775,181.226c-3.491-0.022-5.902-0.952-7.966-2.769c-0.317-0.279-0.493-0.293-0.824-0.011
			c-4.595,3.899-11.132,3.583-15.338-0.731c-0.271-0.278-0.517-0.577-0.763-0.878c-0.14-0.169-0.322-0.37-0.075-0.572
			c0.223-0.177,0.419-0.036,0.57,0.15c0.681,0.83,1.543,1.416,2.489,1.904c3.375,1.745,8.055,0.278,9.854-3.069
			c1.019-1.898,1.286-3.864,0.715-5.94c-0.082-0.299-0.181-0.605-0.34-0.868c-0.211-0.355-0.076-0.544,0.225-0.714
			c0.401-0.225,0.804-0.449,1.201-0.685c0.202-0.121,0.351-0.088,0.547,0.055c1.049,0.76,1.626,0.762,2.657,0.035
			c0.191-0.135,0.355-0.178,0.557-0.056c0.03,0.018,0.062,0.039,0.091,0.059c0.457,0.279,1.059,0.46,1.33,0.861
			c0.314,0.464-0.246,0.962-0.383,1.455c-1.149,4.103,1.102,7.964,4.661,9.27c3.104,1.137,6.199,0.304,8.4-2.17
			c0.073-0.083,0.135-0.176,0.215-0.252c0.146-0.139,0.3-0.216,0.479-0.035c0.163,0.165,0.138,0.311,0.002,0.484
			c-0.945,1.2-2.041,2.229-3.373,2.995C110.952,180.748,109.068,181.255,107.775,181.226z"/>
		<path fill="#5B5F61" d="M80.627,170.161c-0.094-5.051,3.319-9.384,7.826-10.722c0.326-0.095,0.423-0.209,0.36-0.584
			c-0.577-3.375,0.044-6.475,2.271-9.144c1.812-2.171,4.132-3.477,6.949-3.854c0.182-0.024,0.464-0.156,0.493,0.151
			c0.025,0.25-0.254,0.275-0.452,0.314c-1.708,0.324-3.153,1.122-4.323,2.409c-3.667,4.032-1.744,10.767,3.495,12.274
			c0.449,0.129,0.898,0.211,1.353,0.262c0.379,0.043,0.508,0.228,0.499,0.585c-0.012,0.442-0.01,0.888,0.004,1.331
			c0.007,0.296-0.103,0.469-0.381,0.596c-0.959,0.444-1.459,1.174-1.271,2.264c0.043,0.25-0.051,0.376-0.258,0.479
			c-0.377,0.192-0.771,0.367-1.117,0.61c-0.365,0.25-0.587,0.163-0.828-0.164c-1.309-1.776-3.084-2.779-5.25-3.076
			c-3.466-0.477-7.062,1.851-8.102,5.197c-0.528,1.703-0.512,3.384,0.116,5.051c0.081,0.218,0.182,0.453-0.08,0.584
			c-0.31,0.153-0.37-0.142-0.45-0.336C80.895,172.997,80.56,171.556,80.627,170.161z"/>
		<path fill="#5B5F61" d="M91.926,166.532c0.22,2.039,1.273,4.03,3.367,5.381c0.518,0.334,0.652,0.684,0.471,1.238
			c-0.156,0.476-0.306,0.944-0.527,1.396c-0.194,0.397-0.4,0.448-0.775,0.235c-2.62-1.488-4.345-3.667-5.113-6.587
			c-0.261-0.988-0.331-1.994-0.299-3.016c0.014-0.459,0.211-0.559,0.621-0.522c0.408,0.036,0.806,0.101,1.197,0.206
			C91.863,165.123,91.863,165.119,91.926,166.532z"/>
		<path fill="#5B5F61" d="M109.809,165.814c-0.223,4.035-2.049,7.076-5.602,9.049c-0.357,0.201-0.55,0.16-0.718-0.239
			c-0.237-0.58-0.461-1.164-0.581-1.784c-0.059-0.308,0.008-0.508,0.298-0.687c2.405-1.492,3.685-3.647,3.767-6.491
			c0.01-0.278,0.106-0.428,0.391-0.505c0.556-0.143,1.104-0.287,1.679-0.333c0.683-0.054,0.765,0.013,0.767,0.714
			C109.809,165.631,109.809,165.723,109.809,165.814z"/>
		<path fill="#5B5F61" d="M99.294,155.319c2.125-0.022,3.899,0.52,5.563,1.478c0.423,0.242,0.553,0.466,0.189,0.896
			c-0.393,0.467-0.788,0.926-1.246,1.327c-0.223,0.196-0.415,0.23-0.692,0.077c-2.438-1.335-4.893-1.341-7.343-0.024
			c-0.251,0.135-0.437,0.105-0.65-0.065c-0.466-0.372-0.852-0.815-1.202-1.291c-0.408-0.552-0.376-0.661,0.235-1.012
			C95.804,155.756,97.576,155.28,99.294,155.319z"/>
	</g>
</g>
<g id="Fumée">
	<path fill="#ECECEC" d="M131.547,76.681c-0.794-3.306-8.331-10.977-4.628-16.531c3.703-5.554,5.554-1.058,5.554-1.058
		c-2.38-8.464-6.743-25.787,1.323-23.672c8.066,2.116,5.951,7.671,5.951,7.671c1.453-10.977,30.548-18.646,31.475-9.39
		c0.925,9.257-15.341,21.027-26.582,17.457c1.587,1.983,14.151-0.265,9.125,5.554c-5.024,5.819-10.844,9.257-14.812,6.349
		c4.1-3.703,6.481,2.248,5.688,5.158C142.942,74.439,132.076,76.549,131.547,76.681z"/>
	<path fill="#ECECEC" d="M119.848,97.425c-0.278-1.15-2.902-3.822-1.612-5.757c1.289-1.934,1.935-0.368,1.935-0.368
		c-0.828-2.948-2.35-8.982,0.46-8.244c2.811,0.737,2.073,2.671,2.073,2.671c0.506-3.823,10.64-6.495,10.962-3.27
		c0.323,3.224-5.343,7.322-9.257,6.079c0.552,0.69,4.928-0.092,3.177,1.935c-1.75,2.026-3.777,3.225-5.159,2.211
		c1.428-1.29,2.256,0.784,1.98,1.797C123.815,96.645,120.031,97.379,119.848,97.425z"/>
</g>
</svg>
