<?xml version="1.0" encoding="utf-8"?>
<!-- Generator: Adobe Illustrator 16.0.0, SVG Export Plug-In . SVG Version: 6.00 Build 0)  -->
<!DOCTYPE svg PUBLIC "-//W3C//DTD SVG 1.1//EN" "http://www.w3.org/Graphics/SVG/1.1/DTD/svg11.dtd">
<svg version="1.1" xmlns="http://www.w3.org/2000/svg" xmlns:xlink="http://www.w3.org/1999/xlink" x="0px" y="0px" width="200px"
	 height="200px" viewBox="0 0 200 200" enable-background="new 0 0 200 200" xml:space="preserve">
<g id="bac_gris">
	<polygon fill="#646667" points="200.047,55.439 0,55.486 43.949,44.638 144.994,44.638 	"/>
	<polyline fill="#3A3D40" points="144.994,156.834 199.351,55.614 144.994,44.638 	"/>
	<polyline fill="#3A3D40" points="43.949,156.834 0,55.486 43.949,44.638 	"/>
	<polygon fill="#BEC4C8" points="160.535,157.184 39.558,157.184 0.046,55.439 200.047,55.439 	"/>
</g>
<g id="sigle">
	<g>
		<path fill="#FFFFFF" stroke="#BEC4C8" stroke-miterlimit="10" d="M71.139,128.077c0.222,0.383,0.545,0.747,0.927,1.065
			c0.079-0.05,0.161-0.094,0.241-0.143c-0.204-0.355-0.306-0.771-0.298-1.231c0.009-0.599,0.209-1.265,0.616-1.97l5-8.594
			l4.633-8.024l5.694,3.288L83.137,94.5l-17.966,4.815l5.698,3.316l-5.896,10.21c-0.724,1.255-0.724,3.305,0,4.557L71.139,128.077z"
			/>
		<path fill="#FFFFFF" stroke="#BEC4C8" stroke-miterlimit="10" d="M73.887,125.668c-0.405,0.706-0.605,1.376-0.615,1.973
			c-0.018,0.896,0.389,1.632,1.151,2.082c0.437,0.218,0.898,0.378,1.347,0.451c0.088,0.014,0.178,0.023,0.27,0.029l0.941,0.021
			h17.095v-4.791v-8.358H78.886L73.887,125.668z"/>
		<path fill="#FFFFFF" stroke="#BEC4C8" stroke-miterlimit="10" d="M112.902,83.144l-5.863-10.229
			c-0.721-1.256-2.493-2.288-3.94-2.291l-12.33-0.041c-0.49,0-1.019,0.12-1.532,0.321v0.232c0.46-0.029,0.923,0.088,1.36,0.356
			c0.512,0.309,0.988,0.816,1.394,1.522l4.92,8.643l4.606,8.036l-5.704,3.272l17.951,4.873l4.87-17.953L112.902,83.144z"/>
		<path fill="#FFFFFF" stroke="#BEC4C8" stroke-miterlimit="10" d="M91.121,73.538c-0.408-0.707-0.884-1.213-1.394-1.521
			c-0.766-0.47-1.607-0.486-2.382-0.056c-0.408,0.272-0.775,0.592-1.065,0.94c-0.056,0.07-0.109,0.145-0.162,0.219l-0.49,0.802
			l-8.593,14.777l4.14,2.407l7.23,4.203l7.637-13.127L91.121,73.538z"/>
		<path fill="#FFFFFF" stroke="#BEC4C8" stroke-miterlimit="10" d="M118.945,117.45l-9.533,0.075l-0.054-6.768l-13.435,13.638
			l13.646,13.434l-0.031-6.784l12.139-0.097c1.489-0.01,3.307-1.077,4.041-2.375l6.26-11.038c0.423-0.743,0.593-1.755,0.523-2.723
			c-0.007,0.913-0.443,1.657-1.251,2.11c-0.534,0.3-1.231,0.472-2.068,0.479L118.945,117.45z"/>
		<path fill="#FFFFFF" stroke="#BEC4C8" stroke-miterlimit="10" d="M128.746,116.446c0.837-0.006,1.533-0.18,2.068-0.482
			c0.81-0.452,1.248-1.197,1.251-2.11c-0.034-0.504-0.136-0.993-0.303-1.433c-0.038-0.083-0.076-0.168-0.118-0.251l-0.469-0.848
			l-8.914-15.167l-4.248,2.499l-7.424,4.364l7.922,13.475L128.746,116.446z"/>
	</g>
</g>
</svg>
