<?xml version="1.0" encoding="utf-8"?>
<!-- Generator: Adobe Illustrator 16.0.0, SVG Export Plug-In . SVG Version: 6.00 Build 0)  -->
<!DOCTYPE svg PUBLIC "-//W3C//DTD SVG 1.1//EN" "http://www.w3.org/Graphics/SVG/1.1/DTD/svg11.dtd">
<svg version="1.1" id="Calque_1" xmlns="http://www.w3.org/2000/svg" xmlns:xlink="http://www.w3.org/1999/xlink" x="0px" y="0px"
	 width="200px" height="200px" viewBox="0 0 200 200" enable-background="new 0 0 200 200" xml:space="preserve">
<g>
	<g>
		<polygon fill="#777A7D" points="161.497,6.193 42.774,6.221 68.856,-0.217 128.824,-0.217 		"/>
		<path fill="#738A29" d="M68.856-0.217c0,11.581,21.326,66.587,21.326,66.587"/>
		<polyline fill="#5B5F61" points="90.182,66.37 42.774,6.221 68.856,-0.217 		"/>
		<polyline fill="#5B5F61" points="107.498,66.37 161.082,6.296 128.824,-0.217 		"/>
		<polygon fill="#BEC4C8" points="116.721,66.576 87.577,66.576 42.801,6.193 161.497,6.193 		"/>
	</g>
	<rect x="87.577" y="58.899" fill="#BEC4C8" width="28.908" height="48.337"/>
	<rect x="42.208" y="78.338" fill="#BEC4C8" width="119.879" height="119.879"/>
</g>
<g>
	<circle fill="#737272" cx="70.227" cy="162.799" r="1.252"/>
	<path fill="#737272" d="M78.336,162.799c0,0.691-0.562,1.252-1.25,1.252c-0.696,0-1.252-0.561-1.252-1.252
		c0-0.689,0.557-1.25,1.252-1.25C77.774,161.549,78.336,162.109,78.336,162.799z"/>
	<circle fill="#737272" cx="74.501" cy="169.049" r="1.251"/>
	<circle fill="#737272" cx="70.227" cy="168.465" r="1.252"/>
	<path fill="#737272" d="M82.766,167.215c0,0.689-0.562,1.25-1.25,1.25c-0.693,0-1.252-0.561-1.252-1.25
		c0-0.691,0.559-1.254,1.252-1.254C82.204,165.961,82.766,166.523,82.766,167.215z"/>
	<circle fill="#737272" cx="82.768" cy="163.508" r="1.252"/>
	<path fill="#737272" d="M89.155,165.301c0,0.691-0.562,1.252-1.249,1.252c-0.695,0-1.252-0.561-1.252-1.252
		c0-0.689,0.557-1.25,1.252-1.25C88.593,164.051,89.155,164.611,89.155,165.301z"/>
	<path fill="#737272" d="M86.521,170.967c0,0.688-0.562,1.252-1.253,1.252c-0.69,0-1.248-0.564-1.248-1.252
		c0-0.691,0.558-1.252,1.248-1.252C85.958,169.715,86.521,170.275,86.521,170.967z"/>
	<g>
		<path fill="#193D70" d="M97.544,144.789c0,0-4.2-2.781-8.345,2.008c-4.403,5.082-9.442,11.357-9.442,11.357l13.142,9.566
			l8.47-13.293c0,0,2.807-4.65-1.151-7.688c-0.581-0.447-0.148-1.637-0.032-1.84l2.12-3.201l-1.301-0.842c0,0-1.537,2.43-2.15,3.264
			C98.64,144.418,97.892,145.029,97.544,144.789z"/>
		<path fill="#3D63AC" d="M80.385,158.609l10.18-9.908c0,0,8.087-2.699,8.248,5.797l-6.417,12.857L80.385,158.609z"/>
		<path fill="#646667" d="M100.726,140.779l20.289-29.305c0,0,1.304-0.498,1.479,0.949c0.075,0.639-20.038,29.475-20.038,29.475
			L100.726,140.779z"/>
		<path fill="#3F3B39" d="M120.551,111.828l1.876-2.848l0.458-3.322c0,0,0.042-1.494,1.167-3.346
			c0.667-1.092,0.847-0.871,1.326-0.697c0,0,3.003,0.941,4.763,2.756c0.3,0.312,0.402,0.572,0.219,0.893
			c-0.176,0.309-1.199,2.273-2.643,3.07c-1.441,0.793-3.255,1.76-3.255,1.76l-2.042,2.871L120.551,111.828z"/>
		<path fill="#A0A09F" d="M124.699,103.518c0,0,2.573,1.072,3.942,2.117c0.276,0.213,0.323,0.416,0.172,0.641
			c-0.153,0.227-0.266,0.504-0.774,0.895c-0.596,0.457-1.697,1.104-2.453,1.43c-0.531,0.229-2.086,0.986-2.054-1.068
			c0.032-2.068,0.021-1.959,0.117-2.582c0.052-0.346,0.005-0.258,0.474-1.27C124.324,103.242,124.484,103.426,124.699,103.518z"/>
		<path fill="#3F2314" d="M139.36,170.861c0,2.859-2.315,5.176-5.173,5.176l-63.42-0.115c-2.857,0-5.173-2.314-5.173-5.172v-10.498
			c0-2.859,1.777-3.346,4.585-3.875c3.2-0.604,5.37,2.357,9.305,2.1c6.062-0.402,8.005,1.328,11.21,1.398
			c8.567,0.195,11.296-2.779,21.145-3.578c5.542-0.453,6.716,2.893,12.087,1.436c4.232-1.148,7.108-0.158,10.922-0.258
			c1.82-0.047,4.513,0.035,4.513,2.891V170.861z"/>
		<path fill="#737272" d="M97.013,172.219c0,0.689-0.562,1.248-1.254,1.248c-0.689,0-1.248-0.559-1.248-1.248
			c0-0.693,0.559-1.252,1.248-1.252C96.451,170.967,97.013,171.525,97.013,172.219z"/>
		<path fill="#737272" d="M100.515,164.76c0,0.689-0.562,1.25-1.249,1.25c-0.695,0-1.252-0.561-1.252-1.25
			c0-0.691,0.558-1.252,1.252-1.252C99.953,163.508,100.515,164.068,100.515,164.76z"/>
		<circle fill="#737272" cx="105.107" cy="161.32" r="1.25"/>
		<path fill="#737272" d="M107.607,169.049c0,0.691-0.562,1.25-1.25,1.25c-0.691,0-1.253-0.559-1.253-1.25
			c0-0.689,0.562-1.252,1.253-1.252C107.045,167.797,107.607,168.359,107.607,169.049z"/>
		<path fill="#737272" d="M102.555,169.049c0,0.691-0.561,1.25-1.247,1.25c-0.696,0-1.254-0.559-1.254-1.25
			c0-0.689,0.558-1.252,1.254-1.252C101.994,167.797,102.555,168.359,102.555,169.049z"/>
		<circle fill="#737272" cx="103.304" cy="172.84" r="1.251"/>
		<circle fill="#737272" cx="94.509" cy="163.006" r="1.25"/>
		<circle fill="#737272" cx="112.858" cy="165.301" r="1.251"/>
		<circle fill="#737272" cx="114.111" cy="170.967" r="1.252"/>
		<circle fill="#737272" cx="123.534" cy="169.049" r="1.251"/>
		<path fill="#737272" d="M121.799,162.256c0,0.689-0.559,1.25-1.248,1.25c-0.691,0-1.254-0.561-1.254-1.25
			c0-0.691,0.562-1.252,1.254-1.252C121.24,161.004,121.799,161.564,121.799,162.256z"/>
		<path fill="#737272" d="M116.611,160.502c0,0.693-0.557,1.252-1.248,1.252s-1.254-0.559-1.254-1.252
			c0-0.688,0.562-1.246,1.254-1.246S116.611,159.814,116.611,160.502z"/>
		<path fill="#737272" d="M120.551,171.904c0,0.691-0.562,1.25-1.254,1.25c-0.689,0-1.248-0.559-1.248-1.25
			c0-0.693,0.559-1.25,1.248-1.25C119.988,170.654,120.551,171.211,120.551,171.904z"/>
		<path fill="#737272" d="M120.551,166.01c0,0.691-0.562,1.252-1.254,1.252c-0.689,0-1.248-0.561-1.248-1.252
			c0-0.689,0.559-1.25,1.248-1.25C119.988,164.76,120.551,165.32,120.551,166.01z"/>
		<circle fill="#737272" cx="131.704" cy="164.256" r="1.251"/>
		<circle fill="#737272" cx="132.953" cy="172.215" r="1.251"/>
		<path fill="#737272" d="M127.467,165.301c0,0.691-0.562,1.252-1.254,1.252s-1.247-0.561-1.247-1.252s0.556-1.25,1.247-1.25
			S127.467,164.609,127.467,165.301z"/>
	</g>
	<circle fill="#737272" cx="89.158" cy="168.465" r="1.251"/>
	<circle fill="#737272" cx="78.336" cy="173.154" r="1.25"/>
</g>
</svg>
