<?xml version="1.0" encoding="utf-8"?>
<!-- Generator: Adobe Illustrator 16.0.0, SVG Export Plug-In . SVG Version: 6.00 Build 0)  -->
<!DOCTYPE svg PUBLIC "-//W3C//DTD SVG 1.1//EN" "http://www.w3.org/Graphics/SVG/1.1/DTD/svg11.dtd">
<svg version="1.1" id="Calque_1" xmlns="http://www.w3.org/2000/svg" xmlns:xlink="http://www.w3.org/1999/xlink" x="0px" y="0px"
	 width="200px" height="200px" viewBox="0 0 200 200" enable-background="new 0 0 200 200" xml:space="preserve">
<g>
	<g>
		<polygon fill="#777A7D" points="162.692,6.41 43.969,6.439 70.052,0 130.02,0 		"/>
		<path fill="#738A29" d="M70.052,0c0,11.58,21.326,66.587,21.326,66.587"/>
		<polyline fill="#5B5F61" points="91.378,66.587 43.969,6.439 70.052,0 		"/>
		<polyline fill="#5B5F61" points="108.693,66.587 162.278,6.514 130.02,0 		"/>
		<polygon fill="#BEC4C8" points="117.917,66.793 88.772,66.793 43.997,6.41 162.692,6.41 		"/>
	</g>
	<rect x="88.772" y="59.116" fill="#BEC4C8" width="28.909" height="48.338"/>
	<rect x="43.404" y="78.555" fill="#BEC4C8" width="119.881" height="119.879"/>
</g>
<g>
	<path fill="#5B5F61" d="M102.658,124.153c0,0-7.796-11.267-0.554-18.791c7.907-8.212,8.446,11.669,8.1,13.846
		c-0.345,2.173-4.932,10.945-4.932,10.945L102.658,124.153z"/>
	<path fill="#BEC4C8" d="M104.835,127.68c0,0,0.395-6.052-0.353-7.874c-0.892-2.162-4.027-4.45-0.848-9.302
		c3.185-4.851,3.228-0.522,3.301,0.752c0.072,1.274,1.294,5.465-0.523,8.247c-1.818,2.783-0.454,8.177-0.454,8.177l-0.372,2.474
		L104.835,127.68z"/>
	<path fill="#777A7D" d="M102.585,169.376v-33.449c0,0,0-10.573-8.548-9.448c-8.554,1.123-19.659,2.752-22.047,2.924
		c-3.076,0.223-15.973-4.616,0-10.743c15.973-6.129,29.243,0.395,32.396,8.269c3.15,7.876-1.541-7.617,10.721-9.976
		c13.651-2.622,20.774,7.724,23.697,10.425c2.926,2.701-7.421,0.601-13.719-3.448c-6.297-4.052-16.65,0.747-16.65,5.924
		c0,5.175,0,39.523,0,39.523S105.734,174.957,102.585,169.376z"/>
</g>
</svg>
