<?xml version="1.0" encoding="utf-8"?>
<!-- Generator: Adobe Illustrator 16.0.0, SVG Export Plug-In . SVG Version: 6.00 Build 0)  -->
<!DOCTYPE svg PUBLIC "-//W3C//DTD SVG 1.1//EN" "http://www.w3.org/Graphics/SVG/1.1/DTD/svg11.dtd">
<svg version="1.1" id="Calque_1" xmlns="http://www.w3.org/2000/svg" xmlns:xlink="http://www.w3.org/1999/xlink" x="0px" y="0px"
	 width="200px" height="200px" viewBox="0 0 200 200" enable-background="new 0 0 200 200" xml:space="preserve">
<g>
	<g>
		<polygon fill="#777A7D" points="158.996,6.517 40.273,6.545 66.355,0.106 126.323,0.106 		"/>
		<path fill="#738A29" d="M66.355,0.106c0,11.581,21.327,66.586,21.327,66.586"/>
		<polyline fill="#5B5F61" points="87.682,66.692 40.273,6.545 66.355,0.106 		"/>
		<polyline fill="#5B5F61" points="104.998,66.692 158.582,6.62 126.323,0.106 		"/>
		<polygon fill="#BEC4C8" points="114.221,66.9 85.077,66.9 40.3,6.517 158.996,6.517 		"/>
	</g>
	<rect x="85.077" y="59.222" fill="#BEC4C8" width="28.909" height="48.338"/>
	<rect x="39.708" y="78.661" fill="#BEC4C8" width="119.88" height="119.88"/>
</g>
<path fill="#BEC4C8" d="M73.561,159.295c0-11.732,10.146-21.24,22.664-21.24c12.516,0,22.663,9.508,22.663,21.24
	c0,10.578-2.066,18.73-12.862,20.355c-1.179,0.176-12.54,0.314-13.771,0.314C79.737,179.965,73.561,171.028,73.561,159.295z"/>
<path fill="#777A7D" d="M119.86,135.856c-1.108-20.282-10.819-23.16-8.847-21.807c2.041,1.394,0.812,9.632-0.029,10.819
	c-1.006,1.399-2.621,1.857-2.365-1.904c0.928-13.791-13.867-26.159-13.867-26.159c2.033,6.254-1.011,22.311-2.028,19.608
	c-1.015-2.705-9.316-7.325-9.316-7.325c4.73,12.626,3.574,24.569,1.209,24.569c-2.368,0-9.131-13.186-6.088-7.436
	c3.042,5.744,2.026,23.159-0.344,19.773c-3.035-4.332-9.459-5.074-9.459-5.074c2.699,2.867,5.909,1.525,3.882,19.447
	c-2.026,17.919,11.919,18.765,11.919,18.765s7.776,1.137,10.319,0.803l-5.675-1.31c-15.291-5.748-2.022-19.865-2.022-19.865
	c0,8.961,8.282,9.384,8.282,9.384c-8.476-8.389-1.007-17.583-1.007-17.583c0,3.721,0.431,6.874,4.486,6.535
	c4.059-0.338,3.196-14.901,3.196-14.901c16.145,7.186,2.715,15.128,5.836,17.833c0,0,3.824-0.133,6.765-6.085
	c0.2-0.406,3.122,6.508-2.026,10.479c0,0,5.738-3.972,5.938,2.25c0.199,6.793-14.644,13.15-14.644,13.15
	c45.476,0.507,19.181-47.266,19.181-47.266C125.316,137.697,120.366,145.156,119.86,135.856z"/>
</svg>
