<?xml version="1.0" encoding="utf-8"?>
<!-- Generator: Adobe Illustrator 16.0.0, SVG Export Plug-In . SVG Version: 6.00 Build 0)  -->
<!DOCTYPE svg PUBLIC "-//W3C//DTD SVG 1.1//EN" "http://www.w3.org/Graphics/SVG/1.1/DTD/svg11.dtd">
<svg version="1.1" id="Calque_1" xmlns="http://www.w3.org/2000/svg" xmlns:xlink="http://www.w3.org/1999/xlink" x="0px" y="0px"
	 width="200px" height="200px" viewBox="0 0 200 200" enable-background="new 0 0 200 200" xml:space="preserve">
<g>
	<g>
		<polygon fill="#777A7D" points="164.835,6.41 46.112,6.439 72.194,0 132.163,0 		"/>
		<path fill="#738A29" d="M72.194,0c0,11.58,21.326,66.587,21.326,66.587"/>
		<polyline fill="#5B5F61" points="93.521,66.587 46.112,6.439 72.194,0 		"/>
		<polyline fill="#5B5F61" points="110.836,66.587 164.421,6.514 132.163,0 		"/>
		<polygon fill="#BEC4C8" points="120.059,66.793 90.915,66.793 46.139,6.41 164.835,6.41 		"/>
	</g>
	<rect x="90.915" y="59.116" fill="#BEC4C8" width="28.908" height="48.338"/>
	<rect x="45.547" y="78.555" fill="#BEC4C8" width="119.881" height="119.879"/>
</g>
<g>
	<polygon fill="#777A7D" points="116.653,126.043 93.038,102.423 116.653,102.423 	"/>
	<polygon fill="#777A7D" points="93.038,149.661 69.417,126.043 93.038,126.043 	"/>
	<polygon fill="#777A7D" points="116.653,149.661 93.038,126.043 116.653,126.043 	"/>
	<polygon fill="#777A7D" points="93.038,173.279 69.417,149.661 93.038,149.661 	"/>
	<polygon fill="#777A7D" points="140.275,149.661 116.653,126.043 140.275,126.043 	"/>
	<polygon fill="#777A7D" points="116.653,173.279 93.038,149.661 116.653,149.661 	"/>
</g>
</svg>
